G04*
G04 #@! TF.GenerationSoftware,Altium Limited,Altium Designer,19.0.12 (326)*
G04*
G04 Layer_Color=128*
%FSLAX25Y25*%
%MOIN*%
G70*
G01*
G75*
%ADD104C,0.00200*%
D104*
X36860Y47000D02*
X44160D01*
X40510Y43350D02*
Y50650D01*
X23360Y47000D02*
X30660D01*
X27010Y43350D02*
Y50650D01*
X50360Y47000D02*
X57660D01*
X54010Y43350D02*
Y50650D01*
X5860Y40750D02*
X13160D01*
X9510Y37100D02*
Y44400D01*
X5860Y53250D02*
X13160D01*
X9510Y49600D02*
Y56900D01*
X67860Y40750D02*
X75160D01*
X71510Y37100D02*
Y44400D01*
X67860Y53250D02*
X75160D01*
X71510Y49600D02*
Y56900D01*
X48010Y83733D02*
X55010D01*
X51510Y80233D02*
Y87233D01*
X48010Y103733D02*
X55010D01*
X51510Y100233D02*
Y107233D01*
X9510Y72079D02*
X13510D01*
X11510Y70079D02*
Y74079D01*
X9510Y115386D02*
X13510D01*
X11510Y113386D02*
Y117386D01*
X255038Y168236D02*
X266849D01*
X260943Y162331D02*
Y174142D01*
X6415Y168236D02*
X19014D01*
X12715Y161937D02*
Y174535D01*
X6415Y12724D02*
X19014D01*
X12715Y6425D02*
Y19024D01*
X254447Y12724D02*
X267045D01*
X260746Y6425D02*
Y19024D01*
X125738Y151500D02*
X129282D01*
X127510Y149728D02*
Y153272D01*
X125738Y161500D02*
X129282D01*
X127510Y159728D02*
Y163272D01*
X177738Y16721D02*
X181282D01*
X179510Y14949D02*
Y18492D01*
X177738Y26720D02*
X181282D01*
X179510Y24949D02*
Y28492D01*
X177738Y154000D02*
X181282D01*
X179510Y152228D02*
Y155772D01*
X177738Y164000D02*
X181282D01*
X179510Y162228D02*
Y165772D01*
X19163Y126000D02*
X23297D01*
X21230Y123933D02*
Y128067D01*
X56723Y126000D02*
X60856D01*
X58789Y123933D02*
Y128067D01*
X226871Y169303D02*
X230414D01*
X228642Y167532D02*
Y171075D01*
X226871Y159303D02*
X230414D01*
X228642Y157531D02*
Y161075D01*
X216871Y169303D02*
X220414D01*
X218642Y167532D02*
Y171075D01*
X216871Y159303D02*
X220414D01*
X218642Y157531D02*
Y161075D01*
X206871Y169303D02*
X210414D01*
X208642Y167532D02*
Y171075D01*
X206871Y159303D02*
X210414D01*
X208642Y157531D02*
Y161075D01*
X133238Y82941D02*
X136782D01*
X135010Y81169D02*
Y84713D01*
X133238Y92941D02*
X136782D01*
X135010Y91169D02*
Y94713D01*
X260738Y105648D02*
X264282D01*
X262510Y103877D02*
Y107420D01*
X260738Y95648D02*
X264282D01*
X262510Y93877D02*
Y97420D01*
X260738Y85648D02*
X264282D01*
X262510Y83877D02*
Y87420D01*
X260738Y75648D02*
X264282D01*
X262510Y73877D02*
Y77420D01*
X260738Y65648D02*
X264282D01*
X262510Y63877D02*
Y67420D01*
X260738Y55648D02*
X264282D01*
X262510Y53877D02*
Y57420D01*
X260738Y45648D02*
X264282D01*
X262510Y43877D02*
Y47420D01*
X260738Y35648D02*
X264282D01*
X262510Y33877D02*
Y37420D01*
X246010Y146500D02*
X248010D01*
X247010Y145500D02*
Y147500D01*
X227642Y151000D02*
X229642D01*
X228642Y150000D02*
Y152000D01*
X108010Y95500D02*
X110010D01*
X109010Y94500D02*
Y96500D01*
X146708Y116281D02*
X148708D01*
X147708Y115281D02*
Y117281D01*
X205282Y98000D02*
X207282D01*
X206282Y97000D02*
Y99000D01*
X205904Y58500D02*
X207904D01*
X206904Y57500D02*
Y59500D01*
X234510Y63500D02*
X236510D01*
X235510Y62500D02*
Y64500D01*
X188596Y104500D02*
X190596D01*
X189596Y103500D02*
Y105500D01*
X198010Y75000D02*
X200010D01*
X199010Y74000D02*
Y76000D01*
X112010Y133500D02*
X114010D01*
X113010Y132500D02*
Y134500D01*
X42010Y164500D02*
X44010D01*
X43010Y163500D02*
Y165500D01*
X204510Y84000D02*
X206510D01*
X205510Y83000D02*
Y85000D01*
Y90000D02*
X207510D01*
X206510Y89000D02*
Y91000D01*
X210010Y94000D02*
X212010D01*
X211010Y93000D02*
Y95000D01*
X131510Y19000D02*
X133510D01*
X132510Y18000D02*
Y20000D01*
X131510Y37000D02*
X133510D01*
X132510Y36000D02*
Y38000D01*
X84010Y37000D02*
X86010D01*
X85010Y36000D02*
Y38000D01*
X84010Y19000D02*
X86010D01*
X85010Y18000D02*
Y20000D01*
X102010Y37000D02*
X104010D01*
X103010Y36000D02*
Y38000D01*
X102010Y19000D02*
X104010D01*
X103010Y18000D02*
Y20000D01*
X113660Y37000D02*
X115660D01*
X114660Y36000D02*
Y38000D01*
X113510Y19000D02*
X115510D01*
X114510Y18000D02*
Y20000D01*
X157010Y124000D02*
X159010D01*
X158010Y123000D02*
Y125000D01*
X174510Y124000D02*
X176510D01*
X175510Y123000D02*
Y125000D01*
X169510Y47000D02*
X171510D01*
X170510Y46000D02*
Y48000D01*
X190010Y44374D02*
X192010D01*
X191010Y43374D02*
Y45374D01*
X197010Y144000D02*
X199010D01*
X198010Y143000D02*
Y145000D01*
X207642Y151000D02*
X209642D01*
X208642Y150000D02*
Y152000D01*
X201010Y79500D02*
X203010D01*
X202010Y78500D02*
Y80500D01*
X178010Y94500D02*
X180010D01*
X179010Y93500D02*
Y95500D01*
X190010Y77500D02*
X192010D01*
X191010Y76500D02*
Y78500D01*
X161510Y164209D02*
X163510D01*
X162510Y163209D02*
Y165209D01*
X182501Y97101D02*
X184501D01*
X183501Y96101D02*
Y98101D01*
X166510Y157500D02*
X168510D01*
X167510Y156500D02*
Y158500D01*
X194010Y109000D02*
X196010D01*
X195010Y108000D02*
Y110000D01*
X166510Y16500D02*
X168510D01*
X167510Y15500D02*
Y17500D01*
X166510Y38500D02*
X168510D01*
X167510Y37500D02*
Y39500D01*
X170010Y63500D02*
X172010D01*
X171010Y62500D02*
Y64500D01*
X161510Y153500D02*
X163510D01*
X162510Y152500D02*
Y154500D01*
X151510Y164000D02*
X153510D01*
X152510Y163000D02*
Y165000D01*
X154010Y82941D02*
X156010D01*
X155010Y81941D02*
Y83941D01*
X199010Y17941D02*
X201010D01*
X200010Y16941D02*
Y18941D01*
X151510Y26500D02*
X153510D01*
X152510Y25500D02*
Y27500D01*
M02*
