G04*
G04 #@! TF.GenerationSoftware,Altium Limited,Altium Designer,19.0.12 (326)*
G04*
G04 Layer_Physical_Order=2*
G04 Layer_Color=16711680*
%FSLAX25Y25*%
%MOIN*%
G70*
G01*
G75*
%ADD88C,0.02000*%
%ADD92C,0.10000*%
%ADD93C,0.09843*%
%ADD94C,0.07000*%
%ADD95C,0.19685*%
%ADD96R,0.05906X0.05906*%
%ADD97C,0.05906*%
%ADD98C,0.06102*%
%ADD99R,0.05906X0.05906*%
%ADD100C,0.03000*%
G36*
X252944Y175566D02*
X252144Y174629D01*
X251252Y173174D01*
X250599Y171597D01*
X250201Y169938D01*
X250067Y168236D01*
X250201Y166535D01*
X250599Y164875D01*
X251252Y163299D01*
X252144Y161844D01*
X253253Y160546D01*
X254550Y159437D01*
X256005Y158546D01*
X257582Y157893D01*
X259242Y157494D01*
X260943Y157360D01*
X262645Y157494D01*
X264304Y157893D01*
X265881Y158546D01*
X267336Y159437D01*
X268273Y160237D01*
X270510Y158000D01*
Y23000D01*
X268161Y20651D01*
X267139Y21523D01*
X265684Y22415D01*
X264107Y23068D01*
X262448Y23467D01*
X260746Y23600D01*
X259045Y23467D01*
X257385Y23068D01*
X255809Y22415D01*
X254353Y21523D01*
X253056Y20415D01*
X251947Y19117D01*
X251056Y17662D01*
X250402Y16085D01*
X250004Y14426D01*
X249870Y12724D01*
X250004Y11023D01*
X250402Y9364D01*
X251056Y7787D01*
X251947Y6332D01*
X252820Y5310D01*
X250510Y3000D01*
X25510D01*
X21766Y6744D01*
X22405Y7787D01*
X23058Y9364D01*
X23457Y11023D01*
X23591Y12724D01*
X23457Y14426D01*
X23058Y16085D01*
X22405Y17662D01*
X21514Y19117D01*
X20405Y20415D01*
X19107Y21523D01*
X17652Y22415D01*
X16076Y23068D01*
X14416Y23467D01*
X12715Y23600D01*
X11013Y23467D01*
X9354Y23068D01*
X7777Y22415D01*
X6734Y21776D01*
X3010Y25500D01*
Y40431D01*
X3510Y40455D01*
X3597Y39574D01*
X3940Y38443D01*
X4497Y37400D01*
X5247Y36487D01*
X6160Y35737D01*
X7203Y35180D01*
X8334Y34837D01*
X9510Y34721D01*
X10686Y34837D01*
X11817Y35180D01*
X12859Y35737D01*
X13773Y36487D01*
X14523Y37400D01*
X15080Y38443D01*
X15423Y39574D01*
X15539Y40750D01*
X15423Y41926D01*
X15080Y43057D01*
X14523Y44100D01*
X13773Y45013D01*
X12859Y45763D01*
X11817Y46320D01*
X10686Y46663D01*
X9817Y46749D01*
Y47251D01*
X10686Y47337D01*
X11817Y47680D01*
X12859Y48237D01*
X13773Y48987D01*
X14523Y49900D01*
X15080Y50943D01*
X15423Y52074D01*
X15539Y53250D01*
X15423Y54426D01*
X15080Y55557D01*
X14523Y56600D01*
X13773Y57513D01*
X12859Y58263D01*
X11817Y58820D01*
X10686Y59163D01*
X9510Y59279D01*
X8334Y59163D01*
X7203Y58820D01*
X6160Y58263D01*
X5247Y57513D01*
X4497Y56600D01*
X3940Y55557D01*
X3597Y54426D01*
X3510Y53545D01*
X3010Y53569D01*
Y158000D01*
X5311Y160301D01*
X6322Y159437D01*
X7777Y158546D01*
X9354Y157893D01*
X11013Y157494D01*
X12715Y157360D01*
X14416Y157494D01*
X16076Y157893D01*
X17652Y158546D01*
X19107Y159437D01*
X20405Y160546D01*
X21514Y161844D01*
X22405Y163299D01*
X23058Y164875D01*
X23457Y166535D01*
X23591Y168236D01*
X23457Y169938D01*
X23058Y171597D01*
X22405Y173174D01*
X21514Y174629D01*
X20650Y175640D01*
X23010Y178000D01*
X250510D01*
X252944Y175566D01*
D02*
G37*
%LPC*%
G36*
X43010Y167049D02*
X42064Y166861D01*
X43010Y165914D01*
X43957Y166861D01*
X43010Y167049D01*
D02*
G37*
G36*
X152510Y166549D02*
X151564Y166361D01*
X152510Y165414D01*
X153456Y166361D01*
X152510Y166549D01*
D02*
G37*
G36*
X232595Y173256D02*
X224690D01*
Y165350D01*
X232595D01*
Y173256D01*
D02*
G37*
G36*
X218642Y173290D02*
X217610Y173154D01*
X216649Y172756D01*
X215823Y172122D01*
X215190Y171297D01*
X214791Y170335D01*
X214655Y169303D01*
X214791Y168271D01*
X215190Y167310D01*
X215823Y166484D01*
X216649Y165850D01*
X217610Y165452D01*
X218642Y165316D01*
X219674Y165452D01*
X220636Y165850D01*
X221461Y166484D01*
X222095Y167310D01*
X222493Y168271D01*
X222629Y169303D01*
X222493Y170335D01*
X222095Y171297D01*
X221461Y172122D01*
X220636Y172756D01*
X219674Y173154D01*
X218642Y173290D01*
D02*
G37*
G36*
X208642D02*
X207610Y173154D01*
X206649Y172756D01*
X205823Y172122D01*
X205190Y171297D01*
X204791Y170335D01*
X204655Y169303D01*
X204791Y168271D01*
X205190Y167310D01*
X205823Y166484D01*
X206649Y165850D01*
X207610Y165452D01*
X208642Y165316D01*
X209674Y165452D01*
X210636Y165850D01*
X211461Y166484D01*
X212095Y167310D01*
X212493Y168271D01*
X212629Y169303D01*
X212493Y170335D01*
X212095Y171297D01*
X211461Y172122D01*
X210636Y172756D01*
X209674Y173154D01*
X208642Y173290D01*
D02*
G37*
G36*
X45371Y165446D02*
X44424Y164500D01*
X45371Y163554D01*
X45559Y164500D01*
X45371Y165446D01*
D02*
G37*
G36*
X40649Y165446D02*
X40461Y164500D01*
X40649Y163554D01*
X41596Y164500D01*
X40649Y165446D01*
D02*
G37*
G36*
X154871Y164946D02*
X153924Y164000D01*
X154871Y163054D01*
X155059Y164000D01*
X154871Y164946D01*
D02*
G37*
G36*
X150149Y164946D02*
X149961Y164000D01*
X150149Y163054D01*
X151096Y164000D01*
X150149Y164946D01*
D02*
G37*
G36*
X127510Y165487D02*
X126478Y165351D01*
X125517Y164953D01*
X125491Y164933D01*
X127510Y162914D01*
X129529Y164933D01*
X129503Y164953D01*
X128542Y165351D01*
X127510Y165487D01*
D02*
G37*
G36*
X43010Y163086D02*
X42064Y162139D01*
X43010Y161951D01*
X43957Y162139D01*
X43010Y163086D01*
D02*
G37*
G36*
X152510Y162586D02*
X151564Y161639D01*
X152510Y161451D01*
X153456Y161639D01*
X152510Y162586D01*
D02*
G37*
G36*
X208642Y163290D02*
X207610Y163154D01*
X206649Y162756D01*
X206623Y162736D01*
X208642Y160717D01*
X210661Y162736D01*
X210636Y162756D01*
X209674Y163154D01*
X208642Y163290D01*
D02*
G37*
G36*
X179510Y167987D02*
X178478Y167851D01*
X177517Y167453D01*
X176691Y166819D01*
X176057Y165993D01*
X175659Y165032D01*
X175523Y164000D01*
X175659Y162968D01*
X176057Y162007D01*
X176691Y161181D01*
X177517Y160547D01*
X178478Y160149D01*
X179510Y160013D01*
X180542Y160149D01*
X181503Y160547D01*
X182329Y161181D01*
X182963Y162007D01*
X183361Y162968D01*
X183497Y164000D01*
X183361Y165032D01*
X182963Y165993D01*
X182329Y166819D01*
X181503Y167453D01*
X180542Y167851D01*
X179510Y167987D01*
D02*
G37*
G36*
X124077Y163519D02*
X124057Y163493D01*
X123659Y162532D01*
X123523Y161500D01*
X123659Y160468D01*
X124057Y159507D01*
X124077Y159481D01*
X126096Y161500D01*
X124077Y163519D01*
D02*
G37*
G36*
X130943Y163519D02*
X128924Y161500D01*
X130943Y159481D01*
X130963Y159507D01*
X131361Y160468D01*
X131497Y161500D01*
X131361Y162532D01*
X130963Y163493D01*
X130943Y163519D01*
D02*
G37*
G36*
X127510Y160086D02*
X125491Y158067D01*
X125517Y158047D01*
X126478Y157649D01*
X127510Y157513D01*
X128542Y157649D01*
X129503Y158047D01*
X129529Y158067D01*
X127510Y160086D01*
D02*
G37*
G36*
X212075Y161322D02*
X210056Y159303D01*
X212075Y157284D01*
X212095Y157310D01*
X212493Y158271D01*
X212629Y159303D01*
X212493Y160335D01*
X212095Y161297D01*
X212075Y161322D01*
D02*
G37*
G36*
X205209Y161322D02*
X205190Y161297D01*
X204791Y160335D01*
X204655Y159303D01*
X204791Y158271D01*
X205190Y157310D01*
X205209Y157284D01*
X207228Y159303D01*
X205209Y161322D01*
D02*
G37*
G36*
X228642Y163290D02*
X227610Y163154D01*
X226649Y162756D01*
X225823Y162122D01*
X225190Y161297D01*
X224791Y160335D01*
X224655Y159303D01*
X224791Y158271D01*
X225190Y157310D01*
X225823Y156484D01*
X226649Y155850D01*
X227610Y155452D01*
X228642Y155316D01*
X229674Y155452D01*
X230636Y155850D01*
X231461Y156484D01*
X232095Y157310D01*
X232493Y158271D01*
X232629Y159303D01*
X232493Y160335D01*
X232095Y161297D01*
X231461Y162122D01*
X230636Y162756D01*
X229674Y163154D01*
X228642Y163290D01*
D02*
G37*
G36*
X218642D02*
X217610Y163154D01*
X216649Y162756D01*
X215823Y162122D01*
X215190Y161297D01*
X214791Y160335D01*
X214655Y159303D01*
X214791Y158271D01*
X215190Y157310D01*
X215823Y156484D01*
X216649Y155850D01*
X217610Y155452D01*
X218642Y155316D01*
X219674Y155452D01*
X220636Y155850D01*
X221461Y156484D01*
X222095Y157310D01*
X222493Y158271D01*
X222629Y159303D01*
X222493Y160335D01*
X222095Y161297D01*
X221461Y162122D01*
X220636Y162756D01*
X219674Y163154D01*
X218642Y163290D01*
D02*
G37*
G36*
X208642Y157889D02*
X206623Y155870D01*
X206649Y155850D01*
X207610Y155452D01*
X208642Y155316D01*
X209674Y155452D01*
X210636Y155850D01*
X210661Y155870D01*
X208642Y157889D01*
D02*
G37*
G36*
X162510Y166758D02*
X161535Y166564D01*
X160708Y166011D01*
X160155Y165184D01*
X159961Y164209D01*
X160155Y163233D01*
X160708Y162406D01*
X161535Y161854D01*
X162092Y161743D01*
X163777Y160058D01*
X164438Y159616D01*
X165219Y159461D01*
X165479Y158961D01*
X165155Y158475D01*
X164961Y157500D01*
X165155Y156525D01*
X165471Y156052D01*
Y153992D01*
X164971Y153943D01*
X164865Y154475D01*
X164312Y155302D01*
X163485Y155855D01*
X162510Y156049D01*
X161535Y155855D01*
X160708Y155302D01*
X160155Y154475D01*
X159961Y153500D01*
X160155Y152525D01*
X160471Y152052D01*
Y125717D01*
X159971Y125565D01*
X159812Y125802D01*
X158985Y126355D01*
X158010Y126549D01*
X157063Y126361D01*
X158717Y124707D01*
X158010Y124000D01*
X158717Y123293D01*
X157063Y121639D01*
X158010Y121451D01*
X158985Y121645D01*
X159812Y122198D01*
X159971Y122435D01*
X160471Y122283D01*
Y65500D01*
X160626Y64720D01*
X161068Y64058D01*
X163068Y62058D01*
X163730Y61616D01*
X164510Y61461D01*
X169562D01*
X170035Y61145D01*
X171010Y60951D01*
X171985Y61145D01*
X172812Y61698D01*
X173365Y62525D01*
X173559Y63500D01*
X173365Y64476D01*
X172812Y65302D01*
X171985Y65855D01*
X171010Y66049D01*
X170035Y65855D01*
X169562Y65539D01*
X165355D01*
X164549Y66345D01*
Y152052D01*
X164865Y152525D01*
X164971Y153057D01*
X165471Y153007D01*
Y113092D01*
X165626Y112311D01*
X166068Y111650D01*
X180817Y96900D01*
X180499Y96512D01*
X179985Y96855D01*
X179010Y97049D01*
X178034Y96855D01*
X177208Y96302D01*
X176655Y95476D01*
X176461Y94500D01*
X176655Y93525D01*
X176971Y93052D01*
Y50845D01*
X173495Y47369D01*
X172953Y47534D01*
X172871Y47947D01*
X171217Y46293D01*
X169563Y44639D01*
X169976Y44557D01*
X170141Y44015D01*
X167092Y40966D01*
X166534Y40855D01*
X165708Y40302D01*
X165155Y39476D01*
X164961Y38500D01*
X165155Y37525D01*
X165708Y36698D01*
X166534Y36145D01*
X167510Y35951D01*
X168485Y36145D01*
X169312Y36698D01*
X169865Y37525D01*
X169976Y38082D01*
X180452Y48558D01*
X180894Y49220D01*
X181049Y50000D01*
X181049Y50000D01*
Y93052D01*
X181365Y93525D01*
X181559Y94500D01*
X181492Y94835D01*
X181942Y95135D01*
X182525Y94746D01*
X183501Y94552D01*
X184476Y94746D01*
X185303Y95298D01*
X185856Y96125D01*
X186050Y97101D01*
X186011Y97294D01*
X186472Y97540D01*
X188971Y95042D01*
Y78948D01*
X188655Y78475D01*
X188461Y77500D01*
X188655Y76525D01*
X189208Y75698D01*
X190034Y75145D01*
X191010Y74951D01*
X191985Y75145D01*
X192471Y75469D01*
X192971Y75202D01*
Y57345D01*
X171068Y35442D01*
X170626Y34780D01*
X170471Y34000D01*
Y22345D01*
X167092Y18966D01*
X166534Y18855D01*
X165708Y18302D01*
X165155Y17476D01*
X164961Y16500D01*
X165155Y15525D01*
X165708Y14698D01*
X166534Y14145D01*
X167510Y13951D01*
X168485Y14145D01*
X169312Y14698D01*
X169865Y15525D01*
X169976Y16082D01*
X173952Y20058D01*
X174394Y20720D01*
X174549Y21500D01*
Y33155D01*
X196452Y55058D01*
X196452Y55058D01*
X196894Y55720D01*
X197049Y56500D01*
X197049Y56500D01*
Y72702D01*
X197549Y72969D01*
X198035Y72645D01*
X199010Y72451D01*
X199985Y72645D01*
X200458Y72961D01*
X249665D01*
X257672Y64954D01*
X258334Y64512D01*
X258735Y64432D01*
X259057Y63655D01*
X259691Y62829D01*
X260517Y62196D01*
X261478Y61797D01*
X262510Y61661D01*
X263542Y61797D01*
X264503Y62196D01*
X265329Y62829D01*
X265963Y63655D01*
X266361Y64617D01*
X266497Y65648D01*
X266361Y66680D01*
X265963Y67642D01*
X265329Y68467D01*
X264503Y69101D01*
X263542Y69499D01*
X262510Y69635D01*
X261478Y69499D01*
X260517Y69101D01*
X259824Y68570D01*
X255247Y73147D01*
X255438Y73609D01*
X259092D01*
X259691Y72829D01*
X260517Y72196D01*
X261478Y71797D01*
X262510Y71662D01*
X263542Y71797D01*
X264503Y72196D01*
X265329Y72829D01*
X265963Y73655D01*
X266361Y74616D01*
X266497Y75648D01*
X266361Y76680D01*
X265963Y77642D01*
X265329Y78468D01*
X264503Y79101D01*
X263542Y79499D01*
X262510Y79635D01*
X261478Y79499D01*
X260517Y79101D01*
X259691Y78468D01*
X259092Y77688D01*
X255206D01*
X251952Y80942D01*
X251290Y81384D01*
X250510Y81539D01*
X250453D01*
X250404Y82039D01*
X250790Y82116D01*
X251452Y82558D01*
X252503Y83609D01*
X259092D01*
X259691Y82829D01*
X260517Y82196D01*
X261478Y81797D01*
X262510Y81661D01*
X263542Y81797D01*
X264503Y82196D01*
X265329Y82829D01*
X265963Y83655D01*
X266361Y84617D01*
X266497Y85648D01*
X266361Y86680D01*
X265963Y87642D01*
X265329Y88468D01*
X264503Y89101D01*
X263542Y89499D01*
X262510Y89635D01*
X261478Y89499D01*
X260517Y89101D01*
X259691Y88468D01*
X259092Y87687D01*
X251658D01*
X250878Y87532D01*
X250216Y87090D01*
X249165Y86039D01*
X206958D01*
X206485Y86355D01*
X205510Y86549D01*
X204535Y86355D01*
X203708Y85802D01*
X203155Y84975D01*
X202961Y84000D01*
X203155Y83025D01*
X203681Y82237D01*
X203681Y82105D01*
X203564Y81692D01*
X203320Y81632D01*
X202985Y81855D01*
X202010Y82049D01*
X201034Y81855D01*
X200208Y81302D01*
X199655Y80475D01*
X199461Y79500D01*
X199655Y78525D01*
X200130Y77814D01*
X199848Y77382D01*
X199010Y77549D01*
X198035Y77355D01*
X197549Y77031D01*
X197049Y77298D01*
Y107552D01*
X197365Y108025D01*
X197559Y109000D01*
X197365Y109976D01*
X196812Y110802D01*
X195985Y111355D01*
X195010Y111549D01*
X194035Y111355D01*
X193208Y110802D01*
X192655Y109976D01*
X192461Y109000D01*
X192655Y108025D01*
X192971Y107552D01*
Y97452D01*
X192471Y97300D01*
X192452Y97328D01*
X192452Y97328D01*
X173549Y116231D01*
Y121702D01*
X174049Y121969D01*
X174534Y121645D01*
X175510Y121451D01*
X176456Y121639D01*
X174803Y123293D01*
X175510Y124000D01*
X174803Y124707D01*
X176456Y126361D01*
X175510Y126549D01*
X174534Y126355D01*
X174049Y126031D01*
X173549Y126298D01*
Y159500D01*
X173394Y160280D01*
X172952Y160942D01*
X170952Y162942D01*
X170290Y163384D01*
X169510Y163539D01*
X166063D01*
X164976Y164627D01*
X164865Y165184D01*
X164312Y166011D01*
X163485Y166564D01*
X162510Y166758D01*
D02*
G37*
G36*
X208642Y153549D02*
X207696Y153361D01*
X208642Y152414D01*
X209589Y153361D01*
X208642Y153549D01*
D02*
G37*
G36*
X211003Y151946D02*
X210056Y151000D01*
X211003Y150054D01*
X211191Y151000D01*
X211003Y151946D01*
D02*
G37*
G36*
X206282Y151946D02*
X206093Y151000D01*
X206282Y150054D01*
X207228Y151000D01*
X206282Y151946D01*
D02*
G37*
G36*
X183463Y157953D02*
X175557D01*
Y150047D01*
X183463D01*
Y157953D01*
D02*
G37*
G36*
X228642Y153549D02*
X227667Y153355D01*
X227194Y153039D01*
X222010D01*
X221230Y152884D01*
X220568Y152442D01*
X220568Y152442D01*
X214165Y146039D01*
X199458D01*
X198985Y146355D01*
X198010Y146549D01*
X197035Y146355D01*
X196208Y145802D01*
X195655Y144975D01*
X195461Y144000D01*
X195655Y143025D01*
X196208Y142198D01*
X197035Y141645D01*
X198010Y141451D01*
X198985Y141645D01*
X199458Y141961D01*
X215010D01*
X215790Y142116D01*
X216452Y142558D01*
X222855Y148961D01*
X227194D01*
X227667Y148645D01*
X228642Y148451D01*
X229618Y148645D01*
X230445Y149198D01*
X230997Y150025D01*
X231191Y151000D01*
X230997Y151976D01*
X230445Y152802D01*
X229618Y153355D01*
X228642Y153549D01*
D02*
G37*
G36*
X208642Y149586D02*
X207696Y148639D01*
X208642Y148451D01*
X209589Y148639D01*
X208642Y149586D01*
D02*
G37*
G36*
X247010Y149049D02*
X246063Y148861D01*
X247010Y147914D01*
X247956Y148861D01*
X247010Y149049D01*
D02*
G37*
G36*
X131463Y155453D02*
X123557D01*
Y147547D01*
X131463D01*
Y155453D01*
D02*
G37*
G36*
X249371Y147447D02*
X248424Y146500D01*
X249371Y145554D01*
X249559Y146500D01*
X249371Y147447D01*
D02*
G37*
G36*
X244649Y147447D02*
X244461Y146500D01*
X244649Y145554D01*
X245596Y146500D01*
X244649Y147447D01*
D02*
G37*
G36*
X247010Y145086D02*
X246063Y144139D01*
X247010Y143951D01*
X247956Y144139D01*
X247010Y145086D01*
D02*
G37*
G36*
X113010Y136049D02*
X112064Y135861D01*
X113010Y134914D01*
X113956Y135861D01*
X113010Y136049D01*
D02*
G37*
G36*
X115371Y134447D02*
X114424Y133500D01*
X115371Y132554D01*
X115559Y133500D01*
X115371Y134447D01*
D02*
G37*
G36*
X110649Y134447D02*
X110461Y133500D01*
X110649Y132554D01*
X111596Y133500D01*
X110649Y134447D01*
D02*
G37*
G36*
X113010Y132086D02*
X112064Y131139D01*
X113010Y130951D01*
X113956Y131139D01*
X113010Y132086D01*
D02*
G37*
G36*
X177871Y124946D02*
X176924Y124000D01*
X177871Y123054D01*
X178059Y124000D01*
X177871Y124946D01*
D02*
G37*
G36*
X155649Y124946D02*
X155461Y124000D01*
X155649Y123054D01*
X156596Y124000D01*
X155649Y124946D01*
D02*
G37*
G36*
X58789Y130086D02*
X57732Y129947D01*
X56747Y129539D01*
X55900Y128889D01*
X55251Y128043D01*
X54843Y127058D01*
X54703Y126000D01*
X54843Y124942D01*
X55251Y123957D01*
X55900Y123111D01*
X56747Y122461D01*
X57732Y122053D01*
X58789Y121914D01*
X59847Y122053D01*
X60833Y122461D01*
X61679Y123111D01*
X62328Y123957D01*
X62736Y124942D01*
X62876Y126000D01*
X62736Y127058D01*
X62328Y128043D01*
X61679Y128889D01*
X60833Y129539D01*
X59847Y129947D01*
X58789Y130086D01*
D02*
G37*
G36*
X21230D02*
X20173Y129947D01*
X19187Y129539D01*
X18341Y128889D01*
X17692Y128043D01*
X17284Y127058D01*
X17144Y126000D01*
X17284Y124942D01*
X17692Y123957D01*
X18341Y123111D01*
X19187Y122461D01*
X20173Y122053D01*
X21230Y121914D01*
X22288Y122053D01*
X23273Y122461D01*
X24120Y123111D01*
X24769Y123957D01*
X25177Y124942D01*
X25317Y126000D01*
X25177Y127058D01*
X24769Y128043D01*
X24120Y128889D01*
X23273Y129539D01*
X22288Y129947D01*
X21230Y130086D01*
D02*
G37*
G36*
X147708Y118830D02*
X146733Y118636D01*
X145906Y118084D01*
X145353Y117257D01*
X145159Y116281D01*
X145353Y115306D01*
X145906Y114479D01*
X146733Y113926D01*
X147708Y113732D01*
X148684Y113926D01*
X149511Y114479D01*
X150063Y115306D01*
X150257Y116281D01*
X150063Y117257D01*
X149511Y118084D01*
X148684Y118636D01*
X147708Y118830D01*
D02*
G37*
G36*
X11510Y119925D02*
X10335Y119770D01*
X9241Y119317D01*
X8301Y118596D01*
X7579Y117656D01*
X7126Y116561D01*
X6971Y115386D01*
X7126Y114211D01*
X7579Y113117D01*
X8301Y112177D01*
X9241Y111455D01*
X10335Y111002D01*
X11510Y110847D01*
X12685Y111002D01*
X13779Y111455D01*
X14719Y112177D01*
X15441Y113117D01*
X15894Y114211D01*
X16049Y115386D01*
X15894Y116561D01*
X15441Y117656D01*
X14719Y118596D01*
X13779Y119317D01*
X12685Y119770D01*
X11510Y119925D01*
D02*
G37*
G36*
X189596Y107049D02*
X188649Y106861D01*
X189596Y105914D01*
X190542Y106861D01*
X189596Y107049D01*
D02*
G37*
G36*
X51510Y109683D02*
X50349Y109568D01*
X49233Y109230D01*
X48204Y108680D01*
X48079Y108577D01*
X51510Y105147D01*
X54940Y108577D01*
X54816Y108680D01*
X53787Y109230D01*
X52671Y109568D01*
X51510Y109683D01*
D02*
G37*
G36*
X191956Y105447D02*
X191010Y104500D01*
X191956Y103553D01*
X192145Y104500D01*
X191956Y105447D01*
D02*
G37*
G36*
X187235Y105447D02*
X187047Y104500D01*
X187235Y103553D01*
X188181Y104500D01*
X187235Y105447D01*
D02*
G37*
G36*
X189596Y103086D02*
X188649Y102139D01*
X189596Y101951D01*
X190542Y102139D01*
X189596Y103086D01*
D02*
G37*
G36*
X266463Y109601D02*
X258557D01*
Y107687D01*
X222658D01*
X221878Y107532D01*
X221216Y107090D01*
X221216Y107090D01*
X210592Y96466D01*
X210034Y96355D01*
X209208Y95802D01*
X208655Y94976D01*
X208461Y94000D01*
X208655Y93025D01*
X208979Y92539D01*
X208712Y92039D01*
X207958D01*
X207485Y92355D01*
X206510Y92549D01*
X205535Y92355D01*
X204708Y91802D01*
X204155Y90975D01*
X203961Y90000D01*
X204155Y89025D01*
X204708Y88198D01*
X205535Y87645D01*
X206510Y87451D01*
X207485Y87645D01*
X207958Y87961D01*
X250010D01*
X250790Y88116D01*
X251452Y88558D01*
X256503Y93609D01*
X259092D01*
X259691Y92829D01*
X260517Y92196D01*
X261478Y91797D01*
X262510Y91662D01*
X263542Y91797D01*
X264503Y92196D01*
X265329Y92829D01*
X265963Y93655D01*
X266361Y94617D01*
X266497Y95648D01*
X266361Y96680D01*
X265963Y97642D01*
X265329Y98467D01*
X264503Y99101D01*
X263542Y99499D01*
X262510Y99635D01*
X261478Y99499D01*
X260517Y99101D01*
X259691Y98467D01*
X259092Y97688D01*
X255658D01*
X254878Y97532D01*
X254216Y97090D01*
X249165Y92039D01*
X213308D01*
X213041Y92539D01*
X213365Y93025D01*
X213476Y93582D01*
X223503Y103609D01*
X258557D01*
Y101696D01*
X266463D01*
Y109601D01*
D02*
G37*
G36*
X46665Y107163D02*
X46563Y107038D01*
X46013Y106009D01*
X45674Y104893D01*
X45560Y103733D01*
X45674Y102572D01*
X46013Y101456D01*
X46563Y100427D01*
X46665Y100302D01*
X50096Y103733D01*
X46665Y107163D01*
D02*
G37*
G36*
X56355D02*
X52924Y103733D01*
X56355Y100302D01*
X56457Y100427D01*
X57007Y101456D01*
X57346Y102572D01*
X57460Y103733D01*
X57346Y104893D01*
X57007Y106009D01*
X56457Y107038D01*
X56355Y107163D01*
D02*
G37*
G36*
X206282Y100549D02*
X205335Y100361D01*
X206282Y99414D01*
X207228Y100361D01*
X206282Y100549D01*
D02*
G37*
G36*
X51510Y102318D02*
X48079Y98888D01*
X48204Y98785D01*
X49233Y98236D01*
X50349Y97897D01*
X51510Y97783D01*
X52671Y97897D01*
X53787Y98236D01*
X54816Y98785D01*
X54940Y98888D01*
X51510Y102318D01*
D02*
G37*
G36*
X208642Y98946D02*
X207696Y98000D01*
X208642Y97053D01*
X208830Y98000D01*
X208642Y98946D01*
D02*
G37*
G36*
X203921Y98946D02*
X203733Y98000D01*
X203921Y97053D01*
X204867Y98000D01*
X203921Y98946D01*
D02*
G37*
G36*
X109010Y98049D02*
X108063Y97861D01*
X109010Y96914D01*
X109957Y97861D01*
X109010Y98049D01*
D02*
G37*
G36*
X206282Y96586D02*
X205335Y95639D01*
X206282Y95451D01*
X207228Y95639D01*
X206282Y96586D01*
D02*
G37*
G36*
X111371Y96447D02*
X110424Y95500D01*
X111371Y94554D01*
X111559Y95500D01*
X111371Y96447D01*
D02*
G37*
G36*
X106649Y96447D02*
X106461Y95500D01*
X106649Y94554D01*
X107596Y95500D01*
X106649Y96447D01*
D02*
G37*
G36*
X109010Y94086D02*
X108063Y93139D01*
X109010Y92951D01*
X109957Y93139D01*
X109010Y94086D01*
D02*
G37*
G36*
X135010Y96928D02*
X133978Y96792D01*
X133017Y96394D01*
X132191Y95760D01*
X131557Y94934D01*
X131159Y93973D01*
X131023Y92941D01*
X131159Y91909D01*
X131557Y90948D01*
X132191Y90122D01*
X133017Y89488D01*
X133978Y89090D01*
X135010Y88954D01*
X136042Y89090D01*
X137003Y89488D01*
X137829Y90122D01*
X138463Y90948D01*
X138861Y91909D01*
X138997Y92941D01*
X138861Y93973D01*
X138463Y94934D01*
X137829Y95760D01*
X137003Y96394D01*
X136042Y96792D01*
X135010Y96928D01*
D02*
G37*
G36*
X155010Y85490D02*
X154063Y85302D01*
X155010Y84355D01*
X155956Y85302D01*
X155010Y85490D01*
D02*
G37*
G36*
X157371Y83887D02*
X156424Y82941D01*
X157371Y81994D01*
X157559Y82941D01*
X157371Y83887D01*
D02*
G37*
G36*
X152649Y83887D02*
X152461Y82941D01*
X152649Y81994D01*
X153596Y82941D01*
X152649Y83887D01*
D02*
G37*
G36*
X155010Y81527D02*
X154063Y80580D01*
X155010Y80392D01*
X155956Y80580D01*
X155010Y81527D01*
D02*
G37*
G36*
X138963Y86894D02*
X131057D01*
Y78988D01*
X138963D01*
Y86894D01*
D02*
G37*
G36*
X51510Y89762D02*
X50334Y89646D01*
X49203Y89303D01*
X48160Y88746D01*
X47247Y87996D01*
X46497Y87082D01*
X45940Y86040D01*
X45597Y84909D01*
X45481Y83733D01*
X45597Y82556D01*
X45940Y81425D01*
X46497Y80383D01*
X47247Y79469D01*
X48160Y78720D01*
X49203Y78162D01*
X50334Y77819D01*
X51510Y77704D01*
X52686Y77819D01*
X53817Y78162D01*
X54860Y78720D01*
X55773Y79469D01*
X56523Y80383D01*
X57080Y81425D01*
X57423Y82556D01*
X57539Y83733D01*
X57423Y84909D01*
X57080Y86040D01*
X56523Y87082D01*
X55773Y87996D01*
X54860Y88746D01*
X53817Y89303D01*
X52686Y89646D01*
X51510Y89762D01*
D02*
G37*
G36*
X11510Y76618D02*
X10335Y76463D01*
X9241Y76010D01*
X8301Y75288D01*
X7579Y74348D01*
X7126Y73254D01*
X6971Y72079D01*
X7126Y70904D01*
X7579Y69810D01*
X8301Y68870D01*
X9241Y68148D01*
X10335Y67695D01*
X11510Y67540D01*
X12685Y67695D01*
X13779Y68148D01*
X14719Y68870D01*
X15441Y69810D01*
X15894Y70904D01*
X16049Y72079D01*
X15894Y73254D01*
X15441Y74348D01*
X14719Y75288D01*
X13779Y76010D01*
X12685Y76463D01*
X11510Y76618D01*
D02*
G37*
G36*
X235510Y66049D02*
X234563Y65861D01*
X235510Y64914D01*
X236456Y65861D01*
X235510Y66049D01*
D02*
G37*
G36*
X237871Y64447D02*
X236924Y63500D01*
X237871Y62554D01*
X238059Y63500D01*
X237871Y64447D01*
D02*
G37*
G36*
X233149Y64447D02*
X232961Y63500D01*
X233149Y62554D01*
X234096Y63500D01*
X233149Y64447D01*
D02*
G37*
G36*
X235510Y62086D02*
X234563Y61139D01*
X235510Y60951D01*
X236456Y61139D01*
X235510Y62086D01*
D02*
G37*
G36*
X206904Y61049D02*
X205957Y60861D01*
X206904Y59914D01*
X207850Y60861D01*
X206904Y61049D01*
D02*
G37*
G36*
X209264Y59447D02*
X208318Y58500D01*
X209264Y57553D01*
X209453Y58500D01*
X209264Y59447D01*
D02*
G37*
G36*
X204543Y59447D02*
X204355Y58500D01*
X204543Y57553D01*
X205489Y58500D01*
X204543Y59447D01*
D02*
G37*
G36*
X206904Y57086D02*
X205957Y56139D01*
X206904Y55951D01*
X207850Y56139D01*
X206904Y57086D01*
D02*
G37*
G36*
X262510Y59635D02*
X261478Y59499D01*
X260517Y59101D01*
X259691Y58468D01*
X259057Y57642D01*
X258659Y56680D01*
X258523Y55648D01*
X258659Y54616D01*
X259057Y53655D01*
X259691Y52829D01*
X260517Y52196D01*
X261478Y51797D01*
X262510Y51661D01*
X263542Y51797D01*
X264503Y52196D01*
X265329Y52829D01*
X265963Y53655D01*
X266361Y54616D01*
X266497Y55648D01*
X266361Y56680D01*
X265963Y57642D01*
X265329Y58468D01*
X264503Y59101D01*
X263542Y59499D01*
X262510Y59635D01*
D02*
G37*
G36*
X170510Y49549D02*
X169563Y49361D01*
X170510Y48414D01*
X171457Y49361D01*
X170510Y49549D01*
D02*
G37*
G36*
X262510Y49635D02*
X261478Y49499D01*
X260517Y49101D01*
X260491Y49082D01*
X262510Y47063D01*
X264529Y49082D01*
X264503Y49101D01*
X263542Y49499D01*
X262510Y49635D01*
D02*
G37*
G36*
X168149Y47947D02*
X167961Y47000D01*
X168149Y46053D01*
X169096Y47000D01*
X168149Y47947D01*
D02*
G37*
G36*
X191010Y46923D02*
X190064Y46734D01*
X191010Y45788D01*
X191956Y46734D01*
X191010Y46923D01*
D02*
G37*
G36*
X265943Y47667D02*
X263924Y45648D01*
X265943Y43629D01*
X265963Y43655D01*
X266361Y44616D01*
X266497Y45648D01*
X266361Y46680D01*
X265963Y47642D01*
X265943Y47667D01*
D02*
G37*
G36*
X259077Y47667D02*
X259057Y47642D01*
X258659Y46680D01*
X258523Y45648D01*
X258659Y44616D01*
X259057Y43655D01*
X259077Y43629D01*
X261096Y45648D01*
X259077Y47667D01*
D02*
G37*
G36*
X193371Y45320D02*
X192424Y44374D01*
X193371Y43427D01*
X193559Y44374D01*
X193371Y45320D01*
D02*
G37*
G36*
X188649Y45320D02*
X188461Y44374D01*
X188649Y43427D01*
X189596Y44374D01*
X188649Y45320D01*
D02*
G37*
G36*
X191010Y42959D02*
X190064Y42013D01*
X191010Y41825D01*
X191956Y42013D01*
X191010Y42959D01*
D02*
G37*
G36*
X262510Y44234D02*
X260491Y42215D01*
X260517Y42196D01*
X261478Y41797D01*
X262510Y41662D01*
X263542Y41797D01*
X264503Y42196D01*
X264529Y42215D01*
X262510Y44234D01*
D02*
G37*
G36*
X54010Y53029D02*
X52834Y52913D01*
X51703Y52570D01*
X50660Y52013D01*
X49747Y51263D01*
X48997Y50350D01*
X48440Y49307D01*
X48097Y48176D01*
X47981Y47000D01*
X48097Y45824D01*
X48440Y44693D01*
X48997Y43650D01*
X49747Y42737D01*
X50660Y41987D01*
X51703Y41430D01*
X52834Y41087D01*
X54010Y40971D01*
X55186Y41087D01*
X56317Y41430D01*
X57359Y41987D01*
X58273Y42737D01*
X59023Y43650D01*
X59580Y44693D01*
X59923Y45824D01*
X60039Y47000D01*
X59923Y48176D01*
X59580Y49307D01*
X59023Y50350D01*
X58273Y51263D01*
X57359Y52013D01*
X56317Y52570D01*
X55186Y52913D01*
X54010Y53029D01*
D02*
G37*
G36*
X40510D02*
X39334Y52913D01*
X38203Y52570D01*
X37160Y52013D01*
X36247Y51263D01*
X35497Y50350D01*
X34940Y49307D01*
X34597Y48176D01*
X34481Y47000D01*
X34597Y45824D01*
X34940Y44693D01*
X35497Y43650D01*
X36247Y42737D01*
X37160Y41987D01*
X38203Y41430D01*
X39334Y41087D01*
X40510Y40971D01*
X41686Y41087D01*
X42817Y41430D01*
X43859Y41987D01*
X44773Y42737D01*
X45523Y43650D01*
X46080Y44693D01*
X46423Y45824D01*
X46539Y47000D01*
X46423Y48176D01*
X46080Y49307D01*
X45523Y50350D01*
X44773Y51263D01*
X43859Y52013D01*
X42817Y52570D01*
X41686Y52913D01*
X40510Y53029D01*
D02*
G37*
G36*
X27010D02*
X25834Y52913D01*
X24703Y52570D01*
X23660Y52013D01*
X22747Y51263D01*
X21997Y50350D01*
X21440Y49307D01*
X21097Y48176D01*
X20981Y47000D01*
X21097Y45824D01*
X21440Y44693D01*
X21997Y43650D01*
X22747Y42737D01*
X23660Y41987D01*
X24703Y41430D01*
X25834Y41087D01*
X27010Y40971D01*
X28186Y41087D01*
X29317Y41430D01*
X30360Y41987D01*
X31273Y42737D01*
X32023Y43650D01*
X32580Y44693D01*
X32923Y45824D01*
X33039Y47000D01*
X32923Y48176D01*
X32580Y49307D01*
X32023Y50350D01*
X31273Y51263D01*
X30360Y52013D01*
X29317Y52570D01*
X28186Y52913D01*
X27010Y53029D01*
D02*
G37*
G36*
X85010Y39549D02*
X84064Y39361D01*
X85010Y38414D01*
X85957Y39361D01*
X85010Y39549D01*
D02*
G37*
G36*
X132510D02*
X131563Y39361D01*
X132510Y38414D01*
X133457Y39361D01*
X132510Y39549D01*
D02*
G37*
G36*
X262510Y39635D02*
X261478Y39499D01*
X260517Y39101D01*
X260491Y39081D01*
X262510Y37063D01*
X264529Y39081D01*
X264503Y39101D01*
X263542Y39499D01*
X262510Y39635D01*
D02*
G37*
G36*
X87371Y37947D02*
X86424Y37000D01*
X87371Y36053D01*
X87559Y37000D01*
X87371Y37947D01*
D02*
G37*
G36*
X134871D02*
X133924Y37000D01*
X134871Y36053D01*
X135059Y37000D01*
X134871Y37947D01*
D02*
G37*
G36*
X130149Y37947D02*
X129961Y37000D01*
X130149Y36053D01*
X131096Y37000D01*
X130149Y37947D01*
D02*
G37*
G36*
X82649D02*
X82461Y37000D01*
X82649Y36053D01*
X83596Y37000D01*
X82649Y37947D01*
D02*
G37*
G36*
X71510Y59279D02*
X70334Y59163D01*
X69203Y58820D01*
X68160Y58263D01*
X67247Y57513D01*
X66497Y56600D01*
X65940Y55557D01*
X65597Y54426D01*
X65481Y53250D01*
X65597Y52074D01*
X65940Y50943D01*
X66497Y49900D01*
X67247Y48987D01*
X68160Y48237D01*
X69203Y47680D01*
X70334Y47337D01*
X71203Y47251D01*
Y46749D01*
X70334Y46663D01*
X69203Y46320D01*
X68160Y45763D01*
X67247Y45013D01*
X66497Y44100D01*
X65940Y43057D01*
X65597Y41926D01*
X65481Y40750D01*
X65597Y39574D01*
X65940Y38443D01*
X66497Y37400D01*
X67247Y36487D01*
X68160Y35737D01*
X69203Y35180D01*
X70334Y34837D01*
X71510Y34721D01*
X72686Y34837D01*
X73817Y35180D01*
X74859Y35737D01*
X75773Y36487D01*
X76523Y37400D01*
X77080Y38443D01*
X77423Y39574D01*
X77539Y40750D01*
X77423Y41926D01*
X77080Y43057D01*
X76523Y44100D01*
X75773Y45013D01*
X74859Y45763D01*
X73817Y46320D01*
X72686Y46663D01*
X71817Y46749D01*
Y47251D01*
X72686Y47337D01*
X73817Y47680D01*
X74859Y48237D01*
X75773Y48987D01*
X76523Y49900D01*
X77080Y50943D01*
X77423Y52074D01*
X77539Y53250D01*
X77423Y54426D01*
X77080Y55557D01*
X76523Y56600D01*
X75773Y57513D01*
X74859Y58263D01*
X73817Y58820D01*
X72686Y59163D01*
X71510Y59279D01*
D02*
G37*
G36*
X132510Y35586D02*
X131563Y34639D01*
X132510Y34451D01*
X133457Y34639D01*
X132510Y35586D01*
D02*
G37*
G36*
X85010D02*
X84064Y34639D01*
X85010Y34451D01*
X85957Y34639D01*
X85010Y35586D01*
D02*
G37*
G36*
X265943Y37667D02*
X263924Y35648D01*
X265943Y33629D01*
X265963Y33655D01*
X266361Y34617D01*
X266497Y35648D01*
X266361Y36680D01*
X265963Y37642D01*
X265943Y37667D01*
D02*
G37*
G36*
X259077Y37667D02*
X259057Y37642D01*
X258659Y36680D01*
X258523Y35648D01*
X258659Y34617D01*
X259057Y33655D01*
X259077Y33629D01*
X261096Y35648D01*
X259077Y37667D01*
D02*
G37*
G36*
X262510Y34234D02*
X260491Y32215D01*
X260517Y32196D01*
X261478Y31797D01*
X262510Y31661D01*
X263542Y31797D01*
X264503Y32196D01*
X264529Y32215D01*
X262510Y34234D01*
D02*
G37*
G36*
X152510Y29049D02*
X151564Y28861D01*
X152510Y27914D01*
X153456Y28861D01*
X152510Y29049D01*
D02*
G37*
G36*
X154871Y27446D02*
X153924Y26500D01*
X154871Y25554D01*
X155059Y26500D01*
X154871Y27446D01*
D02*
G37*
G36*
X150149Y27446D02*
X149961Y26500D01*
X150149Y25554D01*
X151096Y26500D01*
X150149Y27446D01*
D02*
G37*
G36*
X152510Y25086D02*
X151564Y24139D01*
X152510Y23951D01*
X153456Y24139D01*
X152510Y25086D01*
D02*
G37*
G36*
X179510Y30707D02*
X178478Y30571D01*
X177517Y30173D01*
X176691Y29540D01*
X176057Y28714D01*
X175659Y27752D01*
X175523Y26720D01*
X175659Y25689D01*
X176057Y24727D01*
X176691Y23901D01*
X177517Y23268D01*
X178478Y22870D01*
X179510Y22734D01*
X180542Y22870D01*
X181503Y23268D01*
X182329Y23901D01*
X182963Y24727D01*
X183361Y25689D01*
X183497Y26720D01*
X183361Y27752D01*
X182963Y28714D01*
X182329Y29540D01*
X181503Y30173D01*
X180542Y30571D01*
X179510Y30707D01*
D02*
G37*
G36*
X132510Y21549D02*
X131563Y21361D01*
X132510Y20414D01*
X133457Y21361D01*
X132510Y21549D01*
D02*
G37*
G36*
X85010D02*
X84064Y21361D01*
X85010Y20414D01*
X85957Y21361D01*
X85010Y21549D01*
D02*
G37*
G36*
X200010Y20490D02*
X199064Y20302D01*
X200010Y19355D01*
X200957Y20302D01*
X200010Y20490D01*
D02*
G37*
G36*
X134871Y19947D02*
X133924Y19000D01*
X134871Y18054D01*
X135059Y19000D01*
X134871Y19947D01*
D02*
G37*
G36*
X87371D02*
X86424Y19000D01*
X87371Y18054D01*
X87559Y19000D01*
X87371Y19947D01*
D02*
G37*
G36*
X130149Y19947D02*
X129961Y19000D01*
X130149Y18054D01*
X131096Y19000D01*
X130149Y19947D01*
D02*
G37*
G36*
X82649D02*
X82461Y19000D01*
X82649Y18054D01*
X83596Y19000D01*
X82649Y19947D01*
D02*
G37*
G36*
X202371Y18887D02*
X201424Y17941D01*
X202371Y16995D01*
X202559Y17941D01*
X202371Y18887D01*
D02*
G37*
G36*
X197649Y18888D02*
X197461Y17941D01*
X197649Y16995D01*
X198596Y17941D01*
X197649Y18888D01*
D02*
G37*
G36*
X132510Y17586D02*
X131563Y16639D01*
X132510Y16451D01*
X133457Y16639D01*
X132510Y17586D01*
D02*
G37*
G36*
X114660Y39549D02*
X113684Y39355D01*
X112858Y38802D01*
X112305Y37975D01*
X112111Y37000D01*
X112305Y36025D01*
X112471Y35776D01*
Y20448D01*
X112155Y19975D01*
X111961Y19000D01*
X112155Y18025D01*
X112708Y17198D01*
X113534Y16645D01*
X114510Y16451D01*
X115485Y16645D01*
X116312Y17198D01*
X116865Y18025D01*
X117059Y19000D01*
X116865Y19975D01*
X116549Y20448D01*
Y35328D01*
X117015Y36025D01*
X117209Y37000D01*
X117015Y37975D01*
X116462Y38802D01*
X115635Y39355D01*
X114660Y39549D01*
D02*
G37*
G36*
X103010D02*
X102034Y39355D01*
X101208Y38802D01*
X100655Y37975D01*
X100461Y37000D01*
X100655Y36025D01*
X100971Y35552D01*
Y20448D01*
X100655Y19975D01*
X100461Y19000D01*
X100655Y18025D01*
X101208Y17198D01*
X102034Y16645D01*
X103010Y16451D01*
X103985Y16645D01*
X104812Y17198D01*
X105365Y18025D01*
X105559Y19000D01*
X105365Y19975D01*
X105049Y20448D01*
Y35552D01*
X105365Y36025D01*
X105559Y37000D01*
X105365Y37975D01*
X104812Y38802D01*
X103985Y39355D01*
X103010Y39549D01*
D02*
G37*
G36*
X85010Y17586D02*
X84064Y16639D01*
X85010Y16451D01*
X85957Y16639D01*
X85010Y17586D01*
D02*
G37*
G36*
X200010Y16527D02*
X199064Y15580D01*
X200010Y15392D01*
X200957Y15580D01*
X200010Y16527D01*
D02*
G37*
G36*
X183463Y20673D02*
X175557D01*
Y12768D01*
X183463D01*
Y20673D01*
D02*
G37*
%LPD*%
D88*
X215010Y144000D02*
X222010Y151000D01*
X198010Y144000D02*
X215010D01*
X222010Y151000D02*
X228642D01*
X250510Y75000D02*
X259114Y66396D01*
X261763D01*
X262510Y65648D01*
X199010Y75000D02*
X250510D01*
Y79500D02*
X254362Y75648D01*
X262510D01*
X202010Y79500D02*
X250510D01*
X250010Y84000D02*
X251658Y85648D01*
X262510D01*
X205510Y84000D02*
X250010D01*
Y90000D02*
X255658Y95648D01*
X262510D01*
X206510Y90000D02*
X250010D01*
X222658Y105648D02*
X262510D01*
X211010Y94000D02*
X222658Y105648D01*
X103010Y19000D02*
Y37000D01*
X114510Y36850D02*
X114660Y37000D01*
X114510Y19000D02*
Y36850D01*
X171510Y115386D02*
X191010Y95886D01*
Y77500D02*
Y95886D01*
X171510Y115386D02*
Y159500D01*
X179010Y50000D02*
Y94500D01*
X167510Y38500D02*
X179010Y50000D01*
X195010Y56500D02*
Y109000D01*
X172510Y34000D02*
X195010Y56500D01*
X169510Y161500D02*
X171510Y159500D01*
X165219Y161500D02*
X169510D01*
X162510Y164209D02*
X165219Y161500D01*
X167510Y113092D02*
X183501Y97101D01*
X167510Y113092D02*
Y157500D01*
X172510Y21500D02*
Y34000D01*
X167510Y16500D02*
X172510Y21500D01*
X162510Y65500D02*
X164510Y63500D01*
X171010D01*
X162510Y65500D02*
Y153500D01*
D92*
X40510Y47000D02*
D03*
X27010D02*
D03*
X54010D02*
D03*
X9510Y40750D02*
D03*
Y53250D02*
D03*
X71510Y40750D02*
D03*
Y53250D02*
D03*
X51510Y83733D02*
D03*
D93*
Y103733D02*
D03*
D94*
X11510Y72079D02*
D03*
Y115386D02*
D03*
D95*
X260943Y168236D02*
D03*
X12715D02*
D03*
Y12724D02*
D03*
X260746D02*
D03*
D96*
X127510Y151500D02*
D03*
X179510Y16721D02*
D03*
Y154000D02*
D03*
X135010Y82941D02*
D03*
X262510Y105648D02*
D03*
D97*
X127510Y161500D02*
D03*
X179510Y26720D02*
D03*
Y164000D02*
D03*
X228642Y159303D02*
D03*
X218642Y169303D02*
D03*
Y159303D02*
D03*
X208642Y169303D02*
D03*
Y159303D02*
D03*
X135010Y92941D02*
D03*
X262510Y95648D02*
D03*
Y85648D02*
D03*
Y75648D02*
D03*
Y65648D02*
D03*
Y55648D02*
D03*
Y45648D02*
D03*
Y35648D02*
D03*
D98*
X21230Y126000D02*
D03*
X58789D02*
D03*
D99*
X228642Y169303D02*
D03*
D100*
X247010Y146500D02*
D03*
X228642Y151000D02*
D03*
X109010Y95500D02*
D03*
X147708Y116281D02*
D03*
X206282Y98000D02*
D03*
X206904Y58500D02*
D03*
X235510Y63500D02*
D03*
X189596Y104500D02*
D03*
X199010Y75000D02*
D03*
X113010Y133500D02*
D03*
X43010Y164500D02*
D03*
X205510Y84000D02*
D03*
X206510Y90000D02*
D03*
X211010Y94000D02*
D03*
X132510Y19000D02*
D03*
Y37000D02*
D03*
X85010D02*
D03*
Y19000D02*
D03*
X103010Y37000D02*
D03*
Y19000D02*
D03*
X114660Y37000D02*
D03*
X114510Y19000D02*
D03*
X158010Y124000D02*
D03*
X175510D02*
D03*
X170510Y47000D02*
D03*
X191010Y44374D02*
D03*
X198010Y144000D02*
D03*
X208642Y151000D02*
D03*
X202010Y79500D02*
D03*
X179010Y94500D02*
D03*
X191010Y77500D02*
D03*
X162510Y164209D02*
D03*
X183501Y97101D02*
D03*
X167510Y157500D02*
D03*
X195010Y109000D02*
D03*
X167510Y16500D02*
D03*
Y38500D02*
D03*
X171010Y63500D02*
D03*
X162510Y153500D02*
D03*
X152510Y164000D02*
D03*
X155010Y82941D02*
D03*
X200010Y17941D02*
D03*
X152510Y26500D02*
D03*
M02*
