G04*
G04 #@! TF.GenerationSoftware,Altium Limited,Altium Designer,19.0.12 (326)*
G04*
G04 Layer_Color=16711935*
%FSLAX25Y25*%
%MOIN*%
G70*
G01*
G75*
%ADD14C,0.01000*%
%ADD101C,0.00591*%
D14*
X510Y13000D02*
X549Y12020D01*
X664Y11045D01*
X855Y10083D01*
X1122Y9138D01*
X1462Y8218D01*
X1873Y7327D01*
X2352Y6471D01*
X2898Y5655D01*
X3505Y4885D01*
X4172Y4165D01*
X4893Y3499D01*
X5663Y2892D01*
X6480Y2347D01*
X7336Y1868D01*
X8227Y1458D01*
X9148Y1119D01*
X10092Y853D01*
X11055Y662D01*
X12030Y548D01*
X13010Y510D01*
X13000Y180500D02*
X12019Y180461D01*
X11045Y180346D01*
X10082Y180154D01*
X9137Y179888D01*
X8216Y179548D01*
X7325Y179137D01*
X6469Y178658D01*
X5653Y178112D01*
X4882Y177505D01*
X4161Y176838D01*
X3495Y176118D01*
X2887Y175347D01*
X2342Y174531D01*
X1862Y173674D01*
X1452Y172783D01*
X1112Y171862D01*
X845Y170918D01*
X654Y169955D01*
X538Y168980D01*
X500Y168000D01*
X260510Y500D02*
X261491Y538D01*
X262465Y654D01*
X263428Y845D01*
X264373Y1112D01*
X265294Y1452D01*
X266185Y1862D01*
X267041Y2342D01*
X267857Y2887D01*
X268628Y3495D01*
X269349Y4161D01*
X270015Y4882D01*
X270623Y5653D01*
X271168Y6469D01*
X271648Y7325D01*
X272059Y8217D01*
X272398Y9137D01*
X272665Y10082D01*
X272856Y11045D01*
X272972Y12019D01*
X273010Y13000D01*
X273020Y168000D02*
X272981Y168982D01*
X272866Y169957D01*
X272674Y170920D01*
X272408Y171866D01*
X272068Y172787D01*
X271656Y173679D01*
X271177Y174537D01*
X270631Y175353D01*
X270023Y176125D01*
X269356Y176846D01*
X268635Y177513D01*
X267863Y178121D01*
X267046Y178666D01*
X266189Y179147D01*
X265297Y179558D01*
X264376Y179898D01*
X263430Y180164D01*
X262467Y180356D01*
X261491Y180472D01*
X260510Y180510D01*
X510Y168000D02*
X510Y13000D01*
X13010Y500D02*
X260510D01*
X13000Y180500D02*
X260520Y180500D01*
X273010Y13000D02*
Y168010D01*
D101*
X51510Y157223D02*
Y153287D01*
X52297Y152500D01*
X53871D01*
X54659Y153287D01*
Y157223D01*
X59382Y152500D02*
X56233D01*
X59382Y155649D01*
Y156436D01*
X58594Y157223D01*
X57020D01*
X56233Y156436D01*
M02*
