G04*
G04 #@! TF.GenerationSoftware,Altium Limited,Altium Designer,19.0.12 (326)*
G04*
G04 Layer_Color=32896*
%FSLAX25Y25*%
%MOIN*%
G70*
G01*
G75*
%ADD14C,0.01000*%
D14*
X219135Y149500D02*
X221510D01*
X216010D02*
X218385D01*
X221510D02*
Y153000D01*
X216010Y149500D02*
Y153000D01*
X218385Y149500D02*
X219135D01*
X23010Y178000D02*
X250510D01*
X25510Y25500D02*
X78010D01*
X25510Y3000D02*
X250510D01*
X116511Y152998D02*
X117511Y153998D01*
X119510D01*
X120510Y152998D01*
Y149000D01*
X119510Y148000D01*
X117511D01*
X116511Y149000D01*
Y150999D01*
X118511D01*
X114512Y148000D02*
Y153998D01*
X110513Y148000D01*
Y153998D01*
X108514D02*
Y148000D01*
X105515D01*
X104515Y149000D01*
Y152998D01*
X105515Y153998D01*
X108514D01*
X120510Y160999D02*
X116511D01*
X118511Y162998D02*
Y159000D01*
X110513Y163998D02*
X114512D01*
Y160999D01*
X112513Y161999D01*
X111513D01*
X110513Y160999D01*
Y159000D01*
X111513Y158000D01*
X113512D01*
X114512Y159000D01*
X108514Y163998D02*
Y159999D01*
X106515Y158000D01*
X104515Y159999D01*
Y163998D01*
X126511Y173998D02*
X130510D01*
Y168000D01*
X126511D01*
X130510Y170999D02*
X128511D01*
X124512Y173998D02*
X120513Y168000D01*
Y173998D02*
X124512Y168000D01*
X118514Y173998D02*
X114515D01*
X116515D01*
Y168000D01*
X106518D02*
Y173998D01*
X103519D01*
X102519Y172998D01*
Y170999D01*
X103519Y169999D01*
X106518D01*
X100520Y173998D02*
Y168000D01*
X98520Y169999D01*
X96521Y168000D01*
Y173998D01*
X94522Y168000D02*
Y173998D01*
X91523D01*
X90523Y172998D01*
Y170999D01*
X91523Y169999D01*
X94522D01*
X92522D02*
X90523Y168000D01*
X69011Y11998D02*
X73010D01*
Y6000D01*
X69011D01*
X73010Y8999D02*
X71011D01*
X63013Y10998D02*
X64013Y11998D01*
X66012D01*
X67012Y10998D01*
Y7000D01*
X66012Y6000D01*
X64013D01*
X63013Y7000D01*
Y8999D01*
X65013D01*
X61014Y11998D02*
Y6000D01*
X58015D01*
X57015Y7000D01*
Y7999D01*
X58015Y8999D01*
X61014D01*
X58015D01*
X57015Y9999D01*
Y10998D01*
X58015Y11998D01*
X61014D01*
X51017Y6000D02*
X55016D01*
X51017Y9999D01*
Y10998D01*
X52017Y11998D01*
X54016D01*
X55016Y10998D01*
X45019Y6000D02*
X49018D01*
X45019Y9999D01*
Y10998D01*
X46019Y11998D01*
X48018D01*
X49018Y10998D01*
X43020D02*
X42020Y11998D01*
X40021D01*
X39021Y10998D01*
Y7000D01*
X40021Y6000D01*
X42020D01*
X43020Y7000D01*
Y10998D01*
X69011Y21498D02*
X70011Y22498D01*
X72010D01*
X73010Y21498D01*
Y17500D01*
X72010Y16500D01*
X70011D01*
X69011Y17500D01*
Y19499D01*
X71011D01*
X67012Y20499D02*
Y16500D01*
Y18499D01*
X66012Y19499D01*
X65013Y20499D01*
X64013D01*
X60014Y16500D02*
X58015D01*
X57015Y17500D01*
Y19499D01*
X58015Y20499D01*
X60014D01*
X61014Y19499D01*
Y17500D01*
X60014Y16500D01*
X55016Y20499D02*
Y17500D01*
X54016Y16500D01*
X51017D01*
Y20499D01*
X49018Y14501D02*
Y20499D01*
X46019D01*
X45019Y19499D01*
Y17500D01*
X46019Y16500D01*
X49018D01*
X37022Y22498D02*
Y16500D01*
X34023D01*
X33023Y17500D01*
Y18499D01*
X34023Y19499D01*
X37022D01*
X34023D01*
X33023Y20499D01*
Y21498D01*
X34023Y22498D01*
X37022D01*
X28025Y16500D02*
Y22498D01*
X31024Y19499D01*
X27025D01*
X226010Y146498D02*
X224011D01*
X225010D01*
Y140500D01*
X226010D01*
X224011D01*
X217013Y145498D02*
X218013Y146498D01*
X220012D01*
X221012Y145498D01*
Y144499D01*
X220012Y143499D01*
X218013D01*
X217013Y142499D01*
Y141500D01*
X218013Y140500D01*
X220012D01*
X221012Y141500D01*
X215014Y140500D02*
Y146498D01*
X212015D01*
X211015Y145498D01*
Y143499D01*
X212015Y142499D01*
X215014D01*
X138010Y106498D02*
Y101500D01*
X137010Y100500D01*
X135011D01*
X134011Y101500D01*
Y106498D01*
X132012Y100500D02*
Y104499D01*
X130013Y106498D01*
X128013Y104499D01*
Y100500D01*
Y103499D01*
X132012D01*
X126014Y100500D02*
Y106498D01*
X123015D01*
X122015Y105498D01*
Y103499D01*
X123015Y102499D01*
X126014D01*
X124014D02*
X122015Y100500D01*
X120016Y106498D02*
X116017D01*
X118017D01*
Y100500D01*
X128010Y90500D02*
Y96498D01*
X125011D01*
X124011Y95498D01*
Y93499D01*
X125011Y92499D01*
X128010D01*
X126011D02*
X124011Y90500D01*
X122012Y96498D02*
X118013Y90500D01*
Y96498D02*
X122012Y90500D01*
X128010Y86498D02*
X124011D01*
X126011D01*
Y80500D01*
X122012Y86498D02*
X118013Y80500D01*
Y86498D02*
X122012Y80500D01*
X170011Y18998D02*
X172010D01*
X173010Y17998D01*
Y14000D01*
X172010Y13000D01*
X170011D01*
X169011Y14000D01*
Y17998D01*
X170011Y18998D01*
X167012D02*
Y14000D01*
X166012Y13000D01*
X164013D01*
X163013Y14000D01*
Y18998D01*
X161014D02*
X157015D01*
X159014D01*
Y13000D01*
X149018Y18998D02*
Y13000D01*
X146019D01*
X145019Y14000D01*
Y14999D01*
X146019Y15999D01*
X149018D01*
X146019D01*
X145019Y16999D01*
Y17998D01*
X146019Y18998D01*
X149018D01*
X170011Y28998D02*
X172010D01*
X173010Y27998D01*
Y24000D01*
X172010Y23000D01*
X170011D01*
X169011Y24000D01*
Y27998D01*
X170011Y28998D01*
X167012D02*
Y24000D01*
X166012Y23000D01*
X164013D01*
X163013Y24000D01*
Y28998D01*
X161014D02*
X157015D01*
X159014D01*
Y23000D01*
X149018D02*
Y26999D01*
X147018Y28998D01*
X145019Y26999D01*
Y23000D01*
Y25999D01*
X149018D01*
X183010Y33000D02*
Y38998D01*
X181011Y36999D01*
X179011Y38998D01*
Y33000D01*
X176012D02*
X174013D01*
X173013Y34000D01*
Y35999D01*
X174013Y36999D01*
X176012D01*
X177012Y35999D01*
Y34000D01*
X176012Y33000D01*
X170014Y37998D02*
Y36999D01*
X171014D01*
X169015D01*
X170014D01*
Y34000D01*
X169015Y33000D01*
X165016D02*
X163016D01*
X162017Y34000D01*
Y35999D01*
X163016Y36999D01*
X165016D01*
X166016Y35999D01*
Y34000D01*
X165016Y33000D01*
X160017Y36999D02*
Y33000D01*
Y34999D01*
X159018Y35999D01*
X158018Y36999D01*
X157018D01*
X148021Y38998D02*
Y33000D01*
X145022D01*
X144023Y34000D01*
Y34999D01*
X145022Y35999D01*
X148021D01*
X145022D01*
X144023Y36999D01*
Y37998D01*
X145022Y38998D01*
X148021D01*
X170011Y156498D02*
X172010D01*
X173010Y155498D01*
Y151500D01*
X172010Y150500D01*
X170011D01*
X169011Y151500D01*
Y155498D01*
X170011Y156498D01*
X167012D02*
Y151500D01*
X166012Y150500D01*
X164013D01*
X163013Y151500D01*
Y156498D01*
X161014D02*
X157015D01*
X159014D01*
Y150500D01*
X149018Y156498D02*
Y150500D01*
X146019D01*
X145019Y151500D01*
Y152499D01*
X146019Y153499D01*
X149018D01*
X146019D01*
X145019Y154499D01*
Y155498D01*
X146019Y156498D01*
X149018D01*
X170011Y166498D02*
X172010D01*
X173010Y165498D01*
Y161500D01*
X172010Y160500D01*
X170011D01*
X169011Y161500D01*
Y165498D01*
X170011Y166498D01*
X167012D02*
Y161500D01*
X166012Y160500D01*
X164013D01*
X163013Y161500D01*
Y166498D01*
X161014D02*
X157015D01*
X159014D01*
Y160500D01*
X149018D02*
Y164499D01*
X147018Y166498D01*
X145019Y164499D01*
Y160500D01*
Y163499D01*
X149018D01*
X183010Y169500D02*
Y175498D01*
X181011Y173499D01*
X179011Y175498D01*
Y169500D01*
X176012D02*
X174013D01*
X173013Y170500D01*
Y172499D01*
X174013Y173499D01*
X176012D01*
X177012Y172499D01*
Y170500D01*
X176012Y169500D01*
X170014Y174498D02*
Y173499D01*
X171014D01*
X169015D01*
X170014D01*
Y170500D01*
X169015Y169500D01*
X165016D02*
X163016D01*
X162017Y170500D01*
Y172499D01*
X163016Y173499D01*
X165016D01*
X166016Y172499D01*
Y170500D01*
X165016Y169500D01*
X160017Y173499D02*
Y169500D01*
Y171499D01*
X159018Y172499D01*
X158018Y173499D01*
X157018D01*
X148021Y169500D02*
Y173499D01*
X146022Y175498D01*
X144023Y173499D01*
Y169500D01*
Y172499D01*
X148021D01*
X249011Y37998D02*
X250011Y38998D01*
X252010D01*
X253010Y37998D01*
Y34000D01*
X252010Y33000D01*
X250011D01*
X249011Y34000D01*
Y35999D01*
X251011D01*
X247012Y33000D02*
Y38998D01*
X243013Y33000D01*
Y38998D01*
X241014D02*
Y33000D01*
X238015D01*
X237015Y34000D01*
Y37998D01*
X238015Y38998D01*
X241014D01*
X249011Y47998D02*
X250011Y48998D01*
X252010D01*
X253010Y47998D01*
Y44000D01*
X252010Y43000D01*
X250011D01*
X249011Y44000D01*
Y45999D01*
X251011D01*
X247012Y43000D02*
Y48998D01*
X243013Y43000D01*
Y48998D01*
X241014D02*
Y43000D01*
X238015D01*
X237015Y44000D01*
Y47998D01*
X238015Y48998D01*
X241014D01*
X253010Y55999D02*
X249011D01*
X251011Y57998D02*
Y54000D01*
X243013Y58998D02*
X247012D01*
Y55999D01*
X245013Y56999D01*
X244013D01*
X243013Y55999D01*
Y54000D01*
X244013Y53000D01*
X246012D01*
X247012Y54000D01*
X241014Y58998D02*
Y54999D01*
X239015Y53000D01*
X237015Y54999D01*
Y58998D01*
X253010Y63000D02*
Y68998D01*
X251011Y66999D01*
X249011Y68998D01*
Y63000D01*
X247012Y68998D02*
Y64000D01*
X246012Y63000D01*
X244013D01*
X243013Y64000D01*
Y68998D01*
X241014D02*
X237015Y63000D01*
Y68998D02*
X241014Y63000D01*
X235016Y62000D02*
X231017D01*
X229018Y68998D02*
Y63000D01*
X226019D01*
X225019Y64000D01*
Y67998D01*
X226019Y68998D01*
X229018D01*
X253010Y73000D02*
Y78998D01*
X251011Y76999D01*
X249011Y78998D01*
Y73000D01*
X247012Y78998D02*
Y74000D01*
X246012Y73000D01*
X244013D01*
X243013Y74000D01*
Y78998D01*
X241014D02*
X237015Y73000D01*
Y78998D02*
X241014Y73000D01*
X235016Y72000D02*
X231017D01*
X225019Y77998D02*
X226019Y78998D01*
X228018D01*
X229018Y77998D01*
Y74000D01*
X228018Y73000D01*
X226019D01*
X225019Y74000D01*
X253010Y83000D02*
Y88998D01*
X251011Y86999D01*
X249011Y88998D01*
Y83000D01*
X247012Y88998D02*
Y84000D01*
X246012Y83000D01*
X244013D01*
X243013Y84000D01*
Y88998D01*
X241014D02*
X237015Y83000D01*
Y88998D02*
X241014Y83000D01*
X235016Y82000D02*
X231017D01*
X229018Y88998D02*
Y83000D01*
X226019D01*
X225019Y84000D01*
Y84999D01*
X226019Y85999D01*
X229018D01*
X226019D01*
X225019Y86999D01*
Y87998D01*
X226019Y88998D01*
X229018D01*
X253010Y93000D02*
Y98998D01*
X251011Y96999D01*
X249011Y98998D01*
Y93000D01*
X247012Y98998D02*
Y94000D01*
X246012Y93000D01*
X244013D01*
X243013Y94000D01*
Y98998D01*
X241014D02*
X237015Y93000D01*
Y98998D02*
X241014Y93000D01*
X235016Y92000D02*
X231017D01*
X229018Y93000D02*
Y96999D01*
X227018Y98998D01*
X225019Y96999D01*
Y93000D01*
Y95999D01*
X229018D01*
X253010Y103000D02*
Y106999D01*
X251011Y108998D01*
X249011Y106999D01*
Y103000D01*
Y105999D01*
X253010D01*
X247012Y108998D02*
Y103000D01*
X244013D01*
X243013Y104000D01*
Y107998D01*
X244013Y108998D01*
X247012D01*
X237015Y107998D02*
X238015Y108998D01*
X240014D01*
X241014Y107998D01*
Y104000D01*
X240014Y103000D01*
X238015D01*
X237015Y104000D01*
X229018Y108998D02*
X227018D01*
X228018D01*
Y103000D01*
X229018D01*
X227018D01*
X224019D02*
Y108998D01*
X220021Y103000D01*
Y108998D01*
M02*
