M48
;Layer_Color=9474304
;FILE_FORMAT=2:5
INCH,LZ
;TYPE=PLATED
T1F00S00C0.02000
T2F00S00C0.03543
T3F00S00C0.04000
T4F00S00C0.04134
T5F00S00C0.07000
T6F00S00C0.07300
;TYPE=NON_PLATED
T7F00S00C0.11811
T8F00S00C0.12598
%
T01
X008501Y0019
Y0037
X010301
X011466
X013251
Y0019
X011451
X010301
X015251Y00265
X015501Y0082941
X0147708Y0116281
X011301Y01335
X010901Y00955
X017901Y00945
X0183501Y0097101
X0189596Y01045
X019501Y0109
X0206282Y0098
X020651Y009
X020551Y0084
X020201Y00795
X019901Y0075
X019101Y00775
Y0044374
X017051Y0047
X016751Y00385
Y00165
X020001Y0017941
X0206904Y00585
X023551Y00635
X021101Y0094
X0208642Y0151
X019801Y0144
X0228642Y0151
X024701Y01465
X016251Y01535
X015801Y0124
X017551
X017101Y00635
X016751Y01575
X016251Y0164209
X015251Y0164
X004301Y01645
T02
X013501Y0082941
Y0092941
X012751Y01515
X017951Y0154
Y002672
Y0016721
X026251Y0035648
Y0045648
Y0055648
Y0065648
Y0075648
Y0085648
Y0095648
Y0105648
X0228642Y0159303
Y0169303
X0218642
Y0159303
X0208642
Y0169303
X017951Y0164
X012751Y01615
T03
X001151Y0072079
Y0115386
T04
X002123Y0126
X0058789
T05
X005151Y0083733
Y0103733
T06
X000951Y004075
Y005325
X002701Y0047
X004051
X005401
X007151Y004075
Y005325
T07
X0260943Y0168236
T08
X0012715Y0012724
X0260746
X0012715Y0168236
M30
