G04*
G04 #@! TF.GenerationSoftware,Altium Limited,Altium Designer,19.0.12 (326)*
G04*
G04 Layer_Physical_Order=1*
G04 Layer_Color=255*
%FSLAX25Y25*%
%MOIN*%
G70*
G01*
G75*
%ADD45R,0.03937X0.03937*%
%ADD59R,0.08268X0.05512*%
%ADD60R,0.12598X0.05906*%
%ADD61R,0.05315X0.01575*%
%ADD62R,0.05512X0.06299*%
%ADD63R,0.05118X0.05709*%
%ADD64R,0.07480X0.07480*%
%ADD65R,0.06102X0.04921*%
%ADD66R,0.27165X0.41142*%
%ADD67R,0.10039X0.04134*%
%ADD68R,0.06299X0.10236*%
%ADD69R,0.02992X0.04331*%
%ADD70R,0.04331X0.04331*%
%ADD71R,0.03937X0.03543*%
G04:AMPARAMS|DCode=72|XSize=35.43mil|YSize=27.56mil|CornerRadius=0mil|HoleSize=0mil|Usage=FLASHONLY|Rotation=225.000|XOffset=0mil|YOffset=0mil|HoleType=Round|Shape=Rectangle|*
%AMROTATEDRECTD72*
4,1,4,0.00278,0.02227,0.02227,0.00278,-0.00278,-0.02227,-0.02227,-0.00278,0.00278,0.02227,0.0*
%
%ADD72ROTATEDRECTD72*%

G04:AMPARAMS|DCode=73|XSize=39.37mil|YSize=35.43mil|CornerRadius=0mil|HoleSize=0mil|Usage=FLASHONLY|Rotation=135.000|XOffset=0mil|YOffset=0mil|HoleType=Round|Shape=Rectangle|*
%AMROTATEDRECTD73*
4,1,4,0.02645,-0.00139,0.00139,-0.02645,-0.02645,0.00139,-0.00139,0.02645,0.02645,-0.00139,0.0*
%
%ADD73ROTATEDRECTD73*%

G04:AMPARAMS|DCode=74|XSize=35.43mil|YSize=31.5mil|CornerRadius=0mil|HoleSize=0mil|Usage=FLASHONLY|Rotation=315.000|XOffset=0mil|YOffset=0mil|HoleType=Round|Shape=Rectangle|*
%AMROTATEDRECTD74*
4,1,4,-0.02366,0.00139,-0.00139,0.02366,0.02366,-0.00139,0.00139,-0.02366,-0.02366,0.00139,0.0*
%
%ADD74ROTATEDRECTD74*%

%ADD75P,0.06125X4X180.0*%
%ADD76P,0.06125X4X90.0*%
G04:AMPARAMS|DCode=77|XSize=35.43mil|YSize=31.5mil|CornerRadius=0mil|HoleSize=0mil|Usage=FLASHONLY|Rotation=225.000|XOffset=0mil|YOffset=0mil|HoleType=Round|Shape=Rectangle|*
%AMROTATEDRECTD77*
4,1,4,0.00139,0.02366,0.02366,0.00139,-0.00139,-0.02366,-0.02366,-0.00139,0.00139,0.02366,0.0*
%
%ADD77ROTATEDRECTD77*%

%ADD78R,0.03543X0.03937*%
%ADD79R,0.02756X0.03543*%
%ADD80R,0.03150X0.03150*%
%ADD81R,0.03150X0.03150*%
%ADD82R,0.05500X0.08300*%
%ADD83R,0.03543X0.02756*%
%ADD84R,0.05906X0.21654*%
%ADD85R,0.09055X0.05906*%
G04:AMPARAMS|DCode=86|XSize=23.62mil|YSize=80.71mil|CornerRadius=0mil|HoleSize=0mil|Usage=FLASHONLY|Rotation=225.000|XOffset=0mil|YOffset=0mil|HoleType=Round|Shape=Round|*
%AMOVALD86*
21,1,0.05709,0.02362,0.00000,0.00000,315.0*
1,1,0.02362,-0.02018,0.02018*
1,1,0.02362,0.02018,-0.02018*
%
%ADD86OVALD86*%

G04:AMPARAMS|DCode=87|XSize=23.62mil|YSize=80.71mil|CornerRadius=0mil|HoleSize=0mil|Usage=FLASHONLY|Rotation=315.000|XOffset=0mil|YOffset=0mil|HoleType=Round|Shape=Round|*
%AMOVALD87*
21,1,0.05709,0.02362,0.00000,0.00000,45.0*
1,1,0.02362,-0.02018,-0.02018*
1,1,0.02362,0.02018,0.02018*
%
%ADD87OVALD87*%

%ADD88C,0.02000*%
%ADD89C,0.01575*%
%ADD90C,0.04000*%
%ADD91C,0.01500*%
%ADD92C,0.10000*%
%ADD93C,0.09843*%
%ADD94C,0.07000*%
%ADD95C,0.19685*%
%ADD96R,0.05906X0.05906*%
%ADD97C,0.05906*%
%ADD98C,0.06102*%
%ADD99R,0.05906X0.05906*%
%ADD100C,0.03000*%
G36*
X252984Y175612D02*
X252144Y174629D01*
X251252Y173174D01*
X250599Y171597D01*
X250201Y169938D01*
X250067Y168236D01*
X250201Y166535D01*
X250599Y164875D01*
X251252Y163299D01*
X252144Y161844D01*
X253253Y160546D01*
X254550Y159437D01*
X256005Y158546D01*
X257582Y157893D01*
X259242Y157494D01*
X260943Y157360D01*
X262645Y157494D01*
X264304Y157893D01*
X265881Y158546D01*
X267336Y159437D01*
X268319Y160277D01*
X270510Y158086D01*
Y23000D01*
X268161Y20651D01*
X267139Y21523D01*
X265684Y22415D01*
X264107Y23068D01*
X262448Y23467D01*
X260746Y23600D01*
X259045Y23467D01*
X257385Y23068D01*
X255809Y22415D01*
X254353Y21523D01*
X253056Y20415D01*
X251947Y19117D01*
X251056Y17662D01*
X250402Y16085D01*
X250004Y14426D01*
X249870Y12724D01*
X250004Y11023D01*
X250402Y9364D01*
X251056Y7787D01*
X251947Y6332D01*
X252820Y5310D01*
X250510Y3000D01*
X80010D01*
Y54510D01*
X92510Y67010D01*
Y110000D01*
X80010Y122500D01*
Y132929D01*
X85947D01*
X86144Y132890D01*
X86341Y132929D01*
X86730D01*
X72854Y146805D01*
X74268Y148219D01*
X88144Y134343D01*
Y134732D01*
X88183Y134929D01*
X88144Y135126D01*
Y151474D01*
X99860D01*
Y150709D01*
X103303Y154152D01*
X104010Y153445D01*
X104717Y154152D01*
X108160Y150709D01*
Y152099D01*
X108186Y152295D01*
X108160Y152492D01*
Y160117D01*
X104717Y156675D01*
X104010Y157382D01*
X103303Y156675D01*
X99860Y160117D01*
Y157526D01*
X88144D01*
Y174657D01*
X74268Y160781D01*
X72854Y162195D01*
X86730Y176071D01*
X80010D01*
Y178000D01*
X250596D01*
X252984Y175612D01*
D02*
G37*
%LPC*%
G36*
X222945Y177039D02*
X217335D01*
X216554Y176884D01*
X215893Y176442D01*
X212248Y172797D01*
X211934Y172327D01*
X211794Y172267D01*
X211405Y172216D01*
X211316Y172234D01*
X210636Y172756D01*
X209674Y173154D01*
X208642Y173290D01*
X207610Y173154D01*
X206649Y172756D01*
X205823Y172122D01*
X205190Y171297D01*
X204791Y170335D01*
X204655Y169303D01*
X204784Y168328D01*
X201568Y165113D01*
X201126Y164451D01*
X200971Y163671D01*
Y144492D01*
X200471Y144443D01*
X200371Y144947D01*
X198717Y143293D01*
X197064Y141639D01*
X197681Y141516D01*
X197846Y140974D01*
X181314Y124442D01*
X180872Y123780D01*
X180716Y123000D01*
Y122156D01*
X177886D01*
X177619Y122656D01*
X177865Y123025D01*
X178059Y124000D01*
X177865Y124976D01*
X177312Y125802D01*
X176485Y126355D01*
X175510Y126549D01*
X174534Y126355D01*
X174062Y126039D01*
X159458D01*
X158985Y126355D01*
X158010Y126549D01*
X157035Y126355D01*
X156208Y125802D01*
X155655Y124976D01*
X155461Y124000D01*
X155655Y123025D01*
X155901Y122656D01*
X155634Y122156D01*
X151588D01*
X140979Y132766D01*
Y135622D01*
X135041D01*
Y134890D01*
X132227D01*
Y137453D01*
X121171D01*
Y129547D01*
X132227D01*
Y130811D01*
X135041D01*
Y130079D01*
X137898D01*
X148720Y119256D01*
X148706Y119142D01*
X148151Y118742D01*
X147708Y118830D01*
X146762Y118642D01*
X148415Y116988D01*
X147001Y115574D01*
X145348Y117228D01*
X145159Y116281D01*
X145353Y115306D01*
X145710Y114771D01*
X145443Y114271D01*
X118463D01*
Y124059D01*
X110557D01*
Y114170D01*
X101479D01*
Y114903D01*
X95542D01*
Y109359D01*
X101479D01*
Y110092D01*
X110557D01*
Y100406D01*
X118463D01*
Y110193D01*
X141721D01*
X141912Y109731D01*
X118925Y86744D01*
X118463Y86935D01*
Y90595D01*
X110557D01*
Y80890D01*
X101479D01*
Y81622D01*
X95542D01*
Y76079D01*
X101479D01*
Y76811D01*
X110557D01*
Y66941D01*
X118463D01*
Y82187D01*
X119291D01*
X120071Y82342D01*
X120733Y82784D01*
X130562Y92613D01*
X131090Y92434D01*
X131159Y91909D01*
X131557Y90948D01*
X132191Y90122D01*
X133017Y89488D01*
X133978Y89090D01*
X135010Y88954D01*
X136042Y89090D01*
X137003Y89488D01*
X137829Y90122D01*
X138428Y90902D01*
X146375D01*
X146566Y90440D01*
X141106Y84980D01*
X138963D01*
Y86894D01*
X131057D01*
Y78988D01*
X138963D01*
Y80902D01*
X141951D01*
X142731Y81057D01*
X143393Y81499D01*
X161355Y99461D01*
X164457D01*
X164637Y99241D01*
X164541Y98612D01*
X164320Y98464D01*
X163838Y97743D01*
X163669Y96892D01*
X163838Y96041D01*
X164320Y95319D01*
X168357Y91283D01*
X169078Y90801D01*
X169106Y90795D01*
X169772Y90129D01*
X169607Y89587D01*
X169078Y89481D01*
X168357Y88999D01*
X164320Y84963D01*
X163992Y84471D01*
X163463Y83942D01*
X163265Y83647D01*
X161053Y81434D01*
X159004Y83482D01*
X158208Y82686D01*
X157461Y83433D01*
X157365Y83916D01*
X156812Y84743D01*
X155985Y85296D01*
X155010Y85490D01*
X154034Y85296D01*
X153208Y84743D01*
X152655Y83916D01*
X152461Y82941D01*
X152655Y81966D01*
X153208Y81138D01*
X154034Y80586D01*
X154666Y80461D01*
X155324Y79802D01*
X154528Y79005D01*
X159004Y74529D01*
X161186Y76710D01*
X161691Y76509D01*
X161701Y76156D01*
X159539Y73994D01*
X160335Y73198D01*
X158783Y71646D01*
X158283D01*
X157470Y72460D01*
X157244Y72685D01*
X154701Y75229D01*
Y72588D01*
X153422D01*
Y71310D01*
X150781D01*
X153325Y68766D01*
X153550Y68540D01*
X153776Y68315D01*
X157319Y64771D01*
X159546Y66998D01*
X159713Y67109D01*
X160069Y67465D01*
X160170Y67485D01*
X160831Y67927D01*
X163219Y70314D01*
X164015Y69518D01*
X168492Y73994D01*
X166164Y76323D01*
X167839Y77998D01*
X168429Y77881D01*
X168774Y77363D01*
X169496Y76881D01*
X170347Y76712D01*
X170350Y76709D01*
X170519Y75858D01*
X171002Y75136D01*
X171723Y74654D01*
X172574Y74485D01*
X172577Y74482D01*
X172747Y73631D01*
X173229Y72909D01*
X173746Y72563D01*
X173863Y71973D01*
X171429Y69539D01*
X169510D01*
X168730Y69384D01*
X168068Y68942D01*
X162165Y63039D01*
X105860D01*
X105080Y62884D01*
X104418Y62442D01*
X101418Y59442D01*
X100976Y58780D01*
X100821Y58000D01*
Y56968D01*
X100088D01*
Y51610D01*
X99832Y51354D01*
X99521Y51407D01*
X99332Y51492D01*
Y55554D01*
X97268Y53490D01*
X96561Y54197D01*
X96364Y54000D01*
X97268Y53096D01*
X95203Y51032D01*
X98926D01*
X99110Y51032D01*
X99110Y50849D01*
Y40957D01*
X100971D01*
Y38448D01*
X100655Y37975D01*
X100461Y37000D01*
X100655Y36025D01*
X101208Y35198D01*
X102034Y34645D01*
X103010Y34451D01*
X103985Y34645D01*
X104812Y35198D01*
X105365Y36025D01*
X105559Y37000D01*
X105365Y37975D01*
X105049Y38448D01*
Y40957D01*
X106610D01*
Y51257D01*
X105632D01*
Y56968D01*
X105419D01*
X105212Y57468D01*
X106705Y58961D01*
X114434D01*
X114625Y58499D01*
X114190Y58064D01*
X113748Y57402D01*
X113662Y56968D01*
X112089D01*
Y51103D01*
X110910D01*
Y40803D01*
X112621D01*
Y38448D01*
X112305Y37975D01*
X112111Y37000D01*
X112305Y36025D01*
X112858Y35198D01*
X113684Y34645D01*
X114660Y34451D01*
X115635Y34645D01*
X116462Y35198D01*
X117015Y36025D01*
X117209Y37000D01*
X117015Y37975D01*
X116699Y38448D01*
Y40803D01*
X118410D01*
Y51032D01*
X122517D01*
X120452Y53096D01*
X121867Y54510D01*
X123931Y52446D01*
Y55961D01*
X170560D01*
X170751Y55499D01*
X161068Y45816D01*
X160626Y45154D01*
X160471Y44374D01*
Y36191D01*
X160006Y36106D01*
X159514Y36106D01*
X155506D01*
X155014Y36106D01*
X154514Y36106D01*
X150014D01*
Y33292D01*
X149903Y33217D01*
X145114Y28429D01*
X141345D01*
Y22098D01*
X147675D01*
Y25223D01*
X149575Y27122D01*
X150036Y26876D01*
X149961Y26500D01*
X150155Y25525D01*
X150708Y24698D01*
X151534Y24145D01*
X152510Y23951D01*
X153485Y24145D01*
X154312Y24698D01*
X154865Y25525D01*
X155059Y26500D01*
X154865Y27476D01*
X154549Y27948D01*
Y29691D01*
X155010Y29775D01*
X155471Y29691D01*
Y29000D01*
X155626Y28220D01*
X156068Y27558D01*
X158348Y25279D01*
X159009Y24836D01*
X159790Y24681D01*
X176092D01*
X176691Y23901D01*
X177517Y23268D01*
X178478Y22870D01*
X179510Y22734D01*
X180542Y22870D01*
X181503Y23268D01*
X182329Y23901D01*
X182963Y24727D01*
X183361Y25689D01*
X183497Y26720D01*
X183361Y27752D01*
X182963Y28714D01*
X182329Y29540D01*
X181503Y30173D01*
X180542Y30571D01*
X179510Y30707D01*
X178478Y30571D01*
X177517Y30173D01*
X176691Y29540D01*
X176092Y28760D01*
X160634D01*
X160118Y29276D01*
X160325Y29776D01*
X160506Y29776D01*
X164514D01*
X165006Y29776D01*
X165506Y29776D01*
X170006D01*
Y36106D01*
X169549D01*
Y37052D01*
X169865Y37525D01*
X170059Y38500D01*
X169865Y39476D01*
X169312Y40302D01*
X168485Y40855D01*
X167510Y41049D01*
X166534Y40855D01*
X165708Y40302D01*
X165155Y39476D01*
X165049Y38943D01*
X164549Y38993D01*
Y43529D01*
X167596Y46576D01*
X168074Y46431D01*
X168155Y46025D01*
X168708Y45198D01*
X169535Y44645D01*
X170510Y44451D01*
X171485Y44645D01*
X171958Y44961D01*
X183539D01*
X185568Y42932D01*
X186230Y42490D01*
X187010Y42334D01*
X189562D01*
X190034Y42019D01*
X191010Y41825D01*
X191985Y42019D01*
X192812Y42571D01*
X193365Y43398D01*
X193559Y44374D01*
X193365Y45349D01*
X192812Y46176D01*
X191985Y46729D01*
X191010Y46923D01*
X190034Y46729D01*
X189562Y46413D01*
X187855D01*
X185826Y48442D01*
X185164Y48884D01*
X184384Y49039D01*
X171958D01*
X171485Y49355D01*
X171080Y49436D01*
X170934Y49914D01*
X183428Y62408D01*
X184019Y62291D01*
X184364Y61774D01*
X185086Y61292D01*
X185937Y61122D01*
X185940Y61119D01*
X186109Y60268D01*
X186591Y59547D01*
X187313Y59065D01*
X188164Y58895D01*
X189015Y59065D01*
X189736Y59547D01*
X193773Y63583D01*
X194255Y64305D01*
X194424Y65156D01*
X194255Y66007D01*
X193773Y66728D01*
X193160Y67138D01*
X192894Y67639D01*
X193049Y68419D01*
Y76052D01*
X193365Y76525D01*
X193536Y77383D01*
X194006Y77620D01*
X196488Y75138D01*
X196461Y75000D01*
X196655Y74025D01*
X197208Y73198D01*
X198035Y72645D01*
X199010Y72451D01*
X199985Y72645D01*
X200812Y73198D01*
X201365Y74025D01*
X201559Y75000D01*
X201365Y75976D01*
X200890Y76686D01*
X201172Y77118D01*
X202010Y76951D01*
X202985Y77145D01*
X203812Y77698D01*
X204365Y78525D01*
X204559Y79500D01*
X204365Y80475D01*
X203812Y81302D01*
X202985Y81855D01*
X202428Y81966D01*
X199895Y84499D01*
X200086Y84961D01*
X201665D01*
X203044Y83582D01*
X203155Y83025D01*
X203708Y82198D01*
X204535Y81645D01*
X205510Y81451D01*
X206485Y81645D01*
X207312Y82198D01*
X207865Y83025D01*
X208059Y84000D01*
X207865Y84975D01*
X207312Y85802D01*
X206485Y86355D01*
X205928Y86466D01*
X204979Y87415D01*
X205297Y87803D01*
X205535Y87645D01*
X206510Y87451D01*
X207485Y87645D01*
X208312Y88198D01*
X208471Y88435D01*
X208971Y88283D01*
Y82954D01*
X209126Y82174D01*
X209568Y81512D01*
X210054Y81027D01*
X209937Y80437D01*
X209419Y80091D01*
X208937Y79369D01*
X208768Y78518D01*
X208765Y78515D01*
X207913Y78346D01*
X207192Y77864D01*
X206710Y77142D01*
X206541Y76291D01*
X206537Y76288D01*
X205686Y76119D01*
X204965Y75637D01*
X204483Y74915D01*
X204314Y74064D01*
X204310Y74061D01*
X203459Y73892D01*
X202738Y73409D01*
X202256Y72688D01*
X202086Y71837D01*
X202083Y71834D01*
X201232Y71664D01*
X200511Y71182D01*
X200029Y70461D01*
X199859Y69610D01*
X199856Y69607D01*
X199005Y69437D01*
X198284Y68955D01*
X197802Y68234D01*
X197632Y67383D01*
X197629Y67379D01*
X196778Y67210D01*
X196056Y66728D01*
X195674Y66156D01*
X197629D01*
Y64156D01*
X195674D01*
X196056Y63583D01*
X200093Y59547D01*
X200666Y59164D01*
Y61119D01*
X202666D01*
Y59164D01*
X203238Y59547D01*
X203584Y60064D01*
X204174Y60181D01*
X204681Y59674D01*
X204549Y59475D01*
X204355Y58500D01*
X204549Y57525D01*
X205101Y56698D01*
X205928Y56145D01*
X206904Y55951D01*
X207879Y56145D01*
X208706Y56698D01*
X208804Y56844D01*
X209304Y56693D01*
Y42678D01*
X206004Y39378D01*
X203738D01*
Y34622D01*
X209282D01*
Y36888D01*
X211110Y38716D01*
X211572Y38525D01*
Y34622D01*
X217115D01*
Y38524D01*
X217577Y38716D01*
X219405Y36888D01*
Y34622D01*
X224948D01*
Y38525D01*
X225410Y38716D01*
X227238Y36888D01*
Y34622D01*
X232782D01*
Y39378D01*
X230516D01*
X222382Y47511D01*
Y60933D01*
X222883Y61140D01*
X227005Y57018D01*
X231481Y61494D01*
X227005Y65971D01*
X226208Y65175D01*
X225761Y65621D01*
Y74696D01*
X225761Y74696D01*
X225606Y75477D01*
X225286Y75955D01*
X225521Y76455D01*
X228067D01*
X228465Y76057D01*
Y69665D01*
X228621Y68884D01*
X229063Y68223D01*
X229159Y68126D01*
X227539Y66505D01*
X232015Y62029D01*
X232812Y62825D01*
X233241Y62397D01*
X233708Y61698D01*
X234535Y61145D01*
X235510Y60951D01*
X236485Y61145D01*
X237312Y61698D01*
X237865Y62525D01*
X238059Y63500D01*
X237865Y64476D01*
X237312Y65302D01*
X236523Y65830D01*
X236446Y65932D01*
X236323Y66337D01*
X236492Y66505D01*
X233569Y69428D01*
X233457Y69595D01*
X232544Y70509D01*
Y76057D01*
X234981Y78495D01*
X230841Y82634D01*
X230682Y82794D01*
X230831Y83276D01*
X231220Y83324D01*
X235515Y79029D01*
X235646Y79160D01*
X238046Y76760D01*
X238046Y76260D01*
X237550Y75764D01*
X237325Y75539D01*
X234781Y72995D01*
X237422D01*
Y71716D01*
X238701D01*
X238701Y69075D01*
X241244Y71619D01*
X241470Y71845D01*
X241695Y72070D01*
X245239Y75614D01*
X241319Y79534D01*
X241180Y79394D01*
X238530Y82044D01*
X239992Y83505D01*
X235515Y87982D01*
X234054Y86520D01*
X233723Y86850D01*
X233062Y87292D01*
X232282Y87448D01*
X225290D01*
X225289Y87448D01*
X224509Y87292D01*
X223848Y86850D01*
X223417Y87055D01*
X221473Y88999D01*
X220751Y89481D01*
X219900Y89651D01*
X219049Y89481D01*
X218328Y88999D01*
X217846Y88278D01*
X217676Y87427D01*
X217673Y87423D01*
X216822Y87254D01*
X216101Y86772D01*
X215618Y86051D01*
X215449Y85200D01*
X215446Y85196D01*
X214595Y85027D01*
X213873Y84545D01*
X213549Y84060D01*
X213049Y84211D01*
Y92552D01*
X213365Y93025D01*
X213559Y94000D01*
X213365Y94976D01*
X212812Y95802D01*
X211985Y96355D01*
X211010Y96549D01*
X210034Y96355D01*
X209208Y95802D01*
X208655Y94976D01*
X208461Y94000D01*
X208655Y93025D01*
X208971Y92552D01*
Y91717D01*
X208471Y91565D01*
X208312Y91802D01*
X207485Y92355D01*
X206510Y92549D01*
X205535Y92355D01*
X205062Y92039D01*
X180727D01*
X180575Y92539D01*
X180812Y92698D01*
X181365Y93525D01*
X181559Y94500D01*
X181492Y94835D01*
X181942Y95135D01*
X182525Y94746D01*
X183501Y94552D01*
X184476Y94746D01*
X185303Y95298D01*
X185856Y96125D01*
X186050Y97101D01*
X185856Y98076D01*
X185303Y98903D01*
X184476Y99456D01*
X183919Y99567D01*
X182003Y101483D01*
X182120Y102073D01*
X182637Y102418D01*
X183119Y103140D01*
X183289Y103991D01*
X183292Y103994D01*
X184143Y104163D01*
X184864Y104646D01*
X185263Y105242D01*
X185822Y105390D01*
X187130Y104082D01*
X187241Y103525D01*
X187793Y102698D01*
X188620Y102145D01*
X189596Y101951D01*
X190571Y102145D01*
X191398Y102698D01*
X191951Y103525D01*
X192145Y104500D01*
X191951Y105475D01*
X191398Y106302D01*
X190571Y106855D01*
X190014Y106966D01*
X188794Y108186D01*
X188880Y108807D01*
X189319Y109100D01*
X189801Y109821D01*
X189970Y110672D01*
X189973Y110676D01*
X190824Y110845D01*
X191546Y111327D01*
X191909Y111871D01*
X192489Y111999D01*
X192971Y111517D01*
Y110448D01*
X192655Y109976D01*
X192461Y109000D01*
X192655Y108025D01*
X193208Y107198D01*
X194035Y106645D01*
X195010Y106451D01*
X195985Y106645D01*
X196812Y107198D01*
X197365Y108025D01*
X197559Y109000D01*
X197365Y109976D01*
X197049Y110448D01*
Y112262D01*
X197258Y112494D01*
X197502Y112648D01*
X197694Y112589D01*
X197802Y112048D01*
X198284Y111327D01*
X199005Y110845D01*
X199856Y110676D01*
X199859Y110672D01*
X200029Y109821D01*
X200511Y109100D01*
X201232Y108618D01*
X202083Y108448D01*
X202086Y108445D01*
X202256Y107594D01*
X202738Y106873D01*
X203459Y106391D01*
X204310Y106221D01*
X204314Y106218D01*
X204483Y105367D01*
X204965Y104646D01*
X205686Y104163D01*
X206537Y103994D01*
X206541Y103991D01*
X206710Y103140D01*
X207192Y102418D01*
X207710Y102073D01*
X207827Y101483D01*
X206792Y100447D01*
X206282Y100549D01*
X205306Y100355D01*
X204479Y99802D01*
X203927Y98975D01*
X203733Y98000D01*
X203927Y97025D01*
X204479Y96198D01*
X205306Y95645D01*
X206282Y95451D01*
X207257Y95645D01*
X207942Y96103D01*
X208008Y96116D01*
X208670Y96558D01*
X210711Y98599D01*
X211300Y98482D01*
X211646Y97964D01*
X212368Y97482D01*
X213219Y97313D01*
X213222Y97309D01*
X213391Y96459D01*
X213873Y95737D01*
X214595Y95255D01*
X215446Y95086D01*
X215449Y95082D01*
X215618Y94231D01*
X216101Y93510D01*
X216822Y93028D01*
X217673Y92859D01*
X217676Y92855D01*
X217846Y92004D01*
X218328Y91283D01*
X219049Y90801D01*
X219900Y90632D01*
X220751Y90801D01*
X221473Y91283D01*
X225509Y95319D01*
X225991Y96041D01*
X226161Y96892D01*
X225991Y97743D01*
X225509Y98464D01*
X225666Y98961D01*
X228010D01*
X228790Y99116D01*
X229452Y99558D01*
X250452Y120558D01*
X250452Y120558D01*
X250608Y120792D01*
X251108Y120641D01*
Y116870D01*
X258620D01*
Y118980D01*
X260951D01*
Y116279D01*
X268069D01*
Y123988D01*
X268501Y124153D01*
X269250D01*
Y133602D01*
Y143082D01*
X268501D01*
X268069Y143248D01*
Y150956D01*
X260951D01*
Y148256D01*
X258620D01*
Y150366D01*
X251108D01*
Y148256D01*
X248844D01*
X248812Y148302D01*
X247985Y148855D01*
X247010Y149049D01*
X246035Y148855D01*
X245208Y148302D01*
X244655Y147476D01*
X244461Y146500D01*
X244655Y145525D01*
X245208Y144698D01*
X246035Y144145D01*
X247010Y143951D01*
X247985Y144145D01*
X248033Y144177D01*
X251108D01*
Y142067D01*
X252156D01*
Y140523D01*
X250321D01*
Y135373D01*
X244331D01*
X243648Y135237D01*
X243069Y134850D01*
X238051Y129832D01*
X235598Y132286D01*
X231678Y128366D01*
X235876Y124168D01*
X237878Y126171D01*
X238681D01*
Y125369D01*
X236678Y123366D01*
X240876Y119168D01*
X244796Y123088D01*
X242342Y125541D01*
X246105Y129304D01*
X250321D01*
Y128695D01*
X247568Y125942D01*
X247126Y125280D01*
X246971Y124500D01*
Y122845D01*
X227165Y103039D01*
X223947D01*
X223740Y103539D01*
X231772Y111571D01*
X232158Y112150D01*
X232294Y112833D01*
Y115493D01*
X233969Y117167D01*
X236422Y114714D01*
X240342Y118634D01*
X236144Y122832D01*
X234141Y120830D01*
X233340D01*
Y121632D01*
X235342Y123634D01*
X231144Y127832D01*
X227224Y123912D01*
X229678Y121459D01*
X226748Y118529D01*
X226361Y117951D01*
X226226Y117268D01*
Y114608D01*
X221720Y110101D01*
X221219Y110309D01*
Y111449D01*
X223100Y113330D01*
X219737Y116693D01*
X217837Y114793D01*
X217351Y114981D01*
X217312Y115337D01*
X219203Y117227D01*
X215840Y120590D01*
X211920Y116670D01*
X213697Y114893D01*
Y111447D01*
X213124Y110874D01*
X212646Y111019D01*
X212629Y111106D01*
X212147Y111827D01*
X211425Y112309D01*
X210574Y112478D01*
X210571Y112482D01*
X210402Y113333D01*
X209920Y114054D01*
X209402Y114400D01*
X209285Y114990D01*
X225131Y130836D01*
X225573Y131498D01*
X225729Y132279D01*
Y150270D01*
X226229Y150319D01*
X226282Y150054D01*
X227228Y151000D01*
X226282Y151946D01*
X226229Y151681D01*
X225729Y151730D01*
Y155926D01*
X226229Y156173D01*
X226649Y155850D01*
X227610Y155452D01*
X228642Y155316D01*
X229674Y155452D01*
X230636Y155850D01*
X230661Y155870D01*
X227935Y158596D01*
X228642Y159303D01*
X227935Y160010D01*
X230661Y162736D01*
X230636Y162756D01*
X229674Y163154D01*
X228642Y163290D01*
X227610Y163154D01*
X226649Y162756D01*
X226229Y162434D01*
X225729Y162680D01*
Y164256D01*
X225729Y164256D01*
X225610Y164850D01*
X225919Y165350D01*
X232595D01*
Y173256D01*
X227573D01*
X224387Y176442D01*
X223726Y176884D01*
X222945Y177039D01*
D02*
G37*
G36*
X174774Y176775D02*
X158630D01*
X157850Y176620D01*
X157188Y176178D01*
X157188Y176178D01*
X156017Y175007D01*
X155575Y174345D01*
X155471Y173822D01*
X155006Y173736D01*
X154514Y173736D01*
X150014D01*
Y170922D01*
X149903Y170847D01*
X145264Y166209D01*
X141345D01*
Y166069D01*
X129569D01*
X129569Y166069D01*
X128786Y165966D01*
X128056Y165664D01*
X127812Y165477D01*
X121563Y171726D01*
X120936Y172207D01*
X120206Y172509D01*
X119423Y172613D01*
X108266D01*
X108186Y172705D01*
X108160Y172901D01*
Y175705D01*
X105356D01*
X105160Y175731D01*
X104963Y175705D01*
X99860D01*
Y163469D01*
X108160D01*
Y166561D01*
X118170D01*
X123567Y161163D01*
X123659Y160468D01*
X124057Y159507D01*
X124691Y158681D01*
X125517Y158047D01*
X126478Y157649D01*
X127510Y157513D01*
X128542Y157649D01*
X129503Y158047D01*
X130329Y158681D01*
X130963Y159507D01*
X131174Y160017D01*
X141345D01*
Y159878D01*
X147675D01*
Y162852D01*
X149607Y164784D01*
X150068Y164538D01*
X149961Y164000D01*
X150155Y163025D01*
X150708Y162198D01*
X151534Y161645D01*
X152510Y161451D01*
X153485Y161645D01*
X154312Y162198D01*
X154865Y163025D01*
X155059Y164000D01*
X154865Y164976D01*
X154549Y165448D01*
Y167321D01*
X155014Y167405D01*
X155506Y167405D01*
X160006D01*
X160006Y167405D01*
X160471Y167321D01*
Y165657D01*
X160155Y165184D01*
X159961Y164209D01*
X160155Y163233D01*
X160708Y162406D01*
X161535Y161854D01*
X162510Y161660D01*
X163485Y161854D01*
X164312Y162406D01*
X164865Y163233D01*
X164971Y163766D01*
X165471Y163716D01*
Y158948D01*
X165155Y158475D01*
X164961Y157500D01*
X165155Y156525D01*
X165479Y156039D01*
X165212Y155539D01*
X163958D01*
X163485Y155855D01*
X162510Y156049D01*
X161535Y155855D01*
X160708Y155302D01*
X160155Y154475D01*
X159961Y153500D01*
X160155Y152525D01*
X160642Y151795D01*
X160478Y151295D01*
X160014Y151295D01*
Y151295D01*
X160006D01*
Y151295D01*
X159019D01*
X158898Y151904D01*
X158456Y152566D01*
X153623Y157399D01*
X152961Y157841D01*
X152181Y157996D01*
X147963D01*
X145924Y155957D01*
X147963Y153918D01*
X151336D01*
X153497Y151757D01*
X153305Y151295D01*
X150014D01*
Y144965D01*
X150577D01*
X150626Y144720D01*
X151068Y144058D01*
X152603Y142523D01*
X153265Y142081D01*
X154045Y141925D01*
X175510D01*
X176290Y142081D01*
X176952Y142523D01*
X180952Y146523D01*
X181394Y147184D01*
X181549Y147965D01*
Y150047D01*
X183463D01*
Y157953D01*
X175557D01*
Y150047D01*
X177471D01*
Y148809D01*
X174665Y146004D01*
X170006D01*
Y151295D01*
X169549D01*
Y152500D01*
X169394Y153280D01*
X168952Y153942D01*
X168296Y154598D01*
X168461Y155140D01*
X168485Y155145D01*
X169312Y155698D01*
X169865Y156525D01*
X170059Y157500D01*
X169865Y158475D01*
X169549Y158948D01*
Y167405D01*
X170006D01*
Y172697D01*
X173929D01*
X177471Y169155D01*
Y167418D01*
X176691Y166819D01*
X176057Y165993D01*
X175659Y165032D01*
X175523Y164000D01*
X175659Y162968D01*
X176057Y162007D01*
X176691Y161181D01*
X177517Y160547D01*
X178478Y160149D01*
X179510Y160013D01*
X180542Y160149D01*
X181503Y160547D01*
X182329Y161181D01*
X182963Y162007D01*
X183361Y162968D01*
X183497Y164000D01*
X183361Y165032D01*
X182963Y165993D01*
X182329Y166819D01*
X181549Y167418D01*
Y170000D01*
X181394Y170780D01*
X180952Y171442D01*
X176216Y176178D01*
X175554Y176620D01*
X174774Y176775D01*
D02*
G37*
G36*
X106745Y161531D02*
X101275D01*
X104010Y158796D01*
X106745Y161531D01*
D02*
G37*
G36*
X146261Y159122D02*
X142759D01*
X144510Y157371D01*
X146261Y159122D01*
D02*
G37*
G36*
X232075Y161322D02*
X230057Y159303D01*
X232075Y157284D01*
X232095Y157310D01*
X232493Y158271D01*
X232629Y159303D01*
X232493Y160335D01*
X232095Y161297D01*
X232075Y161322D01*
D02*
G37*
G36*
X141345Y157708D02*
Y154206D01*
X143096Y155957D01*
X141345Y157708D01*
D02*
G37*
G36*
X130049Y155453D02*
X124971D01*
X127510Y152914D01*
X130049Y155453D01*
D02*
G37*
G36*
X144510Y154543D02*
X142759Y152791D01*
X146261D01*
X144510Y154543D01*
D02*
G37*
G36*
X228642Y153549D02*
X227696Y153361D01*
X228642Y152414D01*
X229589Y153361D01*
X228642Y153549D01*
D02*
G37*
G36*
X231003Y151946D02*
X230057Y151000D01*
X231003Y150054D01*
X231191Y151000D01*
X231003Y151946D01*
D02*
G37*
G36*
X104010Y152031D02*
X101275Y149295D01*
X104963D01*
X105160Y149269D01*
X105356Y149295D01*
X106745D01*
X104010Y152031D01*
D02*
G37*
G36*
X123557Y154039D02*
Y148961D01*
X126096Y151500D01*
X123557Y154039D01*
D02*
G37*
G36*
X131463Y154039D02*
X128924Y151500D01*
X131463Y148961D01*
Y154039D01*
D02*
G37*
G36*
X228642Y149586D02*
X227696Y148639D01*
X228642Y148451D01*
X229589Y148639D01*
X228642Y149586D01*
D02*
G37*
G36*
X127510Y150086D02*
X124971Y147547D01*
X130049D01*
X127510Y150086D01*
D02*
G37*
G36*
X198010Y146549D02*
X197064Y146361D01*
X198010Y145414D01*
X198957Y146361D01*
X198010Y146549D01*
D02*
G37*
G36*
X195649Y144947D02*
X195461Y144000D01*
X195649Y143053D01*
X196596Y144000D01*
X195649Y144947D01*
D02*
G37*
G36*
X139564Y141921D02*
X136456D01*
X138010Y140367D01*
X139564Y141921D01*
D02*
G37*
G36*
X138010Y139347D02*
X137813Y139150D01*
X138010Y138953D01*
X138207Y139150D01*
X138010Y139347D01*
D02*
G37*
G36*
X135041Y140507D02*
Y137792D01*
X136399Y139150D01*
X135041Y140507D01*
D02*
G37*
G36*
X140979Y140507D02*
X139621Y139150D01*
X140979Y137792D01*
Y140507D01*
D02*
G37*
G36*
X138010Y137932D02*
X136456Y136378D01*
X139564D01*
X138010Y137932D01*
D02*
G37*
G36*
X105849Y137453D02*
X94793D01*
Y129547D01*
X105849D01*
Y131461D01*
X111562D01*
X112034Y131145D01*
X113010Y130951D01*
X113985Y131145D01*
X114812Y131698D01*
X115365Y132525D01*
X115559Y133500D01*
X115365Y134476D01*
X114812Y135302D01*
X113985Y135855D01*
X113010Y136049D01*
X112034Y135855D01*
X111562Y135539D01*
X105849D01*
Y137453D01*
D02*
G37*
G36*
X266463Y109601D02*
X258557D01*
Y101696D01*
X266463D01*
Y109601D01*
D02*
G37*
G36*
X101479Y108604D02*
X95542D01*
Y103060D01*
X96471D01*
Y95491D01*
Y87921D01*
X95542D01*
Y82378D01*
X101479D01*
Y87921D01*
X100549D01*
Y93452D01*
X107576D01*
X108035Y93145D01*
X109010Y92951D01*
X109985Y93145D01*
X110812Y93698D01*
X111365Y94525D01*
X111559Y95500D01*
X111365Y96475D01*
X110812Y97302D01*
X109985Y97855D01*
X109010Y98049D01*
X108035Y97855D01*
X107548Y97530D01*
X100549D01*
Y103060D01*
X101479D01*
Y108604D01*
D02*
G37*
G36*
X262510Y99635D02*
X261478Y99499D01*
X260517Y99101D01*
X259691Y98467D01*
X259057Y97642D01*
X258659Y96680D01*
X258523Y95648D01*
X258659Y94617D01*
X259057Y93655D01*
X259691Y92829D01*
X260517Y92196D01*
X261478Y91797D01*
X262510Y91662D01*
X263542Y91797D01*
X264503Y92196D01*
X265329Y92829D01*
X265963Y93655D01*
X266361Y94617D01*
X266497Y95648D01*
X266361Y96680D01*
X265963Y97642D01*
X265329Y98467D01*
X264503Y99101D01*
X263542Y99499D01*
X262510Y99635D01*
D02*
G37*
G36*
Y89635D02*
X261478Y89499D01*
X260517Y89101D01*
X259691Y88468D01*
X259057Y87642D01*
X258659Y86680D01*
X258523Y85648D01*
X258659Y84617D01*
X259057Y83655D01*
X259691Y82829D01*
X260517Y82196D01*
X261478Y81797D01*
X262510Y81661D01*
X263542Y81797D01*
X264503Y82196D01*
X265329Y82829D01*
X265963Y83655D01*
X266361Y84617D01*
X266497Y85648D01*
X266361Y86680D01*
X265963Y87642D01*
X265329Y88468D01*
X264503Y89101D01*
X263542Y89499D01*
X262510Y89635D01*
D02*
G37*
G36*
X152700Y75229D02*
X150781Y73309D01*
X152700D01*
Y75229D01*
D02*
G37*
G36*
X262510Y79635D02*
X261478Y79499D01*
X260517Y79101D01*
X259691Y78468D01*
X259057Y77642D01*
X258659Y76680D01*
X258523Y75648D01*
X258659Y74616D01*
X259057Y73655D01*
X259691Y72829D01*
X260517Y72196D01*
X261478Y71797D01*
X262510Y71662D01*
X263542Y71797D01*
X264503Y72196D01*
X265329Y72829D01*
X265963Y73655D01*
X266361Y74616D01*
X266497Y75648D01*
X266361Y76680D01*
X265963Y77642D01*
X265329Y78468D01*
X264503Y79101D01*
X263542Y79499D01*
X262510Y79635D01*
D02*
G37*
G36*
X234781Y70995D02*
X236701Y69075D01*
X236701Y70995D01*
X234781D01*
D02*
G37*
G36*
X262510Y69635D02*
X261478Y69499D01*
X260517Y69101D01*
X259691Y68467D01*
X259057Y67642D01*
X258659Y66680D01*
X258523Y65648D01*
X258659Y64617D01*
X259057Y63655D01*
X259691Y62829D01*
X260517Y62196D01*
X261478Y61797D01*
X262510Y61661D01*
X263542Y61797D01*
X264503Y62196D01*
X265329Y62829D01*
X265963Y63655D01*
X266361Y64617D01*
X266497Y65648D01*
X266361Y66680D01*
X265963Y67642D01*
X265329Y68467D01*
X264503Y69101D01*
X263542Y69499D01*
X262510Y69635D01*
D02*
G37*
G36*
Y59635D02*
X261478Y59499D01*
X260517Y59101D01*
X260491Y59082D01*
X262510Y57063D01*
X264529Y59082D01*
X264503Y59101D01*
X263542Y59499D01*
X262510Y59635D01*
D02*
G37*
G36*
X97918Y56968D02*
X95203D01*
X96561Y55611D01*
X97918Y56968D01*
D02*
G37*
G36*
X265943Y57667D02*
X263924Y55648D01*
X265943Y53629D01*
X265963Y53655D01*
X266361Y54616D01*
X266497Y55648D01*
X266361Y56680D01*
X265963Y57642D01*
X265943Y57667D01*
D02*
G37*
G36*
X259077Y57667D02*
X259057Y57642D01*
X258659Y56680D01*
X258523Y55648D01*
X258659Y54616D01*
X259057Y53655D01*
X259077Y53629D01*
X261096Y55648D01*
X259077Y57667D01*
D02*
G37*
G36*
X93789Y55554D02*
Y52446D01*
X95343Y54000D01*
X93789Y55554D01*
D02*
G37*
G36*
X262510Y54234D02*
X260491Y52215D01*
X260517Y52196D01*
X261478Y51797D01*
X262510Y51661D01*
X263542Y51797D01*
X264503Y52196D01*
X264529Y52215D01*
X262510Y54234D01*
D02*
G37*
G36*
X262510Y49635D02*
X261478Y49499D01*
X260517Y49101D01*
X259691Y48467D01*
X259057Y47642D01*
X258659Y46680D01*
X258523Y45648D01*
X258659Y44616D01*
X259057Y43655D01*
X259691Y42829D01*
X260517Y42196D01*
X261478Y41797D01*
X262510Y41662D01*
X263542Y41797D01*
X264503Y42196D01*
X265329Y42829D01*
X265963Y43655D01*
X266361Y44616D01*
X266497Y45648D01*
X266361Y46680D01*
X265963Y47642D01*
X265329Y48467D01*
X264503Y49101D01*
X263542Y49499D01*
X262510Y49635D01*
D02*
G37*
G36*
X136110Y51103D02*
X128610D01*
Y40803D01*
X130321D01*
Y38224D01*
X130155Y37975D01*
X129961Y37000D01*
X130155Y36025D01*
X130708Y35198D01*
X131535Y34645D01*
X132510Y34451D01*
X133485Y34645D01*
X134312Y35198D01*
X134865Y36025D01*
X135059Y37000D01*
X134865Y37975D01*
X134399Y38673D01*
Y40803D01*
X136110D01*
Y51103D01*
D02*
G37*
G36*
X88910Y51257D02*
X81410D01*
Y40957D01*
X83121D01*
Y38673D01*
X82655Y37975D01*
X82461Y37000D01*
X82655Y36025D01*
X83208Y35198D01*
X84035Y34645D01*
X85010Y34451D01*
X85985Y34645D01*
X86812Y35198D01*
X87365Y36025D01*
X87559Y37000D01*
X87365Y37975D01*
X87199Y38224D01*
Y40957D01*
X88910D01*
Y51257D01*
D02*
G37*
G36*
X262510Y39635D02*
X261478Y39499D01*
X260517Y39101D01*
X259691Y38467D01*
X259057Y37642D01*
X258659Y36680D01*
X258523Y35648D01*
X258659Y34617D01*
X259057Y33655D01*
X259691Y32829D01*
X260517Y32196D01*
X261478Y31797D01*
X262510Y31661D01*
X263542Y31797D01*
X264503Y32196D01*
X265329Y32829D01*
X265963Y33655D01*
X266361Y34617D01*
X266497Y35648D01*
X266361Y36680D01*
X265963Y37642D01*
X265329Y38467D01*
X264503Y39101D01*
X263542Y39499D01*
X262510Y39635D01*
D02*
G37*
G36*
X209282Y33866D02*
X203738D01*
Y29110D01*
X204471D01*
Y27803D01*
X203541D01*
Y21866D01*
X209478D01*
Y27803D01*
X208549D01*
Y29110D01*
X209282D01*
Y33866D01*
D02*
G37*
G36*
X224948D02*
X219405D01*
Y29110D01*
X220138D01*
Y27803D01*
X219208D01*
Y21866D01*
X225145D01*
Y27803D01*
X224216D01*
Y29110D01*
X224948D01*
Y33866D01*
D02*
G37*
G36*
X232782Y33866D02*
X227238D01*
Y29110D01*
X227971D01*
Y26732D01*
X227435D01*
Y21582D01*
X232585D01*
Y26732D01*
X232049D01*
Y29110D01*
X232782D01*
Y33866D01*
D02*
G37*
G36*
X217115D02*
X211572D01*
Y29110D01*
X212304D01*
Y26732D01*
X211769D01*
Y21582D01*
X216918D01*
Y26732D01*
X216383D01*
Y29110D01*
X217115D01*
Y33866D01*
D02*
G37*
G36*
X225145Y21110D02*
X219208D01*
Y20181D01*
X216918D01*
Y20432D01*
X211769D01*
Y20181D01*
X209478D01*
Y21110D01*
X203541D01*
Y20181D01*
X201158D01*
X200986Y20296D01*
X200010Y20490D01*
X199035Y20296D01*
X198208Y19743D01*
X197655Y18916D01*
X197461Y17941D01*
X197655Y16965D01*
X198208Y16139D01*
X199035Y15586D01*
X200010Y15392D01*
X200986Y15586D01*
X201758Y16103D01*
X203541D01*
Y15173D01*
X209478D01*
Y16103D01*
X211769D01*
Y15283D01*
X216918D01*
Y16103D01*
X219208D01*
Y15173D01*
X225145D01*
Y16103D01*
X227435D01*
Y15283D01*
X232585D01*
Y20432D01*
X227435D01*
Y20181D01*
X225145D01*
Y21110D01*
D02*
G37*
G36*
X146261Y21342D02*
X142759D01*
X144510Y19591D01*
X146261Y21342D01*
D02*
G37*
G36*
X141345Y19928D02*
Y16426D01*
X143096Y18177D01*
X141345Y19928D01*
D02*
G37*
G36*
X144510Y16763D02*
X142759Y15012D01*
X146261D01*
X144510Y16763D01*
D02*
G37*
G36*
X183463Y20673D02*
X175557D01*
Y12768D01*
X177471D01*
Y11179D01*
X174665Y8374D01*
X170006D01*
Y13665D01*
X169549D01*
Y15052D01*
X169865Y15525D01*
X170059Y16500D01*
X169865Y17476D01*
X169312Y18302D01*
X168485Y18855D01*
X167510Y19049D01*
X166534Y18855D01*
X165708Y18302D01*
X165155Y17476D01*
X164961Y16500D01*
X165155Y15525D01*
X165471Y15052D01*
Y13750D01*
X165006Y13665D01*
X165006Y13665D01*
X165006Y13665D01*
X160506D01*
X160014Y13665D01*
Y13665D01*
X160006D01*
Y13665D01*
X159461D01*
X159394Y14001D01*
X158952Y14662D01*
X153995Y19619D01*
X153334Y20061D01*
X152553Y20216D01*
X147963D01*
X145924Y18177D01*
X147963Y16138D01*
X151709D01*
X153719Y14127D01*
X153528Y13665D01*
X150014D01*
Y7335D01*
X150505D01*
X150626Y6726D01*
X151068Y6064D01*
X152240Y4893D01*
X152240Y4893D01*
X152901Y4451D01*
X153682Y4295D01*
X175510D01*
X176290Y4451D01*
X176952Y4893D01*
X180952Y8893D01*
X181394Y9554D01*
X181549Y10335D01*
Y12768D01*
X183463D01*
Y20673D01*
D02*
G37*
G36*
X103010Y21549D02*
X102034Y21355D01*
X101208Y20802D01*
X100655Y19975D01*
X100461Y19000D01*
X100655Y18025D01*
X100821Y17776D01*
Y15357D01*
X99110D01*
Y5057D01*
X106610D01*
Y15357D01*
X104899D01*
Y17327D01*
X105365Y18025D01*
X105559Y19000D01*
X105365Y19975D01*
X104812Y20802D01*
X103985Y21355D01*
X103010Y21549D01*
D02*
G37*
G36*
X85010D02*
X84035Y21355D01*
X83208Y20802D01*
X82655Y19975D01*
X82461Y19000D01*
X82655Y18025D01*
X83121Y17327D01*
Y15357D01*
X81410D01*
Y5057D01*
X88910D01*
Y15357D01*
X87199D01*
Y17776D01*
X87365Y18025D01*
X87559Y19000D01*
X87365Y19975D01*
X86812Y20802D01*
X85985Y21355D01*
X85010Y21549D01*
D02*
G37*
G36*
X132510D02*
X131535Y21355D01*
X130708Y20802D01*
X130155Y19975D01*
X129961Y19000D01*
X130155Y18025D01*
X130321Y17776D01*
Y15203D01*
X128610D01*
Y4903D01*
X136110D01*
Y15203D01*
X134399D01*
Y17327D01*
X134865Y18025D01*
X135059Y19000D01*
X134865Y19975D01*
X134312Y20802D01*
X133485Y21355D01*
X132510Y21549D01*
D02*
G37*
G36*
X114510D02*
X113534Y21355D01*
X112708Y20802D01*
X112155Y19975D01*
X111961Y19000D01*
X112155Y18025D01*
X112621Y17327D01*
Y15203D01*
X110910D01*
Y4903D01*
X118410D01*
Y15203D01*
X116699D01*
Y17776D01*
X116865Y18025D01*
X117059Y19000D01*
X116865Y19975D01*
X116312Y20802D01*
X115485Y21355D01*
X114510Y21549D01*
D02*
G37*
%LPD*%
G36*
X260951Y143248D02*
X260519Y143082D01*
X259770D01*
Y133602D01*
Y124153D01*
X260519D01*
X260951Y123988D01*
Y123059D01*
X258620D01*
Y125169D01*
X253216D01*
X253025Y125631D01*
X253626Y126232D01*
X253978D01*
X254759Y126388D01*
X255245Y126712D01*
X257636D01*
Y129271D01*
Y131831D01*
Y134390D01*
Y136949D01*
Y140523D01*
X255801D01*
Y142067D01*
X258620D01*
Y144177D01*
X260951D01*
Y143248D01*
D02*
G37*
G36*
X205823Y156484D02*
X206603Y155886D01*
Y152448D01*
X206287Y151976D01*
X206093Y151000D01*
X206287Y150025D01*
X206840Y149198D01*
X207667Y148645D01*
X208642Y148451D01*
X209618Y148645D01*
X210445Y149198D01*
X210997Y150025D01*
X211150Y150794D01*
X211650Y150745D01*
Y132076D01*
X200746Y121172D01*
X200093Y120736D01*
X196056Y116699D01*
X195574Y115977D01*
X195477Y115486D01*
X194934Y115321D01*
X194209Y116046D01*
X193773Y116699D01*
X189736Y120736D01*
X189015Y121218D01*
X188164Y121387D01*
X187313Y121218D01*
X186591Y120736D01*
X186246Y120218D01*
X185656Y120101D01*
X184795Y120962D01*
Y122155D01*
X204452Y141813D01*
X204894Y142474D01*
X205049Y143254D01*
Y156671D01*
X205549Y156841D01*
X205823Y156484D01*
D02*
G37*
G36*
X158780Y106442D02*
X158487Y106384D01*
X157825Y105942D01*
X146864Y94980D01*
X138428D01*
X137829Y95760D01*
X137003Y96394D01*
X136042Y96792D01*
X135517Y96861D01*
X135338Y97389D01*
X144891Y106942D01*
X158731D01*
X158780Y106442D01*
D02*
G37*
G36*
X188666Y78550D02*
X188652Y78461D01*
X188461Y77500D01*
X188655Y76525D01*
X188971Y76052D01*
Y71970D01*
X188471Y71690D01*
X187746Y71834D01*
X187743Y71837D01*
X187574Y72688D01*
X187092Y73409D01*
X186370Y73892D01*
X185519Y74061D01*
X185516Y74064D01*
X185347Y74915D01*
X184864Y75637D01*
X184143Y76119D01*
X183292Y76288D01*
X183289Y76291D01*
X183119Y77142D01*
X182637Y77864D01*
X182285Y78099D01*
X182199Y78665D01*
X182450Y78961D01*
X188386D01*
X188666Y78550D01*
D02*
G37*
G36*
X221683Y73852D02*
Y66698D01*
X221221Y66507D01*
X215822Y71906D01*
X215847Y72135D01*
X215941Y72456D01*
X215969Y72487D01*
X216601Y72909D01*
X217083Y73631D01*
X217252Y74482D01*
X217255Y74485D01*
X218106Y74654D01*
X218828Y75136D01*
X219174Y75654D01*
X219764Y75771D01*
X221683Y73852D01*
D02*
G37*
D45*
X222177Y24835D02*
D03*
Y18142D02*
D03*
X206510Y24835D02*
D03*
Y18142D02*
D03*
D59*
X67510Y72339D02*
D03*
Y89661D02*
D03*
D60*
X83010Y73232D02*
D03*
Y89768D02*
D03*
D61*
X253978Y128500D02*
D03*
Y131059D02*
D03*
Y133618D02*
D03*
Y136177D02*
D03*
Y138736D02*
D03*
D62*
X254864Y121019D02*
D03*
Y146216D02*
D03*
D63*
X264510Y120134D02*
D03*
Y147102D02*
D03*
D64*
Y128893D02*
D03*
Y138342D02*
D03*
D65*
X15010Y140063D02*
D03*
Y146559D02*
D03*
D66*
X73561Y154500D02*
D03*
D67*
X33797Y144500D02*
D03*
Y154500D02*
D03*
Y164500D02*
D03*
D68*
X104010Y169587D02*
D03*
Y155413D02*
D03*
D69*
X152510Y148130D02*
D03*
X157510D02*
D03*
X162510D02*
D03*
X167510D02*
D03*
X152510Y170571D02*
D03*
X157510D02*
D03*
X162510D02*
D03*
X167510D02*
D03*
X152510Y10500D02*
D03*
X157510D02*
D03*
X162510D02*
D03*
X167510D02*
D03*
X152510Y32941D02*
D03*
X157510D02*
D03*
X162510D02*
D03*
X167510D02*
D03*
D70*
X144510Y163043D02*
D03*
Y155957D02*
D03*
Y25264D02*
D03*
Y18177D02*
D03*
D71*
X138010Y139150D02*
D03*
Y132850D02*
D03*
X98510Y85150D02*
D03*
Y78850D02*
D03*
Y112131D02*
D03*
Y105832D02*
D03*
D72*
X219459Y113051D02*
D03*
X215561Y116949D02*
D03*
D73*
X231283Y123773D02*
D03*
X235737Y128227D02*
D03*
X236283Y118773D02*
D03*
X240737Y123227D02*
D03*
D74*
X241459Y75753D02*
D03*
X237561Y71856D02*
D03*
D75*
X230504Y78495D02*
D03*
X235515Y83505D02*
D03*
X232015Y66505D02*
D03*
X227005Y61494D02*
D03*
D76*
X159004Y79005D02*
D03*
X164015Y73994D02*
D03*
D77*
X157459Y68551D02*
D03*
X153561Y72449D02*
D03*
D78*
X121160Y54000D02*
D03*
X114860D02*
D03*
X96561D02*
D03*
X102860D02*
D03*
D79*
X82327Y107500D02*
D03*
X87839D02*
D03*
D80*
X230010Y17857D02*
D03*
Y24157D02*
D03*
X214343Y17857D02*
D03*
Y24157D02*
D03*
D81*
X65738Y107500D02*
D03*
X72038D02*
D03*
D82*
X114660Y45953D02*
D03*
Y10053D02*
D03*
X132360Y45953D02*
D03*
Y10053D02*
D03*
X102860Y10207D02*
D03*
Y46107D02*
D03*
X85160Y10207D02*
D03*
Y46107D02*
D03*
D83*
X230010Y37000D02*
D03*
Y31488D02*
D03*
X222177Y31488D02*
D03*
Y37000D02*
D03*
X214343Y37000D02*
D03*
Y31488D02*
D03*
X206510Y31488D02*
D03*
Y37000D02*
D03*
D84*
X114510Y78768D02*
D03*
Y112232D02*
D03*
D85*
X100321Y133500D02*
D03*
X126699D02*
D03*
D86*
X221918Y85408D02*
D03*
X219691Y83181D02*
D03*
X217464Y80954D02*
D03*
X215237Y78727D02*
D03*
X213010Y76500D02*
D03*
X210783Y74273D02*
D03*
X208556Y72046D02*
D03*
X206329Y69819D02*
D03*
X204102Y67592D02*
D03*
X201874Y65364D02*
D03*
X199647Y63137D02*
D03*
X167911Y94874D02*
D03*
X170138Y97101D02*
D03*
X172365Y99328D02*
D03*
X174592Y101555D02*
D03*
X176820Y103782D02*
D03*
X179047Y106009D02*
D03*
X181274Y108236D02*
D03*
X183501Y110463D02*
D03*
X185728Y112690D02*
D03*
X187955Y114918D02*
D03*
X190182Y117145D02*
D03*
D87*
Y63137D02*
D03*
X187955Y65364D02*
D03*
X185728Y67592D02*
D03*
X183501Y69819D02*
D03*
X181274Y72046D02*
D03*
X179047Y74273D02*
D03*
X176820Y76500D02*
D03*
X174592Y78727D02*
D03*
X172365Y80954D02*
D03*
X170138Y83181D02*
D03*
X167911Y85408D02*
D03*
X199647Y117145D02*
D03*
X201874Y114918D02*
D03*
X204102Y112690D02*
D03*
X206329Y110463D02*
D03*
X208556Y108236D02*
D03*
X210783Y106009D02*
D03*
X213010Y103782D02*
D03*
X215237Y101555D02*
D03*
X217464Y99328D02*
D03*
X219691Y97101D02*
D03*
X221918Y94874D02*
D03*
D88*
X264510Y120134D02*
Y121019D01*
Y146216D02*
Y147102D01*
X263624Y146216D02*
X264510Y147102D01*
X254864Y146216D02*
X263624D01*
X264510Y128893D02*
Y138342D01*
X253978Y146216D02*
X254864D01*
X264510Y121019D02*
Y128893D01*
X263624Y121019D02*
X264510Y120134D01*
X253978Y145331D02*
X254864Y146216D01*
X247010Y146500D02*
X247294Y146216D01*
X254864Y121019D02*
X263624D01*
X247294Y146216D02*
X253978D01*
X264510Y138342D02*
Y146216D01*
X58789Y114500D02*
Y126000D01*
X60599Y112690D02*
X85985D01*
X58789Y114500D02*
X60599Y112690D01*
X85985D02*
X87811Y110865D01*
Y107528D02*
Y110865D01*
Y107528D02*
X87839Y107500D01*
X98510Y95491D02*
X109001D01*
X109010Y95500D01*
X147708Y116281D02*
X182137D01*
X114510Y112232D02*
X177278D01*
X144046Y108982D02*
X176074D01*
X119291Y84226D02*
X144046Y108982D01*
X182137Y116281D02*
X185728Y112690D01*
X206282Y98000D02*
X207228D01*
X213010Y103782D01*
X206904Y58500D02*
Y60335D01*
X201874Y65364D02*
X206904Y60335D01*
X73561Y147512D02*
Y154500D01*
Y147512D02*
X86144Y134929D01*
X82327Y107500D02*
X82327Y107500D01*
X72038Y107500D02*
X82327D01*
X51510Y103733D02*
X52835D01*
X56603Y107500D01*
X65738D01*
X235021Y63500D02*
X235510D01*
X232015Y66505D02*
X235021Y63500D01*
X185798Y108264D02*
X185832D01*
X183599Y110463D02*
X185798Y108264D01*
X183501Y110463D02*
X183599D01*
X185832Y108264D02*
X189596Y104500D01*
X199010Y75000D02*
Y75500D01*
X193510Y81000D02*
X199010Y75500D01*
X175510Y143965D02*
X179510Y147965D01*
Y154000D01*
X157510Y29000D02*
Y32941D01*
Y29000D02*
X159790Y26720D01*
X179510D01*
X175510Y6335D02*
X179510Y10335D01*
Y16721D01*
X153682Y6335D02*
X175510D01*
X100321Y133500D02*
X113010D01*
X150743Y120117D02*
X182756D01*
X138979Y131882D02*
X150743Y120117D01*
X138979Y131882D02*
Y132079D01*
X138207Y132850D02*
X138979Y132079D01*
X138010Y132850D02*
X138207D01*
X126699Y133500D02*
X127349Y132850D01*
X138010D01*
X219180Y109952D02*
Y112773D01*
X213010Y103782D02*
X219180Y109952D01*
X223591Y101000D02*
X228010D01*
X219691Y97101D02*
X223591Y101000D01*
X252781Y128271D02*
X253978D01*
X249010Y124500D02*
X252781Y128271D01*
X249010Y122000D02*
Y124500D01*
X228010Y101000D02*
X249010Y122000D01*
X202510Y87000D02*
X205510Y84000D01*
X172785Y90000D02*
X206510D01*
X211010Y82954D02*
Y94000D01*
X167911Y94874D02*
X172785Y90000D01*
X132360Y18850D02*
X132510Y19000D01*
X132360Y10053D02*
Y18850D01*
Y37150D02*
X132510Y37000D01*
X132360Y37150D02*
Y45953D01*
X85010Y37000D02*
X85160Y37150D01*
Y46107D01*
X85010Y19000D02*
X85160Y18850D01*
Y10207D02*
Y18850D01*
X103010Y37000D02*
Y45957D01*
X102860Y46107D02*
X103010Y45957D01*
X102860Y18850D02*
X103010Y19000D01*
X102860Y10207D02*
Y18850D01*
X114660Y37000D02*
Y45953D01*
X114510Y19000D02*
X114660Y18850D01*
Y10053D02*
Y18850D01*
X114760Y53900D02*
X114860Y54000D01*
X114760Y46053D02*
Y53900D01*
X114660Y45953D02*
X114760Y46053D01*
X102860Y46107D02*
Y54000D01*
X219180Y112773D02*
X219459Y113051D01*
X158510Y124000D02*
X175510D01*
X170510Y47000D02*
X184384D01*
X187010Y44374D02*
X191010D01*
X184384Y47000D02*
X187010Y44374D01*
X208642Y151000D02*
Y159303D01*
X203010Y143254D02*
Y163671D01*
X208642Y169303D01*
X182756Y123000D02*
X203010Y143254D01*
X182756Y120117D02*
Y123000D01*
X199625Y117167D02*
X213689Y131231D01*
Y171355D01*
X217335Y175000D01*
X222945D01*
X228642Y169303D01*
X207074Y115663D02*
X223690Y132279D01*
Y164256D01*
X218642Y169303D02*
X223690Y164256D01*
X204847Y117890D02*
X218642Y131685D01*
Y159303D01*
X206510Y37000D02*
X206904D01*
X207074Y64619D02*
X211343Y60350D01*
Y41833D02*
Y60350D01*
X207282Y37772D02*
X211343Y41833D01*
X207282Y37378D02*
Y37772D01*
X206904Y37000D02*
X207282Y37378D01*
X220343Y46667D02*
Y64501D01*
X213755Y71089D02*
X220343Y64501D01*
X213755Y71089D02*
Y71301D01*
X220343Y46667D02*
X229238Y37772D01*
Y37378D02*
Y37772D01*
Y37378D02*
X229616Y37000D01*
X230010D01*
X211528Y68862D02*
X217343Y63047D01*
Y41833D02*
Y63047D01*
X211528Y68862D02*
Y69073D01*
X217343Y41833D02*
X221405Y37772D01*
Y37378D02*
Y37772D01*
Y37378D02*
X221783Y37000D01*
X222177D01*
X209301Y66846D02*
X214343Y61804D01*
Y37000D02*
Y61804D01*
X154045Y143965D02*
X175510D01*
X206510Y18142D02*
X222177D01*
X229726D02*
X230010Y17857D01*
X222177Y18142D02*
X229726D01*
X230504Y69665D02*
X232015Y68154D01*
Y66505D02*
Y68154D01*
X230504Y69665D02*
Y78495D01*
X223722Y64777D02*
Y74696D01*
Y64777D02*
X227005Y61494D01*
X217464Y80954D02*
X223722Y74696D01*
X197510Y84000D02*
X202010Y79500D01*
X179865Y84000D02*
X197510D01*
X178411Y87000D02*
X202510D01*
X172365Y80954D02*
X178411Y87000D01*
X211010Y82954D02*
X215237Y78727D01*
X179010Y97064D02*
X179047Y97101D01*
X179010Y94500D02*
Y97064D01*
X174592Y78727D02*
X179865Y84000D01*
X181319Y81000D02*
X193510D01*
X176820Y76500D02*
X181319Y81000D01*
X177565Y98583D02*
X179047Y97101D01*
X190927Y68337D02*
X191010Y68419D01*
Y77500D01*
X162510Y164209D02*
Y170571D01*
X176820Y103782D02*
X183501Y97101D01*
X234850Y82840D02*
X241459Y76231D01*
X161508Y79005D02*
X167911Y85408D01*
X167510Y157500D02*
Y170571D01*
X190204Y117167D02*
X195010Y112361D01*
Y109000D02*
Y112361D01*
X167510Y10500D02*
Y16500D01*
Y32941D02*
Y38500D01*
X163010Y61000D02*
X169510Y67500D01*
X172274D01*
X102860Y54000D02*
Y58000D01*
X105860Y61000D02*
X163010D01*
X102860Y58000D02*
X105860Y61000D01*
X172274Y67500D02*
X179047Y74273D01*
X171010Y63500D02*
X172728D01*
X181274Y72046D01*
X117010Y58000D02*
X171682D01*
X180528Y66846D01*
X115632Y56622D02*
X117010Y58000D01*
X115632Y54969D02*
Y56622D01*
X162510Y44374D02*
X182756Y64619D01*
X162510Y32941D02*
Y44374D01*
Y153500D02*
X166510D01*
X167510Y152500D01*
Y148130D02*
Y152500D01*
X98510Y95491D02*
Y105832D01*
Y85150D02*
Y95491D01*
X232282Y85408D02*
X234850Y82840D01*
X241459Y75753D02*
Y76231D01*
X225289Y85408D02*
X232282D01*
X223722Y83841D02*
X225289Y85408D01*
X223486Y83841D02*
X223722D01*
X221918Y85408D02*
X223486Y83841D01*
X222664Y80209D02*
X224378Y78495D01*
X230504D01*
X182756Y120117D02*
X187955Y114918D01*
X152510Y169902D02*
Y170571D01*
Y164000D02*
Y169902D01*
X155010Y82941D02*
X155069D01*
X159004Y79005D01*
X200010Y17941D02*
X200211Y18142D01*
X206510D01*
X152510Y32272D02*
Y32941D01*
Y26500D02*
Y32272D01*
X179510Y164000D02*
Y170000D01*
X174774Y174736D02*
X179510Y170000D01*
X158630Y174736D02*
X174774D01*
X157459Y173565D02*
X158630Y174736D01*
X157459Y170622D02*
Y173565D01*
Y170622D02*
X157510Y170571D01*
X144510Y163043D02*
X145675Y164209D01*
X146148D01*
X151345Y169405D01*
X152014D01*
X152510Y169902D01*
X114427Y78850D02*
X114510Y78768D01*
X98510Y78850D02*
X114427D01*
X114409Y112131D02*
X114510Y112232D01*
X98510Y112131D02*
X114409D01*
X177278Y112232D02*
X178301Y111209D01*
X116463Y84226D02*
X119291D01*
X114510Y82274D02*
X116463Y84226D01*
X114510Y78768D02*
Y82274D01*
X159267Y104500D02*
X167193D01*
X172365Y99328D01*
X147708Y92941D02*
X159267Y104500D01*
X135010Y92941D02*
X147708D01*
X135010Y82941D02*
X141951D01*
X160510Y101500D01*
X165739D01*
X170138Y97101D01*
X164905Y82500D02*
X167813Y85408D01*
X167911D01*
X159089Y69369D02*
X159390D01*
X158272Y68551D02*
X159089Y69369D01*
X157459Y68551D02*
X158272D01*
X159390Y69369D02*
X164015Y73994D01*
X159004Y79005D02*
X161508D01*
X164015Y73994D02*
Y77059D01*
X170138Y83181D01*
X230010Y24157D02*
X230010Y24157D01*
Y31488D01*
X222177Y24835D02*
Y31488D01*
X214343Y24157D02*
Y31488D01*
X206510Y24835D02*
X206510Y24835D01*
X206510Y24835D02*
Y31488D01*
X152510Y7506D02*
X153682Y6335D01*
X152510Y7506D02*
Y10500D01*
Y145500D02*
X154045Y143965D01*
X152510Y145500D02*
Y148130D01*
X144510Y155957D02*
X152181D01*
X157014Y151124D01*
Y148626D02*
Y151124D01*
Y148626D02*
X157510Y148130D01*
X162510D01*
X144510Y18177D02*
X152553D01*
X157510Y13220D01*
Y10500D02*
Y13220D01*
Y10500D02*
X162510D01*
X144510Y25264D02*
X145675Y26429D01*
X145998D01*
X151345Y31776D01*
X152014D01*
X152510Y32272D01*
D89*
X253978Y138736D02*
Y145331D01*
D90*
X102955Y154500D02*
X104010Y153445D01*
X63106Y144045D02*
X73561Y154500D01*
X63106Y130316D02*
Y144045D01*
X58789Y126000D02*
X63106Y130316D01*
X16061Y147020D02*
Y149551D01*
X15600Y146559D02*
X16061Y147020D01*
X15010Y146559D02*
X15600D01*
X104010Y153445D02*
X105160Y152295D01*
X104010Y153445D02*
Y155413D01*
X127510Y161500D02*
X128026D01*
X129569Y163043D01*
X144510D01*
X119423Y169587D02*
X127510Y161500D01*
X104010Y169587D02*
X119423D01*
X73561Y154500D02*
X102955D01*
X33797D02*
X73561D01*
X33797Y164500D02*
X43010D01*
X30778Y164268D02*
Y164433D01*
X16061Y149551D02*
X30778Y164268D01*
Y164433D02*
X33731D01*
X16061Y137102D02*
X21230Y131933D01*
X16061Y137102D02*
Y139602D01*
X15600Y140063D02*
X16061Y139602D01*
X15010Y140063D02*
X15600D01*
X21230Y126000D02*
Y131933D01*
X30778Y141480D01*
Y144433D01*
X30845Y144500D01*
X33797D01*
X21230Y126000D02*
X40510Y106720D01*
Y47000D02*
Y106720D01*
X104010Y171555D02*
X105160Y172705D01*
X104010Y169587D02*
Y171555D01*
X33731Y164433D02*
X33797Y164500D01*
X60283Y64273D02*
X74051D01*
X54010Y58000D02*
X60283Y64273D01*
X54010Y47000D02*
Y58000D01*
X74051Y64273D02*
X78711Y68933D01*
Y72280D01*
X79663Y73232D01*
X83010D01*
X82904Y89661D02*
X83010Y89768D01*
X67510Y89661D02*
X82904D01*
X66754Y73094D02*
X67510Y72339D01*
X62148Y73094D02*
X66754D01*
X51510Y83733D02*
X62148Y73094D01*
D91*
X234838Y118773D02*
X236283D01*
X234566Y119045D02*
X234838Y118773D01*
X233323Y119045D02*
X234566D01*
X230510Y116232D02*
X233323Y119045D01*
X230510Y112833D02*
Y116232D01*
X220186Y102509D02*
X230510Y112833D01*
X231283Y122328D02*
Y123773D01*
Y122328D02*
X231555Y122056D01*
Y120813D02*
Y122056D01*
X228010Y117268D02*
X231555Y120813D01*
X228010Y113868D02*
Y117268D01*
X220186Y102284D02*
Y102509D01*
X217464Y99561D02*
X220186Y102284D01*
X217464Y99328D02*
Y99561D01*
X218419Y104277D02*
X228010Y113868D01*
X218193Y104277D02*
X218419D01*
X215470Y101555D02*
X218193Y104277D01*
X215237Y101555D02*
X215470D01*
X240465Y124944D02*
Y126187D01*
Y124944D02*
X240737Y124672D01*
X240465Y126187D02*
X245366Y131088D01*
X240737Y123227D02*
Y124672D01*
X238697Y127955D02*
X244331Y133588D01*
X237454Y127955D02*
X238697D01*
X237182Y128227D02*
X237454Y127955D01*
X235737Y128227D02*
X237182D01*
X253957Y131080D02*
X253978Y131059D01*
X250596Y131080D02*
X253957D01*
X250588Y131088D02*
X250596Y131080D01*
X245366Y131088D02*
X250588D01*
X253957Y133596D02*
X253978Y133618D01*
X250596Y133596D02*
X253957D01*
X250588Y133588D02*
X250596Y133596D01*
X244331Y133588D02*
X250588D01*
X210783Y106009D02*
X215482Y110708D01*
Y115584D01*
X215283Y115782D02*
X215482Y115584D01*
X215283Y115782D02*
Y116670D01*
X215561Y116949D01*
D92*
X40510Y47000D02*
D03*
X27010D02*
D03*
X54010D02*
D03*
X9510Y40750D02*
D03*
Y53250D02*
D03*
X71510Y40750D02*
D03*
Y53250D02*
D03*
X51510Y83733D02*
D03*
D93*
Y103733D02*
D03*
D94*
X11510Y72079D02*
D03*
Y115386D02*
D03*
D95*
X260943Y168236D02*
D03*
X12715D02*
D03*
Y12724D02*
D03*
X260746D02*
D03*
D96*
X127510Y151500D02*
D03*
X179510Y16721D02*
D03*
Y154000D02*
D03*
X135010Y82941D02*
D03*
X262510Y105648D02*
D03*
D97*
X127510Y161500D02*
D03*
X179510Y26720D02*
D03*
Y164000D02*
D03*
X228642Y159303D02*
D03*
X218642Y169303D02*
D03*
Y159303D02*
D03*
X208642Y169303D02*
D03*
Y159303D02*
D03*
X135010Y92941D02*
D03*
X262510Y95648D02*
D03*
Y85648D02*
D03*
Y75648D02*
D03*
Y65648D02*
D03*
Y55648D02*
D03*
Y45648D02*
D03*
Y35648D02*
D03*
D98*
X21230Y126000D02*
D03*
X58789D02*
D03*
D99*
X228642Y169303D02*
D03*
D100*
X247010Y146500D02*
D03*
X228642Y151000D02*
D03*
X109010Y95500D02*
D03*
X147708Y116281D02*
D03*
X206282Y98000D02*
D03*
X206904Y58500D02*
D03*
X235510Y63500D02*
D03*
X189596Y104500D02*
D03*
X199010Y75000D02*
D03*
X113010Y133500D02*
D03*
X43010Y164500D02*
D03*
X205510Y84000D02*
D03*
X206510Y90000D02*
D03*
X211010Y94000D02*
D03*
X132510Y19000D02*
D03*
Y37000D02*
D03*
X85010D02*
D03*
Y19000D02*
D03*
X103010Y37000D02*
D03*
Y19000D02*
D03*
X114660Y37000D02*
D03*
X114510Y19000D02*
D03*
X158010Y124000D02*
D03*
X175510D02*
D03*
X170510Y47000D02*
D03*
X191010Y44374D02*
D03*
X198010Y144000D02*
D03*
X208642Y151000D02*
D03*
X202010Y79500D02*
D03*
X179010Y94500D02*
D03*
X191010Y77500D02*
D03*
X162510Y164209D02*
D03*
X183501Y97101D02*
D03*
X167510Y157500D02*
D03*
X195010Y109000D02*
D03*
X167510Y16500D02*
D03*
Y38500D02*
D03*
X171010Y63500D02*
D03*
X162510Y153500D02*
D03*
X152510Y164000D02*
D03*
X155010Y82941D02*
D03*
X200010Y17941D02*
D03*
X152510Y26500D02*
D03*
M02*
