G04*
G04 #@! TF.GenerationSoftware,Altium Limited,Altium Designer,19.0.12 (326)*
G04*
G04 Layer_Color=65535*
%FSLAX25Y25*%
%MOIN*%
G70*
G01*
G75*
%ADD10C,0.00394*%
%ADD11C,0.00984*%
%ADD12C,0.00800*%
%ADD13C,0.02362*%
%ADD14C,0.01000*%
%ADD15C,0.00787*%
%ADD16C,0.00500*%
%ADD17R,0.00650X0.02300*%
%ADD18R,0.06700X0.01800*%
%ADD19R,0.00730X0.02560*%
D10*
X249945Y128500D02*
D03*
D11*
X34290Y168732D02*
X33551Y169158D01*
Y168306D01*
X34290Y168732D01*
X153002Y143799D02*
X152264Y144225D01*
Y143373D01*
X153002Y143799D01*
Y6169D02*
X152264Y6595D01*
Y5743D01*
X153002Y6169D01*
X110427Y45952D02*
X109689Y46378D01*
Y45526D01*
X110427Y45952D01*
X108077Y10208D02*
X107339Y10634D01*
Y9782D01*
X108077Y10208D01*
X115002Y65776D02*
X114264Y66202D01*
Y65349D01*
X115002Y65776D01*
X224777Y92507D02*
X224039Y92934D01*
Y92081D01*
X224777Y92507D01*
D12*
X224277Y15182D02*
X225127Y16032D01*
X219227D02*
X220077Y15182D01*
X225127Y26944D02*
X224277Y27794D01*
X220077D02*
X219227Y26944D01*
X208610Y15182D02*
X209460Y16032D01*
X203560D02*
X204410Y15182D01*
X209460Y26944D02*
X208610Y27794D01*
X204410D02*
X203560Y26944D01*
X220077Y15182D02*
X224277D01*
X220077Y27794D02*
X224277D01*
X225127Y16032D02*
Y26944D01*
X219227Y16032D02*
Y26944D01*
X204410Y15182D02*
X208610D01*
X204410Y27794D02*
X208610D01*
X209460Y16032D02*
Y26944D01*
X203560Y16032D02*
Y26944D01*
X199310Y156305D02*
X200976Y157138D01*
X202642Y158804D01*
Y160470D01*
X201809Y161303D01*
X200143D01*
X199310Y160470D01*
Y159637D01*
X200143Y158804D01*
X202642D01*
X199310Y166305D02*
X202642D01*
Y168804D01*
X200976Y167971D01*
X200143D01*
X199310Y168804D01*
Y170470D01*
X200143Y171303D01*
X201809D01*
X202642Y170470D01*
X235310Y161303D02*
X238642D01*
X235310Y157971D01*
Y157138D01*
X236143Y156305D01*
X237809D01*
X238642Y157138D01*
X236642Y171303D02*
X234976D01*
X235809D01*
Y166305D01*
X236642Y167138D01*
D13*
X214191Y90141D02*
X213746Y91065D01*
X212747Y91293D01*
X211946Y90654D01*
Y89629D01*
X212747Y88990D01*
X213746Y89218D01*
X214191Y90141D01*
D14*
X73510Y89000D02*
Y89500D01*
X1010Y75233D02*
X7010D01*
X1010Y111733D02*
X7010D01*
X1010Y75233D02*
Y111733D01*
X16010Y75233D02*
X36510D01*
X16010Y111733D02*
X36510D01*
X214510Y153500D02*
Y154000D01*
X222510Y150000D02*
Y154000D01*
X214510Y150000D02*
X222510D01*
X214510D02*
Y153500D01*
X25510Y25500D02*
X78010D01*
X23010Y178000D02*
X250510Y178000D01*
X25510Y3000D02*
X250510Y3000D01*
X65010Y122598D02*
Y128596D01*
X68009D01*
X69009Y127596D01*
Y125597D01*
X68009Y124597D01*
X65010D01*
X71008Y128596D02*
Y122598D01*
X73007Y124597D01*
X75007Y122598D01*
Y128596D01*
X77006Y122598D02*
Y128596D01*
X80005D01*
X81005Y127596D01*
Y125597D01*
X80005Y124597D01*
X77006D01*
X79005D02*
X81005Y122598D01*
X68009Y118998D02*
X66010D01*
X65010Y117998D01*
Y114000D01*
X66010Y113000D01*
X68009D01*
X69009Y114000D01*
Y117998D01*
X68009Y118998D01*
X71008Y113000D02*
Y118998D01*
X75007Y113000D01*
Y118998D01*
X3010Y96731D02*
X7009Y90733D01*
Y96731D02*
X3010Y90733D01*
X9008Y96731D02*
X13007D01*
X11007D01*
Y90733D01*
X15006Y95731D02*
X16006Y96731D01*
X18005D01*
X19005Y95731D01*
Y94731D01*
X18005Y93732D01*
X17006D01*
X18005D01*
X19005Y92732D01*
Y91732D01*
X18005Y90733D01*
X16006D01*
X15006Y91732D01*
X21004Y95731D02*
X22004Y96731D01*
X24003D01*
X25003Y95731D01*
Y91732D01*
X24003Y90733D01*
X22004D01*
X21004Y91732D01*
Y95731D01*
X27002Y90733D02*
Y96731D01*
X30001D01*
X31001Y95731D01*
Y93732D01*
X30001Y92732D01*
X27002D01*
X33000Y96731D02*
Y90733D01*
X35000Y92732D01*
X36999Y90733D01*
Y96731D01*
X38998Y93732D02*
X42997D01*
X44996Y90733D02*
Y96731D01*
X46996Y94731D01*
X48995Y96731D01*
Y90733D01*
X112010Y64498D02*
Y58500D01*
X115009D01*
X116009Y59500D01*
Y60499D01*
X115009Y61499D01*
X112010D01*
X115009D01*
X116009Y62499D01*
Y63498D01*
X115009Y64498D01*
X112010D01*
X118008D02*
X122007D01*
X120007D01*
Y58500D01*
X124006D02*
Y64498D01*
X128005Y58500D01*
Y64498D01*
X136002D02*
Y58500D01*
X139001D01*
X140001Y59500D01*
Y60499D01*
X139001Y61499D01*
X136002D01*
X139001D01*
X140001Y62499D01*
Y63498D01*
X139001Y64498D01*
X136002D01*
X78010D02*
Y58500D01*
X81009D01*
X82009Y59500D01*
Y60499D01*
X81009Y61499D01*
X78010D01*
X81009D01*
X82009Y62499D01*
Y63498D01*
X81009Y64498D01*
X78010D01*
X84008D02*
X88007D01*
X86007D01*
Y58500D01*
X90006D02*
Y64498D01*
X94005Y58500D01*
Y64498D01*
X102002Y58500D02*
Y62499D01*
X104002Y64498D01*
X106001Y62499D01*
Y58500D01*
Y61499D01*
X102002D01*
X233510Y141502D02*
X231511D01*
X232510D01*
Y147500D01*
X233510D01*
X231511D01*
X224513Y142502D02*
X225513Y141502D01*
X227512D01*
X228512Y142502D01*
Y143501D01*
X227512Y144501D01*
X225513D01*
X224513Y145501D01*
Y146500D01*
X225513Y147500D01*
X227512D01*
X228512Y146500D01*
X222514Y147500D02*
Y141502D01*
X219514D01*
X218515Y142502D01*
Y144501D01*
X219514Y145501D01*
X222514D01*
X229010Y5500D02*
X231010D01*
X230010D01*
Y11498D01*
X229010Y10498D01*
X224176Y5500D02*
X220178D01*
X224176Y9499D01*
Y10498D01*
X223177Y11498D01*
X221177D01*
X220178Y10498D01*
X212344D02*
X213344Y11498D01*
X215343D01*
X216343Y10498D01*
Y9499D01*
X215343Y8499D01*
X214343D01*
X215343D01*
X216343Y7499D01*
Y6500D01*
X215343Y5500D01*
X213344D01*
X212344Y6500D01*
X207510Y5500D02*
Y11498D01*
X204511Y8499D01*
X208509D01*
X194010Y128407D02*
X188012D01*
X190011Y130406D01*
X188012Y132405D01*
X194010D01*
X188012Y137404D02*
Y135404D01*
X189012Y134405D01*
X193010D01*
X194010Y135404D01*
Y137404D01*
X193010Y138403D01*
X189012D01*
X188012Y137404D01*
Y140403D02*
Y144402D01*
Y142402D01*
X194010D01*
X188012Y149400D02*
Y147400D01*
X189012Y146401D01*
X193010D01*
X194010Y147400D01*
Y149400D01*
X193010Y150399D01*
X189012D01*
X188012Y149400D01*
X194010Y152399D02*
X188012D01*
Y155398D01*
X189012Y156398D01*
X191011D01*
X192011Y155398D01*
Y152399D01*
Y154398D02*
X194010Y156398D01*
X188012Y164395D02*
X194010D01*
Y167394D01*
X193010Y168394D01*
X192011D01*
X191011Y167394D01*
Y164395D01*
Y167394D01*
X190011Y168394D01*
X189012D01*
X188012Y167394D01*
Y164395D01*
X194010Y12327D02*
X188012D01*
X190011Y14326D01*
X188012Y16326D01*
X194010D01*
X188012Y21324D02*
Y19324D01*
X189012Y18325D01*
X193010D01*
X194010Y19324D01*
Y21324D01*
X193010Y22324D01*
X189012D01*
X188012Y21324D01*
Y24323D02*
Y28322D01*
Y26322D01*
X194010D01*
X188012Y33320D02*
Y31321D01*
X189012Y30321D01*
X193010D01*
X194010Y31321D01*
Y33320D01*
X193010Y34320D01*
X189012D01*
X188012Y33320D01*
X194010Y36319D02*
X188012D01*
Y39318D01*
X189012Y40318D01*
X191011D01*
X192011Y39318D01*
Y36319D01*
Y38318D02*
X194010Y40318D01*
Y48315D02*
X190011D01*
X188012Y50314D01*
X190011Y52314D01*
X194010D01*
X191011D01*
Y48315D01*
X127510Y118500D02*
Y124498D01*
X130509D01*
X131509Y123498D01*
Y121499D01*
X130509Y120499D01*
X127510D01*
X129509D02*
X131509Y118500D01*
X137507Y124498D02*
X133508D01*
Y118500D01*
X137507D01*
X133508Y121499D02*
X135507D01*
X143505Y123498D02*
X142505Y124498D01*
X140506D01*
X139506Y123498D01*
Y122499D01*
X140506Y121499D01*
X142505D01*
X143505Y120499D01*
Y119500D01*
X142505Y118500D01*
X140506D01*
X139506Y119500D01*
X149503Y124498D02*
X145504D01*
Y118500D01*
X149503D01*
X145504Y121499D02*
X147503D01*
X151502Y124498D02*
X155501D01*
X153502D01*
Y118500D01*
X119038Y172499D02*
X123036D01*
X121037Y174498D02*
Y170500D01*
X129034Y175498D02*
X125036D01*
Y172499D01*
X127035Y173499D01*
X128035D01*
X129034Y172499D01*
Y170500D01*
X128035Y169500D01*
X126035D01*
X125036Y170500D01*
X248512Y35253D02*
X247512Y34254D01*
Y32254D01*
X248512Y31255D01*
X249511D01*
X250511Y32254D01*
Y34254D01*
X251511Y35253D01*
X252510D01*
X253510Y34254D01*
Y32254D01*
X252510Y31255D01*
X253510Y40252D02*
Y38252D01*
X252510Y37253D01*
X250511D01*
X249511Y38252D01*
Y40252D01*
X250511Y41251D01*
X251511D01*
Y37253D01*
X253510Y43251D02*
X249511D01*
Y46250D01*
X250511Y47249D01*
X253510D01*
Y49249D02*
Y52248D01*
X252510Y53248D01*
X251511Y52248D01*
Y50248D01*
X250511Y49249D01*
X249511Y50248D01*
Y53248D01*
X253510Y56247D02*
Y58246D01*
X252510Y59246D01*
X250511D01*
X249511Y58246D01*
Y56247D01*
X250511Y55247D01*
X252510D01*
X253510Y56247D01*
X249511Y61245D02*
X253510D01*
X251511D01*
X250511Y62245D01*
X249511Y63244D01*
Y64244D01*
X253510Y73241D02*
X249511D01*
X247512Y75240D01*
X249511Y77240D01*
X253510D01*
X250511D01*
Y73241D01*
X249511Y79239D02*
X253510D01*
X251511D01*
X250511Y80239D01*
X249511Y81239D01*
Y82238D01*
Y85237D02*
X253510D01*
X251511D01*
X250511Y86237D01*
X249511Y87236D01*
Y88236D01*
Y92235D02*
Y94234D01*
X250511Y95234D01*
X253510D01*
Y92235D01*
X252510Y91235D01*
X251511Y92235D01*
Y95234D01*
X249511Y97233D02*
X252510D01*
X253510Y98233D01*
Y101232D01*
X254510D01*
X255509Y100232D01*
Y99233D01*
X253510Y101232D02*
X249511D01*
X143259Y76945D02*
X148258D01*
X149257Y77944D01*
Y79944D01*
X148258Y80943D01*
X143259D01*
X149257Y82943D02*
X145258D01*
X143259Y84942D01*
X145258Y86941D01*
X149257D01*
X146258D01*
Y82943D01*
X149257Y88941D02*
X143259D01*
Y91940D01*
X144259Y92939D01*
X146258D01*
X147258Y91940D01*
Y88941D01*
Y90940D02*
X149257Y92939D01*
X143259Y94939D02*
Y98937D01*
Y96938D01*
X149257D01*
X32509Y21498D02*
X31509Y22498D01*
X29510D01*
X28510Y21498D01*
Y17500D01*
X29510Y16500D01*
X31509D01*
X32509Y17500D01*
Y19499D01*
X30509D01*
X34508Y20499D02*
Y16500D01*
Y18499D01*
X35508Y19499D01*
X36507Y20499D01*
X37507D01*
X41506Y16500D02*
X43505D01*
X44505Y17500D01*
Y19499D01*
X43505Y20499D01*
X41506D01*
X40506Y19499D01*
Y17500D01*
X41506Y16500D01*
X46504Y20499D02*
Y17500D01*
X47504Y16500D01*
X50503D01*
Y20499D01*
X52502Y14501D02*
Y20499D01*
X55501D01*
X56501Y19499D01*
Y17500D01*
X55501Y16500D01*
X52502D01*
X64498Y22498D02*
Y16500D01*
X67497D01*
X68497Y17500D01*
Y18499D01*
X67497Y19499D01*
X64498D01*
X67497D01*
X68497Y20499D01*
Y21498D01*
X67497Y22498D01*
X64498D01*
X73495Y16500D02*
Y22498D01*
X70496Y19499D01*
X74495D01*
X32509Y11998D02*
X28510D01*
Y6000D01*
X32509D01*
X28510Y8999D02*
X30509D01*
X38507Y10998D02*
X37507Y11998D01*
X35508D01*
X34508Y10998D01*
Y7000D01*
X35508Y6000D01*
X37507D01*
X38507Y7000D01*
Y8999D01*
X36507D01*
X40506Y11998D02*
Y6000D01*
X43505D01*
X44505Y7000D01*
Y7999D01*
X43505Y8999D01*
X40506D01*
X43505D01*
X44505Y9999D01*
Y10998D01*
X43505Y11998D01*
X40506D01*
X50503Y6000D02*
X46504D01*
X50503Y9999D01*
Y10998D01*
X49503Y11998D01*
X47504D01*
X46504Y10998D01*
X56501Y6000D02*
X52502D01*
X56501Y9999D01*
Y10998D01*
X55501Y11998D01*
X53502D01*
X52502Y10998D01*
X58500D02*
X59500Y11998D01*
X61499D01*
X62499Y10998D01*
Y7000D01*
X61499Y6000D01*
X59500D01*
X58500Y7000D01*
Y10998D01*
X243510Y109500D02*
X239269Y113741D01*
X241389Y115862D01*
X242803D01*
X244217Y114448D01*
Y113034D01*
X242096Y110914D01*
X243510Y112328D02*
X246338D01*
X247751Y113741D02*
X249165Y115155D01*
X248458Y114448D01*
X244217Y118689D01*
Y117276D01*
X159510Y143498D02*
Y138500D01*
X160510Y137500D01*
X162509D01*
X163509Y138500D01*
Y143498D01*
X168507Y137500D02*
Y143498D01*
X165508Y140499D01*
X169507D01*
X150310Y44598D02*
Y39600D01*
X151310Y38600D01*
X153309D01*
X154309Y39600D01*
Y44598D01*
X156308Y43598D02*
X157308Y44598D01*
X159307D01*
X160307Y43598D01*
Y42599D01*
X159307Y41599D01*
X158307D01*
X159307D01*
X160307Y40599D01*
Y39600D01*
X159307Y38600D01*
X157308D01*
X156308Y39600D01*
X16010Y157498D02*
Y152500D01*
X17010Y151500D01*
X19009D01*
X20009Y152500D01*
Y157498D01*
X26007Y151500D02*
X22008D01*
X26007Y155499D01*
Y156498D01*
X25007Y157498D01*
X23008D01*
X22008Y156498D01*
X23009Y71498D02*
X22009Y72498D01*
X20010D01*
X19010Y71498D01*
Y70499D01*
X20010Y69499D01*
X22009D01*
X23009Y68499D01*
Y67500D01*
X22009Y66500D01*
X20010D01*
X19010Y67500D01*
X25008Y72498D02*
Y66500D01*
X27007Y68499D01*
X29007Y66500D01*
Y72498D01*
X35005D02*
X31006D01*
Y69499D01*
X33005Y70499D01*
X34005D01*
X35005Y69499D01*
Y67500D01*
X34005Y66500D01*
X32006D01*
X31006Y67500D01*
X91510Y112500D02*
X85512D01*
Y115499D01*
X86512Y116499D01*
X88511D01*
X89511Y115499D01*
Y112500D01*
Y114499D02*
X91510Y116499D01*
Y118498D02*
Y120497D01*
Y119498D01*
X85512D01*
X86512Y118498D01*
Y123496D02*
X85512Y124496D01*
Y126496D01*
X86512Y127495D01*
X90510D01*
X91510Y126496D01*
Y124496D01*
X90510Y123496D01*
X86512D01*
X209510Y41900D02*
X203512D01*
Y44899D01*
X204512Y45899D01*
X206511D01*
X207511Y44899D01*
Y41900D01*
Y43899D02*
X209510Y45899D01*
X208510Y47898D02*
X209510Y48898D01*
Y50897D01*
X208510Y51897D01*
X204512D01*
X203512Y50897D01*
Y48898D01*
X204512Y47898D01*
X205511D01*
X206511Y48898D01*
Y51897D01*
X217310Y41900D02*
X211312D01*
Y44899D01*
X212312Y45899D01*
X214311D01*
X215311Y44899D01*
Y41900D01*
Y43899D02*
X217310Y45899D01*
X212312Y47898D02*
X211312Y48898D01*
Y50897D01*
X212312Y51897D01*
X213311D01*
X214311Y50897D01*
X215311Y51897D01*
X216310D01*
X217310Y50897D01*
Y48898D01*
X216310Y47898D01*
X215311D01*
X214311Y48898D01*
X213311Y47898D01*
X212312D01*
X214311Y48898D02*
Y50897D01*
X225210Y41900D02*
X219212D01*
Y44899D01*
X220212Y45899D01*
X222211D01*
X223211Y44899D01*
Y41900D01*
Y43899D02*
X225210Y45899D01*
X219212Y47898D02*
Y51897D01*
X220212D01*
X224210Y47898D01*
X225210D01*
X233010Y41900D02*
X227012D01*
Y44899D01*
X228012Y45899D01*
X230011D01*
X231011Y44899D01*
Y41900D01*
Y43899D02*
X233010Y45899D01*
X227012Y51897D02*
X228012Y49897D01*
X230011Y47898D01*
X232010D01*
X233010Y48898D01*
Y50897D01*
X232010Y51897D01*
X231011D01*
X230011Y50897D01*
Y47898D01*
X225510Y126974D02*
X221269Y131216D01*
X223389Y133336D01*
X224803D01*
X226217Y131922D01*
Y130509D01*
X224096Y128388D01*
X225510Y129802D02*
X228338D01*
X226217Y134750D02*
Y136164D01*
X227631Y137577D01*
X229044D01*
X229751Y136871D01*
Y135457D01*
X229044Y134750D01*
X229751Y135457D01*
X231165D01*
X231872Y134750D01*
Y133336D01*
X230458Y131922D01*
X229044D01*
X136010Y144000D02*
Y149998D01*
X139009D01*
X140009Y148998D01*
Y146999D01*
X139009Y145999D01*
X136010D01*
X138009D02*
X140009Y144000D01*
X146007D02*
X142008D01*
X146007Y147999D01*
Y148998D01*
X145007Y149998D01*
X143008D01*
X142008Y148998D01*
X234269Y60241D02*
X238510Y56000D01*
X241337Y58828D01*
X245579Y63069D02*
X242751Y60241D01*
Y65896D01*
X242044Y66603D01*
X240631D01*
X239217Y65189D01*
Y63776D01*
X145269Y62741D02*
X149510Y58500D01*
X152338Y61327D01*
X153751Y62741D02*
X155165Y64155D01*
X154458Y63448D01*
X150217Y67689D01*
Y66276D01*
X249009Y158498D02*
X247009D01*
X248009D01*
Y153500D01*
X247009Y152500D01*
X246010D01*
X245010Y153500D01*
X251008Y152500D02*
X253007D01*
X252008D01*
Y158498D01*
X251008Y157498D01*
X81309Y102098D02*
X77310D01*
Y99099D01*
X79309D01*
X77310D01*
Y96100D01*
X83308D02*
X85307D01*
X84308D01*
Y102098D01*
X83308Y101098D01*
X4810Y128998D02*
Y123000D01*
X7809D01*
X8809Y124000D01*
Y127998D01*
X7809Y128998D01*
X4810D01*
X14807Y123000D02*
X10808D01*
X14807Y126999D01*
Y127998D01*
X13807Y128998D01*
X11808D01*
X10808Y127998D01*
X63610Y101798D02*
Y95800D01*
X66609D01*
X67609Y96800D01*
Y100798D01*
X66609Y101798D01*
X63610D01*
X69608Y95800D02*
X71607D01*
X70608D01*
Y101798D01*
X69608Y100798D01*
X136509Y174498D02*
X135509Y175498D01*
X133510D01*
X132510Y174498D01*
Y170500D01*
X133510Y169500D01*
X135509D01*
X136509Y170500D01*
X138508Y169500D02*
X140507D01*
X139508D01*
Y175498D01*
X138508Y174498D01*
X143506D02*
X144506Y175498D01*
X146505D01*
X147505Y174498D01*
Y170500D01*
X146505Y169500D01*
X144506D01*
X143506Y170500D01*
Y174498D01*
X141509Y37498D02*
X140509Y38498D01*
X138510D01*
X137510Y37498D01*
Y33500D01*
X138510Y32500D01*
X140509D01*
X141509Y33500D01*
X143508D02*
X144508Y32500D01*
X146507D01*
X147507Y33500D01*
Y37498D01*
X146507Y38498D01*
X144508D01*
X143508Y37498D01*
Y36499D01*
X144508Y35499D01*
X147507D01*
X7509Y156498D02*
X6509Y157498D01*
X4510D01*
X3510Y156498D01*
Y152500D01*
X4510Y151500D01*
X6509D01*
X7509Y152500D01*
X9508Y156498D02*
X10508Y157498D01*
X12507D01*
X13507Y156498D01*
Y155499D01*
X12507Y154499D01*
X13507Y153499D01*
Y152500D01*
X12507Y151500D01*
X10508D01*
X9508Y152500D01*
Y153499D01*
X10508Y154499D01*
X9508Y155499D01*
Y156498D01*
X10508Y154499D02*
X12507D01*
X98509Y147498D02*
X97509Y148498D01*
X95510D01*
X94510Y147498D01*
Y143500D01*
X95510Y142500D01*
X97509D01*
X98509Y143500D01*
X100508Y148498D02*
X104507D01*
Y147498D01*
X100508Y143500D01*
Y142500D01*
X210803Y125362D02*
X209389D01*
X207976Y123948D01*
Y122534D01*
X210803Y119707D01*
X212217D01*
X213631Y121121D01*
Y122534D01*
X214337Y130310D02*
X213631Y128189D01*
Y125362D01*
X215044Y123948D01*
X216458D01*
X217872Y125362D01*
Y126776D01*
X217165Y127482D01*
X215751D01*
X213631Y125362D01*
X228303Y90862D02*
X226889D01*
X225476Y89448D01*
Y88034D01*
X228303Y85207D01*
X229717D01*
X231131Y86621D01*
Y88034D01*
X231838Y95810D02*
X229010Y92983D01*
X231131Y90862D01*
X231838Y92983D01*
X232544Y93689D01*
X233958D01*
X235372Y92276D01*
Y90862D01*
X233958Y89448D01*
X232544D01*
X158803Y62862D02*
X157389D01*
X155976Y61448D01*
Y60034D01*
X158803Y57207D01*
X160217D01*
X161631Y58621D01*
Y60034D01*
X165872Y62862D02*
X161631Y67103D01*
Y62862D01*
X164458Y65689D01*
X219370Y69862D02*
X217956D01*
X216542Y68448D01*
Y67034D01*
X219370Y64207D01*
X220783D01*
X222197Y65621D01*
Y67034D01*
X220783Y71276D02*
Y72689D01*
X222197Y74103D01*
X223611D01*
X224318Y73396D01*
Y71983D01*
X223611Y71276D01*
X224318Y71983D01*
X225732D01*
X226438Y71276D01*
Y69862D01*
X225025Y68448D01*
X223611D01*
X96509Y99498D02*
X95509Y100498D01*
X93510D01*
X92510Y99498D01*
Y95500D01*
X93510Y94500D01*
X95509D01*
X96509Y95500D01*
X102507Y94500D02*
X98508D01*
X102507Y98499D01*
Y99498D01*
X101507Y100498D01*
X99508D01*
X98508Y99498D01*
X98009Y72998D02*
X97009Y73998D01*
X95010D01*
X94010Y72998D01*
Y69000D01*
X95010Y68000D01*
X97009D01*
X98009Y69000D01*
X100008Y68000D02*
X102007D01*
X101008D01*
Y73998D01*
X100008Y72998D01*
D15*
X259195Y149366D02*
X260376D01*
X276124Y117870D02*
Y149366D01*
X268644D02*
X276124D01*
X268644Y117870D02*
X276124D01*
X259195D02*
X260376D01*
X46002Y134028D02*
X58404D01*
X46002D02*
Y174972D01*
X58404D01*
X95152Y171358D02*
X99286D01*
X108734D02*
X112868D01*
X95152Y156398D02*
Y171358D01*
Y156398D02*
X97908Y153642D01*
X99286D01*
X112868Y156398D02*
Y171358D01*
X110112Y153642D02*
X112868Y156398D01*
X108734Y153642D02*
X110112D01*
X149774Y151268D02*
Y167433D01*
X170246Y151268D02*
Y167433D01*
X146282Y159303D02*
Y159697D01*
X142738Y159303D02*
Y159697D01*
X136435Y135803D02*
Y136197D01*
X139585Y135803D02*
Y136197D01*
X216396Y114165D02*
X216675Y113886D01*
X218345Y116114D02*
X218623Y115835D01*
X232257Y126974D02*
X232536Y127253D01*
X234484Y124747D02*
X234763Y125026D01*
X237257Y121974D02*
X237536Y122253D01*
X239484Y119747D02*
X239763Y120026D01*
X231618Y82114D02*
X231896Y82392D01*
X234123Y79608D02*
X234402Y79887D01*
X230624Y62608D02*
X230902Y62886D01*
X228118Y65114D02*
X228396Y65392D01*
X146282Y21524D02*
Y21917D01*
X142738Y21524D02*
Y21917D01*
X162624Y77892D02*
X162902Y77614D01*
X160118Y75387D02*
X160396Y75108D01*
X117813Y55575D02*
X118207D01*
X117813Y52425D02*
X118207D01*
X99514D02*
X99907D01*
X99514Y55575D02*
X99907D01*
X100085Y81803D02*
Y82197D01*
X96935Y81803D02*
Y82197D01*
X100085Y108785D02*
Y109178D01*
X96935Y108785D02*
Y109178D01*
X84886Y106122D02*
X85280D01*
X84886Y108878D02*
X85280D01*
X122510Y166500D02*
X132510D01*
Y146500D02*
Y166500D01*
X122510Y146500D02*
X132510D01*
X122510D02*
Y166500D01*
X228829Y15102D02*
X231191D01*
X213162D02*
X215524D01*
X174510Y31721D02*
X184510D01*
Y11721D02*
Y31721D01*
X174510Y11721D02*
X184510D01*
X174510D02*
Y31721D01*
X149774Y13638D02*
Y29803D01*
X170246Y13638D02*
Y29803D01*
X174510Y169000D02*
X184510D01*
Y149000D02*
Y169000D01*
X174510Y149000D02*
X184510D01*
X174510D02*
Y169000D01*
X30856Y130626D02*
X49163D01*
X30856Y121374D02*
Y130626D01*
Y121374D02*
X49163D01*
Y130626D01*
Y126000D02*
X54163D01*
X25857D02*
X30856D01*
X35857Y121374D02*
Y130626D01*
X62982Y106319D02*
Y108681D01*
X111699Y39814D02*
X135321D01*
X111699Y16192D02*
Y39814D01*
Y16192D02*
X135321D01*
Y39814D01*
X82199Y16346D02*
X105821D01*
Y39968D01*
X82199D02*
X105821D01*
X82199Y16346D02*
Y39968D01*
X228632Y34047D02*
Y34441D01*
X231388Y34047D02*
Y34441D01*
X223555Y34047D02*
Y34441D01*
X220799Y34047D02*
Y34441D01*
X212965Y34047D02*
Y34441D01*
X215721Y34047D02*
Y34441D01*
X207888Y34047D02*
Y34441D01*
X205132Y34047D02*
Y34441D01*
X105002Y73650D02*
Y117350D01*
X124018Y73650D02*
Y117350D01*
X119038Y73650D02*
X124018D01*
X105002D02*
X109982D01*
X119038Y117350D02*
X124018D01*
X105002D02*
X109982D01*
X203642Y154303D02*
Y174303D01*
X233642Y154303D02*
Y174303D01*
X203642Y154303D02*
X233642D01*
X203642Y174303D02*
X233642D01*
X203642D02*
X222809D01*
X171252Y90141D02*
X194915Y113804D01*
Y66478D02*
X218578Y90141D01*
X171252D02*
X194915Y66478D01*
Y113804D02*
X218578Y90141D01*
X130010Y97941D02*
X140010D01*
Y77941D02*
Y97941D01*
X130010Y77941D02*
X140010D01*
X130010D02*
Y97941D01*
X257510Y30648D02*
X267510D01*
X257510D02*
Y110648D01*
X267510D01*
Y30648D02*
Y110648D01*
D16*
X101699Y126610D02*
X101699Y126610D01*
X101699Y126610D02*
X101699Y129563D01*
X101699Y137437D02*
X101699Y137437D01*
Y140390D01*
X125321D02*
X125321Y140390D01*
X125321Y137437D02*
X125321Y140390D01*
X125321Y129563D02*
X125321Y129563D01*
X125321Y126610D02*
Y129563D01*
X107998Y130547D02*
X119022D01*
X107998D02*
Y136453D01*
X119022D01*
Y130547D02*
Y136453D01*
X101699Y126610D02*
X125321D01*
X101699Y140390D02*
X125321D01*
D17*
X225202Y15622D02*
D03*
X209535Y15622D02*
D03*
D18*
X222177Y14622D02*
D03*
X206510Y14622D02*
D03*
D19*
X219192Y15752D02*
D03*
X203525Y15752D02*
D03*
M02*
