G04*
G04 #@! TF.GenerationSoftware,Altium Limited,Altium Designer,19.0.12 (326)*
G04*
G04 Layer_Color=2752767*
%FSLAX25Y25*%
%MOIN*%
G70*
G01*
G75*
%ADD46C,0.00200*%
%ADD47C,0.00267*%
D46*
X307218Y39839D02*
Y41439D01*
X308818D01*
Y39839D01*
X307218D01*
X317218Y49839D02*
Y51439D01*
X318818D01*
Y49839D01*
X317218D01*
X327218Y39839D02*
Y41439D01*
X328818D01*
Y39839D01*
X327218D01*
X224018Y9702D02*
X223218Y11302D01*
X224818D01*
X224018Y9702D01*
X234018D02*
X233218Y11302D01*
X234818D01*
X234018Y9702D01*
X259416D02*
X258616Y11302D01*
X260216D01*
X259416Y9702D01*
X269416D02*
X268616Y11302D01*
X270216D01*
X269416Y9702D01*
X279416D02*
X278616Y11302D01*
X280216D01*
X279416Y9702D01*
X289416D02*
X288616Y11302D01*
X290216D01*
X289416Y9702D01*
X299416D02*
X298616Y11302D01*
X300216D01*
X299416Y9702D01*
X309416D02*
X308616Y11302D01*
X310216D01*
X309416Y9702D01*
X319416D02*
X318616Y11302D01*
X320216D01*
X319416Y9702D01*
X329416D02*
X328616Y11302D01*
X330216D01*
X329416Y9702D01*
X204518Y72879D02*
X204918Y73279D01*
X205318D01*
X204918Y73679D01*
X205318Y74079D01*
X204918D01*
X204518Y74479D01*
X204118Y74079D01*
X203718D01*
X204118Y73679D01*
X203718Y73279D01*
X204118D01*
X204518Y72879D01*
X545268Y72379D02*
X545668Y72779D01*
X546068D01*
X545668Y73179D01*
X546068Y73579D01*
X545668D01*
X545268Y73979D01*
X544868Y73579D01*
X544468D01*
X544868Y73179D01*
X544468Y72779D01*
X544868D01*
X545268Y72379D01*
X505889Y71972D02*
X506289Y72372D01*
X506689D01*
X506289Y72772D01*
X506689Y73172D01*
X506289D01*
X505889Y73572D01*
X505489Y73172D01*
X505089D01*
X505489Y72772D01*
X505089Y72372D01*
X505489D01*
X505889Y71972D01*
X467018D02*
X467418Y72372D01*
X467818D01*
X467418Y72772D01*
X467818Y73172D01*
X467418D01*
X467018Y73572D01*
X466618Y73172D01*
X466218D01*
X466618Y72772D01*
X466218Y72372D01*
X466618D01*
X467018Y71972D01*
X427106D02*
X427506Y72372D01*
X427906D01*
X427506Y72772D01*
X427906Y73172D01*
X427506D01*
X427106Y73572D01*
X426706Y73172D01*
X426306D01*
X426706Y72772D01*
X426306Y72372D01*
X426706D01*
X427106Y71972D01*
X387518Y71702D02*
X387918Y72101D01*
X388318D01*
X387918Y72501D01*
X388318Y72901D01*
X387918D01*
X387518Y73302D01*
X387118Y72901D01*
X386718D01*
X387118Y72501D01*
X386718Y72101D01*
X387118D01*
X387518Y71702D01*
X348018Y71972D02*
X348418Y72372D01*
X348818D01*
X348418Y72772D01*
X348818Y73172D01*
X348418D01*
X348018Y73572D01*
X347618Y73172D01*
X347218D01*
X347618Y72772D01*
X347218Y72372D01*
X347618D01*
X348018Y71972D01*
X308018Y71702D02*
X308418Y72101D01*
X308818D01*
X308418Y72501D01*
X308818Y72901D01*
X308418D01*
X308018Y73302D01*
X307618Y72901D01*
X307218D01*
X307618Y72501D01*
X307218Y72101D01*
X307618D01*
X308018Y71702D01*
X274518Y70201D02*
X274918Y70601D01*
X275318D01*
X274918Y71001D01*
X275318Y71402D01*
X274918D01*
X274518Y71802D01*
X274118Y71402D01*
X273718D01*
X274118Y71001D01*
X273718Y70601D01*
X274118D01*
X274518Y70201D01*
X189676Y72702D02*
X190076Y73102D01*
X190476D01*
X190076Y73501D01*
X190476Y73901D01*
X190076D01*
X189676Y74301D01*
X189276Y73901D01*
X188876D01*
X189276Y73501D01*
X188876Y73102D01*
X189276D01*
X189676Y72702D01*
X150104Y72782D02*
X150504Y73182D01*
X150904D01*
X150504Y73582D01*
X150904Y73982D01*
X150504D01*
X150104Y74382D01*
X149704Y73982D01*
X149304D01*
X149704Y73582D01*
X149304Y73182D01*
X149704D01*
X150104Y72782D01*
X109965Y72379D02*
X110365Y72779D01*
X110765D01*
X110365Y73179D01*
X110765Y73579D01*
X110365D01*
X109965Y73979D01*
X109565Y73579D01*
X109165D01*
X109565Y73179D01*
X109165Y72779D01*
X109565D01*
X109965Y72379D01*
X70518Y72202D02*
X70918Y72601D01*
X71318D01*
X70918Y73001D01*
X71318Y73401D01*
X70918D01*
X70518Y73801D01*
X70118Y73401D01*
X69718D01*
X70118Y73001D01*
X69718Y72601D01*
X70118D01*
X70518Y72202D01*
X31403D02*
X31803Y72601D01*
X32203D01*
X31803Y73001D01*
X32203Y73401D01*
X31803D01*
X31403Y73801D01*
X31003Y73401D01*
X30603D01*
X31003Y73001D01*
X30603Y72601D01*
X31003D01*
X31403Y72202D01*
X237518Y24701D02*
X237918Y25102D01*
X238318D01*
X237918Y25501D01*
X238318Y25901D01*
X237918D01*
X237518Y26302D01*
X237118Y25901D01*
X236718D01*
X237118Y25501D01*
X236718Y25102D01*
X237118D01*
X237518Y24701D01*
X232018Y46177D02*
X232418Y46577D01*
X232818D01*
X232418Y46977D01*
X232818Y47377D01*
X232418D01*
X232018Y47777D01*
X231618Y47377D01*
X231218D01*
X231618Y46977D01*
X231218Y46577D01*
X231618D01*
X232018Y46177D01*
X282235Y49202D02*
X282635Y49602D01*
X283035D01*
X282635Y50002D01*
X283035Y50402D01*
X282635D01*
X282235Y50801D01*
X281835Y50402D01*
X281435D01*
X281835Y50002D01*
X281435Y49602D01*
X281835D01*
X282235Y49202D01*
X255518Y60702D02*
X255918Y61102D01*
X256318D01*
X255918Y61501D01*
X256318Y61901D01*
X255918D01*
X255518Y62301D01*
X255118Y61901D01*
X254718D01*
X255118Y61501D01*
X254718Y61102D01*
X255118D01*
X255518Y60702D01*
X250272Y45202D02*
X250672Y45601D01*
X251072D01*
X250672Y46001D01*
X251072Y46402D01*
X250672D01*
X250272Y46801D01*
X249872Y46402D01*
X249472D01*
X249872Y46001D01*
X249472Y45601D01*
X249872D01*
X250272Y45202D01*
X268655Y91202D02*
X269055Y91602D01*
X269455D01*
X269055Y92001D01*
X269455Y92401D01*
X269055D01*
X268655Y92801D01*
X268255Y92401D01*
X267855D01*
X268255Y92001D01*
X267855Y91602D01*
X268255D01*
X268655Y91202D01*
X229084Y91138D02*
X229484Y91538D01*
X229884D01*
X229484Y91938D01*
X229884Y92338D01*
X229484D01*
X229084Y92738D01*
X228684Y92338D01*
X228284D01*
X228684Y91938D01*
X228284Y91538D01*
X228684D01*
X229084Y91138D01*
X189518Y91702D02*
X189918Y92102D01*
X190318D01*
X189918Y92501D01*
X190318Y92901D01*
X189918D01*
X189518Y93301D01*
X189118Y92901D01*
X188718D01*
X189118Y92501D01*
X188718Y92102D01*
X189118D01*
X189518Y91702D01*
X149940Y91202D02*
X150340Y91602D01*
X150740D01*
X150340Y92001D01*
X150740Y92401D01*
X150340D01*
X149940Y92801D01*
X149540Y92401D01*
X149140D01*
X149540Y92001D01*
X149140Y91602D01*
X149540D01*
X149940Y91202D01*
X110018Y91138D02*
X110418Y91538D01*
X110818D01*
X110418Y91938D01*
X110818Y92338D01*
X110418D01*
X110018Y92738D01*
X109618Y92338D01*
X109218D01*
X109618Y91938D01*
X109218Y91538D01*
X109618D01*
X110018Y91138D01*
X70797D02*
X71197Y91538D01*
X71597D01*
X71197Y91938D01*
X71597Y92338D01*
X71197D01*
X70797Y92738D01*
X70397Y92338D01*
X69997D01*
X70397Y91938D01*
X69997Y91538D01*
X70397D01*
X70797Y91138D01*
X31518Y91702D02*
X31918Y92102D01*
X32318D01*
X31918Y92501D01*
X32318Y92901D01*
X31918D01*
X31518Y93301D01*
X31118Y92901D01*
X30718D01*
X31118Y92501D01*
X30718Y92102D01*
X31118D01*
X31518Y91702D01*
X546018Y91202D02*
X546418Y91602D01*
X546818D01*
X546418Y92001D01*
X546818Y92401D01*
X546418D01*
X546018Y92801D01*
X545618Y92401D01*
X545218D01*
X545618Y92001D01*
X545218Y91602D01*
X545618D01*
X546018Y91202D01*
X506018D02*
X506418Y91602D01*
X506818D01*
X506418Y92001D01*
X506818Y92401D01*
X506418D01*
X506018Y92801D01*
X505618Y92401D01*
X505218D01*
X505618Y92001D01*
X505218Y91602D01*
X505618D01*
X506018Y91202D01*
X466518D02*
X466918Y91602D01*
X467318D01*
X466918Y92001D01*
X467318Y92401D01*
X466918D01*
X466518Y92801D01*
X466118Y92401D01*
X465718D01*
X466118Y92001D01*
X465718Y91602D01*
X466118D01*
X466518Y91202D01*
X427018D02*
X427418Y91602D01*
X427818D01*
X427418Y92001D01*
X427818Y92401D01*
X427418D01*
X427018Y92801D01*
X426618Y92401D01*
X426218D01*
X426618Y92001D01*
X426218Y91602D01*
X426618D01*
X427018Y91202D01*
X387370D02*
X387770Y91602D01*
X388170D01*
X387770Y92001D01*
X388170Y92401D01*
X387770D01*
X387370Y92801D01*
X386970Y92401D01*
X386570D01*
X386970Y92001D01*
X386570Y91602D01*
X386970D01*
X387370Y91202D01*
X348018D02*
X348418Y91602D01*
X348818D01*
X348418Y92001D01*
X348818Y92401D01*
X348418D01*
X348018Y92801D01*
X347618Y92401D01*
X347218D01*
X347618Y92001D01*
X347218Y91602D01*
X347618D01*
X348018Y91202D01*
X308018D02*
X308418Y91602D01*
X308818D01*
X308418Y92001D01*
X308818Y92401D01*
X308418D01*
X308018Y92801D01*
X307618Y92401D01*
X307218D01*
X307618Y92001D01*
X307218Y91602D01*
X307618D01*
X308018Y91202D01*
X292018Y41201D02*
X292418Y41601D01*
X292818D01*
X292418Y42002D01*
X292818Y42401D01*
X292418D01*
X292018Y42801D01*
X291618Y42401D01*
X291218D01*
X291618Y42002D01*
X291218Y41601D01*
X291618D01*
X292018Y41201D01*
X257018Y47701D02*
X257418Y48101D01*
X257818D01*
X257418Y48502D01*
X257818Y48902D01*
X257418D01*
X257018Y49301D01*
X256618Y48902D01*
X256218D01*
X256618Y48502D01*
X256218Y48101D01*
X256618D01*
X257018Y47701D01*
X260652Y60651D02*
X261052Y61051D01*
X261452D01*
X261052Y61451D01*
X261452Y61851D01*
X261052D01*
X260652Y62251D01*
X260252Y61851D01*
X259852D01*
X260252Y61451D01*
X259852Y61051D01*
X260252D01*
X260652Y60651D01*
X276018Y30702D02*
X276418Y31102D01*
X276818D01*
X276418Y31501D01*
X276818Y31901D01*
X276418D01*
X276018Y32302D01*
X275618Y31901D01*
X275218D01*
X275618Y31501D01*
X275218Y31102D01*
X275618D01*
X276018Y30702D01*
X227384Y62068D02*
X227784Y62468D01*
X228184D01*
X227784Y62868D01*
X228184Y63268D01*
X227784D01*
X227384Y63668D01*
X226984Y63268D01*
X226584D01*
X226984Y62868D01*
X226584Y62468D01*
X226984D01*
X227384Y62068D01*
D47*
X356818Y55001D02*
X356265Y55762D01*
X355371Y55472D01*
Y54531D01*
X356265Y54241D01*
X356818Y55001D01*
X199338D02*
X198785Y55762D01*
X197891Y55472D01*
Y54531D01*
X198785Y54241D01*
X199338Y55001D01*
M02*
