G04*
G04 #@! TF.GenerationSoftware,Altium Limited,Altium Designer,19.0.12 (326)*
G04*
G04 Layer_Color=16711935*
%FSLAX25Y25*%
%MOIN*%
G70*
G01*
G75*
%ADD15R,0.04343X0.03556*%
%ADD21R,0.06312X0.06312*%
%ADD22C,0.06312*%
%ADD23C,0.20485*%
%ADD24C,0.06706*%
%ADD25R,0.06706X0.06706*%
%ADD26C,0.03800*%
%ADD42R,0.03910X0.07335*%
%ADD43R,0.04737X0.04343*%
D15*
X8225Y87013D02*
D03*
Y81502D02*
D03*
X206084Y87013D02*
D03*
Y81502D02*
D03*
X324799Y87013D02*
D03*
Y81502D02*
D03*
X443514Y87013D02*
D03*
Y81502D02*
D03*
X166512D02*
D03*
Y87013D02*
D03*
X47797Y81502D02*
D03*
Y87013D02*
D03*
X403942Y81502D02*
D03*
Y87013D02*
D03*
X285227Y81502D02*
D03*
Y87013D02*
D03*
X483085Y81502D02*
D03*
Y87013D02*
D03*
X522657Y81502D02*
D03*
Y87013D02*
D03*
X87369Y81502D02*
D03*
Y87013D02*
D03*
X364370Y81502D02*
D03*
Y87013D02*
D03*
X245655Y81502D02*
D03*
Y87013D02*
D03*
X126940Y81502D02*
D03*
Y87013D02*
D03*
D21*
X308018Y40639D02*
D03*
D22*
X318018Y50639D02*
D03*
X328018Y40639D02*
D03*
D23*
X356018Y55001D02*
D03*
X198538D02*
D03*
D24*
X224018Y10502D02*
D03*
X269416D02*
D03*
X279416D02*
D03*
X289416D02*
D03*
X299416D02*
D03*
X309416D02*
D03*
X319416D02*
D03*
X329416D02*
D03*
D25*
X234018D02*
D03*
X259416D02*
D03*
D26*
X204518Y73679D02*
D03*
X545268Y73179D02*
D03*
X505889Y72772D02*
D03*
X467018D02*
D03*
X427106D02*
D03*
X387518Y72501D02*
D03*
X348018Y72772D02*
D03*
X308018Y72501D02*
D03*
X274518Y71001D02*
D03*
X189676Y73501D02*
D03*
X150104Y73582D02*
D03*
X109965Y73179D02*
D03*
X70518Y73001D02*
D03*
X31403D02*
D03*
X237518Y25501D02*
D03*
X232018Y46977D02*
D03*
X282235Y50002D02*
D03*
X255518Y61501D02*
D03*
X250272Y46001D02*
D03*
X268655Y92001D02*
D03*
X229084Y91938D02*
D03*
X189518Y92501D02*
D03*
X149940Y92001D02*
D03*
X110018Y91938D02*
D03*
X70797D02*
D03*
X31518Y92501D02*
D03*
X546018Y92001D02*
D03*
X506018D02*
D03*
X466518D02*
D03*
X427018D02*
D03*
X387370D02*
D03*
X348018D02*
D03*
X308018D02*
D03*
X292018Y42002D02*
D03*
X257018Y48502D02*
D03*
X260652Y61451D02*
D03*
X276018Y31501D02*
D03*
X227384Y62868D02*
D03*
D42*
X16225Y91991D02*
D03*
Y76243D02*
D03*
X23225Y91991D02*
D03*
Y76243D02*
D03*
X55797Y91991D02*
D03*
Y76243D02*
D03*
X62797Y91991D02*
D03*
Y76243D02*
D03*
X95369Y91991D02*
D03*
Y76243D02*
D03*
X102369Y91991D02*
D03*
Y76243D02*
D03*
X134940Y91991D02*
D03*
Y76243D02*
D03*
X141940Y91991D02*
D03*
Y76243D02*
D03*
X174512Y91991D02*
D03*
Y76243D02*
D03*
X181512Y91991D02*
D03*
Y76243D02*
D03*
X214084Y91991D02*
D03*
Y76243D02*
D03*
X221084Y91991D02*
D03*
Y76243D02*
D03*
X253655Y91991D02*
D03*
Y76243D02*
D03*
X260655Y91991D02*
D03*
Y76243D02*
D03*
X293227Y91991D02*
D03*
Y76243D02*
D03*
X300227Y91991D02*
D03*
Y76243D02*
D03*
X332799Y91991D02*
D03*
Y76243D02*
D03*
X339799Y91991D02*
D03*
Y76243D02*
D03*
X372370Y91991D02*
D03*
Y76243D02*
D03*
X379370Y91991D02*
D03*
Y76243D02*
D03*
X411942Y91991D02*
D03*
Y76243D02*
D03*
X418942Y91991D02*
D03*
Y76243D02*
D03*
X451514Y91991D02*
D03*
Y76243D02*
D03*
X458514Y91991D02*
D03*
Y76243D02*
D03*
X491085Y91991D02*
D03*
Y76243D02*
D03*
X498085Y91991D02*
D03*
Y76243D02*
D03*
X530657Y91991D02*
D03*
Y76243D02*
D03*
X537657Y91991D02*
D03*
Y76243D02*
D03*
D43*
X426942Y80864D02*
D03*
Y87163D02*
D03*
X189512Y80864D02*
D03*
Y87163D02*
D03*
X506085Y80864D02*
D03*
Y87163D02*
D03*
X387370Y80864D02*
D03*
Y87163D02*
D03*
X466514Y80864D02*
D03*
Y87163D02*
D03*
X308227Y80864D02*
D03*
Y87163D02*
D03*
X268655Y80864D02*
D03*
Y87163D02*
D03*
X70797Y80864D02*
D03*
Y87163D02*
D03*
X149940Y80864D02*
D03*
Y87163D02*
D03*
X31225Y80864D02*
D03*
Y87163D02*
D03*
X347799Y80864D02*
D03*
Y87163D02*
D03*
X229084Y80864D02*
D03*
Y87163D02*
D03*
X545657Y80864D02*
D03*
Y87163D02*
D03*
X110369Y80864D02*
D03*
Y87163D02*
D03*
M02*
