G04*
G04 #@! TF.GenerationSoftware,Altium Limited,Altium Designer,19.0.12 (326)*
G04*
G04 Layer_Color=128*
%FSLAX25Y25*%
%MOIN*%
G70*
G01*
G75*
%ADD46C,0.00200*%
D46*
X306443Y40639D02*
X309593D01*
X308018Y39064D02*
Y42214D01*
X316443Y50639D02*
X319593D01*
X318018Y49064D02*
Y52214D01*
X326443Y40639D02*
X329593D01*
X328018Y39064D02*
Y42214D01*
X349518Y55001D02*
X362518D01*
X356018Y48502D02*
Y61501D01*
X192038Y55001D02*
X205038D01*
X198538Y48502D02*
Y61501D01*
X222247Y10502D02*
X225790D01*
X224018Y8730D02*
Y12273D01*
X232246Y10502D02*
X235790D01*
X234018Y8730D02*
Y12273D01*
X257644Y10502D02*
X261187D01*
X259416Y8730D02*
Y12273D01*
X267644Y10502D02*
X271187D01*
X269416Y8730D02*
Y12273D01*
X277644Y10502D02*
X281187D01*
X279416Y8730D02*
Y12273D01*
X287644Y10502D02*
X291187D01*
X289416Y8730D02*
Y12273D01*
X297644Y10502D02*
X301187D01*
X299416Y8730D02*
Y12273D01*
X307644Y10502D02*
X311187D01*
X309416Y8730D02*
Y12273D01*
X317644Y10502D02*
X321187D01*
X319416Y8730D02*
Y12273D01*
X327644Y10502D02*
X331187D01*
X329416Y8730D02*
Y12273D01*
X203518Y73679D02*
X205518D01*
X204518Y72679D02*
Y74679D01*
X544268Y73179D02*
X546268D01*
X545268Y72179D02*
Y74179D01*
X504889Y72772D02*
X506889D01*
X505889Y71772D02*
Y73772D01*
X466018Y72772D02*
X468018D01*
X467018Y71772D02*
Y73772D01*
X426106Y72772D02*
X428106D01*
X427106Y71772D02*
Y73772D01*
X386518Y72501D02*
X388518D01*
X387518Y71501D02*
Y73501D01*
X347018Y72772D02*
X349018D01*
X348018Y71772D02*
Y73772D01*
X307018Y72501D02*
X309018D01*
X308018Y71501D02*
Y73501D01*
X273518Y71001D02*
X275518D01*
X274518Y70002D02*
Y72001D01*
X188676Y73501D02*
X190676D01*
X189676Y72501D02*
Y74502D01*
X149104Y73582D02*
X151104D01*
X150104Y72582D02*
Y74582D01*
X108965Y73179D02*
X110965D01*
X109965Y72179D02*
Y74179D01*
X69518Y73001D02*
X71518D01*
X70518Y72001D02*
Y74001D01*
X30403Y73001D02*
X32403D01*
X31403Y72001D02*
Y74001D01*
X236518Y25501D02*
X238518D01*
X237518Y24501D02*
Y26502D01*
X231018Y46977D02*
X233018D01*
X232018Y45977D02*
Y47977D01*
X281235Y50002D02*
X283235D01*
X282235Y49002D02*
Y51002D01*
X254518Y61501D02*
X256518D01*
X255518Y60501D02*
Y62502D01*
X249272Y46001D02*
X251272D01*
X250272Y45002D02*
Y47001D01*
X267655Y92001D02*
X269655D01*
X268655Y91001D02*
Y93002D01*
X228084Y91938D02*
X230084D01*
X229084Y90938D02*
Y92938D01*
X188518Y92501D02*
X190518D01*
X189518Y91501D02*
Y93502D01*
X148940Y92001D02*
X150940D01*
X149940Y91001D02*
Y93002D01*
X109018Y91938D02*
X111018D01*
X110018Y90938D02*
Y92938D01*
X69797Y91938D02*
X71797D01*
X70797Y90938D02*
Y92938D01*
X30518Y92501D02*
X32518D01*
X31518Y91501D02*
Y93502D01*
X545018Y92001D02*
X547018D01*
X546018Y91001D02*
Y93002D01*
X505018Y92001D02*
X507018D01*
X506018Y91001D02*
Y93002D01*
X465518Y92001D02*
X467518D01*
X466518Y91001D02*
Y93002D01*
X426018Y92001D02*
X428018D01*
X427018Y91001D02*
Y93002D01*
X386370Y92001D02*
X388370D01*
X387370Y91001D02*
Y93002D01*
X347018Y92001D02*
X349018D01*
X348018Y91001D02*
Y93002D01*
X307018Y92001D02*
X309018D01*
X308018Y91001D02*
Y93002D01*
X291018Y42002D02*
X293018D01*
X292018Y41001D02*
Y43001D01*
X256018Y48502D02*
X258018D01*
X257018Y47502D02*
Y49501D01*
X259652Y61451D02*
X261652D01*
X260652Y60451D02*
Y62451D01*
X275018Y31501D02*
X277018D01*
X276018Y30501D02*
Y32502D01*
X226384Y62868D02*
X228384D01*
X227384Y61868D02*
Y63868D01*
M02*
