G04*
G04 #@! TF.GenerationSoftware,Altium Limited,Altium Designer,19.0.12 (326)*
G04*
G04 Layer_Color=32896*
%FSLAX25Y25*%
%MOIN*%
G70*
G01*
G75*
%ADD13C,0.01000*%
%ADD14C,0.00787*%
D13*
X364500Y62500D02*
X367250Y65250D01*
X545750D01*
X551000Y70500D01*
Y96000D01*
X546000Y101000D02*
X551000Y96000D01*
X545750Y101000D02*
X546000D01*
X545500D02*
X546000D01*
X189000Y65000D02*
X191000Y63000D01*
X8000Y65000D02*
X189000D01*
X2500Y70500D02*
X8000Y65000D01*
X2500Y70500D02*
Y95500D01*
X8000Y101000D01*
X545500D01*
X11725Y77617D02*
Y78117D01*
X14725Y71617D02*
X24922D01*
X14725Y96617D02*
X24922D01*
X51297Y77617D02*
Y78117D01*
X54297Y71617D02*
X64494D01*
X54297Y96617D02*
X64494D01*
X90869Y77617D02*
Y78117D01*
X93869Y71617D02*
X104066D01*
X93869Y96617D02*
X104066D01*
X130440Y77617D02*
Y78117D01*
X133440Y71617D02*
X143637D01*
X133440Y96617D02*
X143637D01*
X170012Y77617D02*
Y78117D01*
X173012Y71617D02*
X183209D01*
X173012Y96617D02*
X183209D01*
X209584Y77617D02*
Y78117D01*
X212584Y71617D02*
X222780D01*
X212584Y96617D02*
X222780D01*
X249155Y77617D02*
Y78117D01*
X252155Y71617D02*
X262352D01*
X252155Y96617D02*
X262352D01*
X288727Y77617D02*
Y78117D01*
X291727Y71617D02*
X301924D01*
X291727Y96617D02*
X301924D01*
X328299Y77617D02*
Y78117D01*
X331299Y71617D02*
X341495D01*
X331299Y96617D02*
X341495D01*
X367870Y77617D02*
Y78117D01*
X370870Y71617D02*
X381067D01*
X370870Y96617D02*
X381067D01*
X407442Y77617D02*
Y78117D01*
X410442Y71617D02*
X420639D01*
X410442Y96617D02*
X420639D01*
X447014Y77617D02*
Y78117D01*
X450014Y71617D02*
X460211D01*
X450014Y96617D02*
X460211D01*
X486585Y77617D02*
Y78117D01*
X489585Y71617D02*
X499782D01*
X489585Y96617D02*
X499782D01*
X526157Y77617D02*
Y78117D01*
X529157Y71617D02*
X539354D01*
X529157Y96617D02*
X539354D01*
X221000Y18000D02*
X226998D01*
X224999Y19999D01*
X226998Y21999D01*
X221000D01*
X226998Y23998D02*
X222000D01*
X221000Y24998D01*
Y26997D01*
X222000Y27997D01*
X226998D01*
Y29996D02*
X221000Y33995D01*
X226998D02*
X221000Y29996D01*
X226998Y44991D02*
Y42992D01*
X225998Y41992D01*
X222000D01*
X221000Y42992D01*
Y44991D01*
X222000Y45991D01*
X225998D01*
X226998Y44991D01*
Y47990D02*
X222000D01*
X221000Y48990D01*
Y50989D01*
X222000Y51989D01*
X226998D01*
Y53988D02*
Y57987D01*
Y55988D01*
X221000D01*
X231000Y18000D02*
X234999D01*
X236998Y19999D01*
X234999Y21999D01*
X231000D01*
X233999D01*
Y18000D01*
X236998Y23998D02*
X231000D01*
Y26997D01*
X232000Y27997D01*
X235998D01*
X236998Y26997D01*
Y23998D01*
X235998Y33995D02*
X236998Y32995D01*
Y30996D01*
X235998Y29996D01*
X232000D01*
X231000Y30996D01*
Y32995D01*
X232000Y33995D01*
X236998Y41992D02*
Y43992D01*
Y42992D01*
X231000D01*
Y41992D01*
Y43992D01*
Y46991D02*
X236998D01*
X231000Y50989D01*
X236998D01*
X331498Y21999D02*
X332498Y20999D01*
Y19000D01*
X331498Y18000D01*
X327500D01*
X326500Y19000D01*
Y20999D01*
X327500Y21999D01*
X329499D01*
Y19999D01*
X326500Y23998D02*
X332498D01*
X326500Y27997D01*
X332498D01*
Y29996D02*
X326500D01*
Y32995D01*
X327500Y33995D01*
X331498D01*
X332498Y32995D01*
Y29996D01*
X321498Y21999D02*
X322498Y20999D01*
Y19000D01*
X321498Y18000D01*
X317500D01*
X316500Y19000D01*
Y20999D01*
X317500Y21999D01*
X319499D01*
Y19999D01*
X316500Y23998D02*
X322498D01*
X316500Y27997D01*
X322498D01*
Y29996D02*
X316500D01*
Y32995D01*
X317500Y33995D01*
X321498D01*
X322498Y32995D01*
Y29996D01*
X309499Y18000D02*
Y21999D01*
X311498Y19999D02*
X307500D01*
X312498Y27997D02*
Y23998D01*
X309499D01*
X310499Y25997D01*
Y26997D01*
X309499Y27997D01*
X307500D01*
X306500Y26997D01*
Y24998D01*
X307500Y23998D01*
X312498Y29996D02*
X308499D01*
X306500Y31995D01*
X308499Y33995D01*
X312498D01*
X297500Y18000D02*
X303498D01*
X301498Y19999D01*
X303498Y21999D01*
X297500D01*
X303498Y23998D02*
X298499D01*
X297500Y24998D01*
Y26997D01*
X298499Y27997D01*
X303498D01*
Y29996D02*
X297500Y33995D01*
X303498D02*
X297500Y29996D01*
X296500Y35994D02*
Y39993D01*
X303498Y41992D02*
X297500D01*
Y44991D01*
X298499Y45991D01*
X302498D01*
X303498Y44991D01*
Y41992D01*
X287500Y18000D02*
X293498D01*
X291498Y19999D01*
X293498Y21999D01*
X287500D01*
X293498Y23998D02*
X288499D01*
X287500Y24998D01*
Y26997D01*
X288499Y27997D01*
X293498D01*
Y29996D02*
X287500Y33995D01*
X293498D02*
X287500Y29996D01*
X286500Y35994D02*
Y39993D01*
X292498Y45991D02*
X293498Y44991D01*
Y42992D01*
X292498Y41992D01*
X288499D01*
X287500Y42992D01*
Y44991D01*
X288499Y45991D01*
X277500Y18000D02*
X283498D01*
X281498Y19999D01*
X283498Y21999D01*
X277500D01*
X283498Y23998D02*
X278499D01*
X277500Y24998D01*
Y26997D01*
X278499Y27997D01*
X283498D01*
Y29996D02*
X277500Y33995D01*
X283498D02*
X277500Y29996D01*
X276500Y35994D02*
Y39993D01*
X283498Y41992D02*
X277500D01*
Y44991D01*
X278499Y45991D01*
X279499D01*
X280499Y44991D01*
Y41992D01*
Y44991D01*
X281498Y45991D01*
X282498D01*
X283498Y44991D01*
Y41992D01*
X267500Y18000D02*
X273498D01*
X271498Y19999D01*
X273498Y21999D01*
X267500D01*
X273498Y23998D02*
X268499D01*
X267500Y24998D01*
Y26997D01*
X268499Y27997D01*
X273498D01*
Y29996D02*
X267500Y33995D01*
X273498D02*
X267500Y29996D01*
X266500Y35994D02*
Y39993D01*
X267500Y41992D02*
X271498D01*
X273498Y43992D01*
X271498Y45991D01*
X267500D01*
X270499D01*
Y41992D01*
X256500Y18000D02*
X260499D01*
X262498Y19999D01*
X260499Y21999D01*
X256500D01*
X259499D01*
Y18000D01*
X262498Y23998D02*
X256500D01*
Y26997D01*
X257500Y27997D01*
X261498D01*
X262498Y26997D01*
Y23998D01*
X261498Y33995D02*
X262498Y32995D01*
Y30996D01*
X261498Y29996D01*
X257500D01*
X256500Y30996D01*
Y32995D01*
X257500Y33995D01*
X262498Y41992D02*
Y43992D01*
Y42992D01*
X256500D01*
Y41992D01*
Y43992D01*
Y46991D02*
X262498D01*
X256500Y50989D01*
X262498D01*
X90869Y96498D02*
Y91500D01*
X89869Y90500D01*
X87870D01*
X86870Y91500D01*
Y96498D01*
X84871Y90500D02*
X82871D01*
X83871D01*
Y96498D01*
X84871Y95498D01*
X75874Y96498D02*
X77873Y95498D01*
X79872Y93499D01*
Y91500D01*
X78873Y90500D01*
X76873D01*
X75874Y91500D01*
Y92499D01*
X76873Y93499D01*
X79872D01*
X526500Y96598D02*
Y91600D01*
X525500Y90600D01*
X523501D01*
X522501Y91600D01*
Y96598D01*
X520502Y90600D02*
X518503D01*
X519502D01*
Y96598D01*
X520502Y95598D01*
X511505Y96598D02*
X515504D01*
Y93599D01*
X513504Y94599D01*
X512504D01*
X511505Y93599D01*
Y91600D01*
X512504Y90600D01*
X514504D01*
X515504Y91600D01*
X209584Y96598D02*
Y91600D01*
X208584Y90600D01*
X206585D01*
X205585Y91600D01*
Y96598D01*
X203586Y90600D02*
X201586D01*
X202586D01*
Y96598D01*
X203586Y95598D01*
X195588Y90600D02*
Y96598D01*
X198587Y93599D01*
X194588D01*
X328000Y96598D02*
Y91600D01*
X327000Y90600D01*
X325001D01*
X324001Y91600D01*
Y96598D01*
X322002Y90600D02*
X320003D01*
X321002D01*
Y96598D01*
X322002Y95598D01*
X317004D02*
X316004Y96598D01*
X314004D01*
X313005Y95598D01*
Y94599D01*
X314004Y93599D01*
X315004D01*
X314004D01*
X313005Y92599D01*
Y91600D01*
X314004Y90600D01*
X316004D01*
X317004Y91600D01*
X19500Y96498D02*
Y91500D01*
X18500Y90500D01*
X16501D01*
X15501Y91500D01*
Y96498D01*
X13502Y90500D02*
X11503D01*
X12502D01*
Y96498D01*
X13502Y95498D01*
X4505Y90500D02*
X8504D01*
X4505Y94499D01*
Y95498D01*
X5505Y96498D01*
X7504D01*
X8504Y95498D01*
X447014Y96598D02*
Y91600D01*
X446014Y90600D01*
X444015D01*
X443015Y91600D01*
Y96598D01*
X441016Y90600D02*
X439016D01*
X440016D01*
Y96598D01*
X441016Y95598D01*
X436017Y90600D02*
X434018D01*
X435018D01*
Y96598D01*
X436017Y95598D01*
X130440Y96598D02*
Y91600D01*
X129441Y90600D01*
X127441D01*
X126442Y91600D01*
Y96598D01*
X124442Y90600D02*
X122443D01*
X123443D01*
Y96598D01*
X124442Y95598D01*
X119444D02*
X118444Y96598D01*
X116445D01*
X115445Y95598D01*
Y91600D01*
X116445Y90600D01*
X118444D01*
X119444Y91600D01*
Y95598D01*
X249155Y96598D02*
Y91600D01*
X248156Y90600D01*
X246156D01*
X245157Y91600D01*
Y96598D01*
X243157Y91600D02*
X242158Y90600D01*
X240158D01*
X239159Y91600D01*
Y95598D01*
X240158Y96598D01*
X242158D01*
X243157Y95598D01*
Y94599D01*
X242158Y93599D01*
X239159D01*
X367870Y96598D02*
Y91600D01*
X366871Y90600D01*
X364871D01*
X363872Y91600D01*
Y96598D01*
X361872Y95598D02*
X360873Y96598D01*
X358873D01*
X357874Y95598D01*
Y94599D01*
X358873Y93599D01*
X357874Y92599D01*
Y91600D01*
X358873Y90600D01*
X360873D01*
X361872Y91600D01*
Y92599D01*
X360873Y93599D01*
X361872Y94599D01*
Y95598D01*
X360873Y93599D02*
X358873D01*
X51500Y96598D02*
Y91600D01*
X50500Y90600D01*
X48501D01*
X47501Y91600D01*
Y96598D01*
X45502D02*
X41503D01*
Y95598D01*
X45502Y91600D01*
Y90600D01*
X486585Y96498D02*
Y91500D01*
X485586Y90500D01*
X483586D01*
X482587Y91500D01*
Y96498D01*
X476589D02*
X478588Y95498D01*
X480587Y93499D01*
Y91500D01*
X479588Y90500D01*
X477588D01*
X476589Y91500D01*
Y92499D01*
X477588Y93499D01*
X480587D01*
X170012Y96598D02*
Y91600D01*
X169012Y90600D01*
X167013D01*
X166013Y91600D01*
Y96598D01*
X160015D02*
X164014D01*
Y93599D01*
X162015Y94599D01*
X161015D01*
X160015Y93599D01*
Y91600D01*
X161015Y90600D01*
X163014D01*
X164014Y91600D01*
X288727Y96498D02*
Y91500D01*
X287727Y90500D01*
X285728D01*
X284728Y91500D01*
Y96498D01*
X279730Y90500D02*
Y96498D01*
X282729Y93499D01*
X278730D01*
X407442Y96598D02*
Y91600D01*
X406442Y90600D01*
X404443D01*
X403443Y91600D01*
Y96598D01*
X401444Y95598D02*
X400444Y96598D01*
X398445D01*
X397445Y95598D01*
Y94599D01*
X398445Y93599D01*
X399445D01*
X398445D01*
X397445Y92599D01*
Y91600D01*
X398445Y90600D01*
X400444D01*
X401444Y91600D01*
X84000Y88000D02*
X78002D01*
Y85001D01*
X79002Y84001D01*
X81001D01*
X82001Y85001D01*
Y88000D01*
Y86001D02*
X84000Y84001D01*
X79002Y82002D02*
X78002Y81002D01*
Y79003D01*
X79002Y78003D01*
X80001D01*
X81001Y79003D01*
Y80003D01*
Y79003D01*
X82001Y78003D01*
X83000D01*
X84000Y79003D01*
Y81002D01*
X83000Y82002D01*
X79002Y76004D02*
X78002Y75004D01*
Y73005D01*
X79002Y72005D01*
X80001D01*
X81001Y73005D01*
X82001Y72005D01*
X83000D01*
X84000Y73005D01*
Y75004D01*
X83000Y76004D01*
X82001D01*
X81001Y75004D01*
X80001Y76004D01*
X79002D01*
X81001Y75004D02*
Y73005D01*
X518000Y87000D02*
X512002D01*
Y84001D01*
X513002Y83001D01*
X515001D01*
X516001Y84001D01*
Y87000D01*
Y85001D02*
X518000Y83001D01*
X513002Y81002D02*
X512002Y80002D01*
Y78003D01*
X513002Y77003D01*
X514001D01*
X515001Y78003D01*
Y79003D01*
Y78003D01*
X516001Y77003D01*
X517000D01*
X518000Y78003D01*
Y80002D01*
X517000Y81002D01*
X512002Y71005D02*
X513002Y73005D01*
X515001Y75004D01*
X517000D01*
X518000Y74004D01*
Y72005D01*
X517000Y71005D01*
X516001D01*
X515001Y72005D01*
Y75004D01*
X202000Y88000D02*
X196002D01*
Y85001D01*
X197002Y84001D01*
X199001D01*
X200001Y85001D01*
Y88000D01*
Y86001D02*
X202000Y84001D01*
X197002Y82002D02*
X196002Y81002D01*
Y79003D01*
X197002Y78003D01*
X198001D01*
X199001Y79003D01*
Y80003D01*
Y79003D01*
X200001Y78003D01*
X201000D01*
X202000Y79003D01*
Y81002D01*
X201000Y82002D01*
X202000Y73005D02*
X196002D01*
X199001Y76004D01*
Y72005D01*
X321000Y88000D02*
X315002D01*
Y85001D01*
X316002Y84001D01*
X318001D01*
X319001Y85001D01*
Y88000D01*
Y86001D02*
X321000Y84001D01*
X316002Y82002D02*
X315002Y81002D01*
Y79003D01*
X316002Y78003D01*
X317001D01*
X318001Y79003D01*
Y80003D01*
Y79003D01*
X319001Y78003D01*
X320000D01*
X321000Y79003D01*
Y81002D01*
X320000Y82002D01*
X321000Y72005D02*
Y76004D01*
X317001Y72005D01*
X316002D01*
X315002Y73005D01*
Y75004D01*
X316002Y76004D01*
X10000Y88000D02*
X4002D01*
Y85001D01*
X5002Y84001D01*
X7001D01*
X8001Y85001D01*
Y88000D01*
Y86001D02*
X10000Y84001D01*
Y78003D02*
Y82002D01*
X6001Y78003D01*
X5002D01*
X4002Y79003D01*
Y81002D01*
X5002Y82002D01*
X4002Y72005D02*
Y76004D01*
X7001D01*
X6001Y74005D01*
Y73005D01*
X7001Y72005D01*
X9000D01*
X10000Y73005D01*
Y75004D01*
X9000Y76004D01*
X440000Y88500D02*
X434002D01*
Y85501D01*
X435002Y84501D01*
X437001D01*
X438001Y85501D01*
Y88500D01*
Y86501D02*
X440000Y84501D01*
Y78503D02*
Y82502D01*
X436001Y78503D01*
X435002D01*
X434002Y79503D01*
Y81502D01*
X435002Y82502D01*
Y76504D02*
X434002Y75504D01*
Y73505D01*
X435002Y72505D01*
X436001D01*
X437001Y73505D01*
Y74505D01*
Y73505D01*
X438001Y72505D01*
X439000D01*
X440000Y73505D01*
Y75504D01*
X439000Y76504D01*
X122500Y88000D02*
X116502D01*
Y85001D01*
X117502Y84001D01*
X119501D01*
X120501Y85001D01*
Y88000D01*
Y86001D02*
X122500Y84001D01*
Y78003D02*
Y82002D01*
X118501Y78003D01*
X117502D01*
X116502Y79003D01*
Y81002D01*
X117502Y82002D01*
X122500Y76004D02*
Y74005D01*
Y75004D01*
X116502D01*
X117502Y76004D01*
X241500Y88000D02*
X235502D01*
Y85001D01*
X236502Y84001D01*
X238501D01*
X239501Y85001D01*
Y88000D01*
Y86001D02*
X241500Y84001D01*
Y82002D02*
Y80003D01*
Y81002D01*
X235502D01*
X236502Y82002D01*
X240500Y77004D02*
X241500Y76004D01*
Y74005D01*
X240500Y73005D01*
X236502D01*
X235502Y74005D01*
Y76004D01*
X236502Y77004D01*
X237501D01*
X238501Y76004D01*
Y73005D01*
X360500Y88000D02*
X354502D01*
Y85001D01*
X355502Y84001D01*
X357501D01*
X358501Y85001D01*
Y88000D01*
Y86001D02*
X360500Y84001D01*
Y82002D02*
Y80003D01*
Y81002D01*
X354502D01*
X355502Y82002D01*
X354502Y77004D02*
Y73005D01*
X355502D01*
X359500Y77004D01*
X360500D01*
X43500Y88000D02*
X37502D01*
Y85001D01*
X38502Y84001D01*
X40501D01*
X41501Y85001D01*
Y88000D01*
Y86001D02*
X43500Y84001D01*
Y82002D02*
Y80003D01*
Y81002D01*
X37502D01*
X38502Y82002D01*
Y77004D02*
X37502Y76004D01*
Y74005D01*
X38502Y73005D01*
X42500D01*
X43500Y74005D01*
Y76004D01*
X42500Y77004D01*
X38502D01*
X479500Y87500D02*
X473502D01*
Y84501D01*
X474502Y83501D01*
X476501D01*
X477501Y84501D01*
Y87500D01*
Y85501D02*
X479500Y83501D01*
X474502Y81502D02*
X473502Y80502D01*
Y78503D01*
X474502Y77503D01*
X475501D01*
X476501Y78503D01*
X477501Y77503D01*
X478500D01*
X479500Y78503D01*
Y80502D01*
X478500Y81502D01*
X477501D01*
X476501Y80502D01*
X475501Y81502D01*
X474502D01*
X476501Y80502D02*
Y78503D01*
X162000Y88000D02*
X156002D01*
Y85001D01*
X157002Y84001D01*
X159001D01*
X160001Y85001D01*
Y88000D01*
Y86001D02*
X162000Y84001D01*
X156002Y78003D02*
X157002Y80003D01*
X159001Y82002D01*
X161000D01*
X162000Y81002D01*
Y79003D01*
X161000Y78003D01*
X160001D01*
X159001Y79003D01*
Y82002D01*
X281500Y88000D02*
X275502D01*
Y85001D01*
X276502Y84001D01*
X278501D01*
X279501Y85001D01*
Y88000D01*
Y86001D02*
X281500Y84001D01*
Y79003D02*
X275502D01*
X278501Y82002D01*
Y78003D01*
X400000Y88000D02*
X394002D01*
Y85001D01*
X395002Y84001D01*
X397001D01*
X398001Y85001D01*
Y88000D01*
Y86001D02*
X400000Y84001D01*
Y78003D02*
Y82002D01*
X396001Y78003D01*
X395002D01*
X394002Y79003D01*
Y81002D01*
X395002Y82002D01*
D14*
X9603Y84061D02*
Y84454D01*
X6847Y84061D02*
Y84454D01*
X207462Y84061D02*
Y84454D01*
X204706Y84061D02*
Y84454D01*
X326177Y84061D02*
Y84454D01*
X323421Y84061D02*
Y84454D01*
X444892Y84061D02*
Y84454D01*
X442136Y84061D02*
Y84454D01*
X425367Y83816D02*
Y84210D01*
X428517Y83816D02*
Y84210D01*
X187937Y83816D02*
Y84210D01*
X191087Y83816D02*
Y84210D01*
X165134Y84061D02*
Y84454D01*
X167890Y84061D02*
Y84454D01*
X504511Y83816D02*
Y84210D01*
X507660Y83816D02*
Y84210D01*
X46419Y84061D02*
Y84454D01*
X49175Y84061D02*
Y84454D01*
X385796Y83816D02*
Y84210D01*
X388945Y83816D02*
Y84210D01*
X464939Y83816D02*
Y84210D01*
X468088Y83816D02*
Y84210D01*
X402564Y84061D02*
Y84454D01*
X405320Y84061D02*
Y84454D01*
X306652Y83816D02*
Y84210D01*
X309802Y83816D02*
Y84210D01*
X283849Y84061D02*
Y84454D01*
X286605Y84061D02*
Y84454D01*
X481707Y84061D02*
Y84454D01*
X484463Y84061D02*
Y84454D01*
X267080Y83816D02*
Y84210D01*
X270230Y83816D02*
Y84210D01*
X521279Y84061D02*
Y84454D01*
X524035Y84061D02*
Y84454D01*
X85991Y84061D02*
Y84454D01*
X88747Y84061D02*
Y84454D01*
X69222Y83816D02*
Y84210D01*
X72372Y83816D02*
Y84210D01*
X148365Y83816D02*
Y84210D01*
X151515Y83816D02*
Y84210D01*
X362992Y84061D02*
Y84454D01*
X365748Y84061D02*
Y84454D01*
X244277Y84061D02*
Y84454D01*
X247033Y84061D02*
Y84454D01*
X125562Y84061D02*
Y84454D01*
X128318Y84061D02*
Y84454D01*
X29651Y83816D02*
Y84210D01*
X32800Y83816D02*
Y84210D01*
X346224Y83816D02*
Y84210D01*
X349374Y83816D02*
Y84210D01*
X227509Y83816D02*
Y84210D01*
X230658Y83816D02*
Y84210D01*
X544082Y83816D02*
Y84210D01*
X547232Y83816D02*
Y84210D01*
X108794Y83816D02*
Y84210D01*
X111943Y83816D02*
Y84210D01*
M02*
