G04*
G04 #@! TF.GenerationSoftware,Altium Limited,Altium Designer,19.0.12 (326)*
G04*
G04 Layer_Color=65535*
%FSLAX25Y25*%
%MOIN*%
G70*
G01*
G75*
%ADD10C,0.00000*%
%ADD11C,0.02362*%
%ADD12C,0.00984*%
%ADD13C,0.01000*%
%ADD14C,0.00787*%
D10*
X302818Y40501D02*
X302265Y41262D01*
X301371Y40972D01*
Y40031D01*
X302265Y39741D01*
X302818Y40501D01*
D11*
X229845Y41139D02*
X229400Y42063D01*
X228401Y42291D01*
X227600Y41652D01*
Y40627D01*
X228401Y39988D01*
X229400Y40216D01*
X229845Y41139D01*
X284691Y43738D02*
X284247Y44661D01*
X283247Y44889D01*
X282446Y44250D01*
Y43225D01*
X283247Y42586D01*
X284247Y42814D01*
X284691Y43738D01*
D12*
X225022Y31986D02*
X224284Y32412D01*
Y31560D01*
X225022Y31986D01*
X279062Y35214D02*
X278323Y35640D01*
Y34788D01*
X279062Y35214D01*
D13*
X3000Y70500D02*
Y95500D01*
X8000Y100500D01*
X3000Y70500D02*
X8000Y65500D01*
X188500D02*
X191000Y63000D01*
X364000D02*
X366500Y65500D01*
X545500D02*
X550500Y70500D01*
Y95500D01*
X545500Y100500D02*
X550500Y95500D01*
X8000Y65500D02*
X188500D01*
X366500D02*
X545500D01*
X8000Y100500D02*
X545500D01*
X212518Y25500D02*
Y19501D01*
X215517D01*
X216517Y20501D01*
Y21501D01*
X215517Y22501D01*
X212518D01*
X215517D01*
X216517Y23500D01*
Y24500D01*
X215517Y25500D01*
X212518D01*
X218516Y23500D02*
Y20501D01*
X219516Y19501D01*
X222515D01*
Y18502D01*
X221515Y17502D01*
X220516D01*
X222515Y19501D02*
Y23500D01*
X224514Y17502D02*
Y23500D01*
X227513D01*
X228513Y22501D01*
Y20501D01*
X227513Y19501D01*
X224514D01*
X231512Y23500D02*
X233511D01*
X234511Y22501D01*
Y19501D01*
X231512D01*
X230512Y20501D01*
X231512Y21501D01*
X234511D01*
X236510Y19501D02*
X239509D01*
X240509Y20501D01*
X239509Y21501D01*
X237510D01*
X236510Y22501D01*
X237510Y23500D01*
X240509D01*
X242508Y19501D02*
X245508D01*
X246507Y20501D01*
X245508Y21501D01*
X243508D01*
X242508Y22501D01*
X243508Y23500D01*
X246507D01*
X275017Y23500D02*
X274017Y24500D01*
X272018D01*
X271018Y23500D01*
Y22500D01*
X272018Y21500D01*
X274017D01*
X275017Y20501D01*
Y19501D01*
X274017Y18501D01*
X272018D01*
X271018Y19501D01*
X280015Y18501D02*
X278016D01*
X277016Y19501D01*
Y21500D01*
X278016Y22500D01*
X280015D01*
X281015Y21500D01*
Y20501D01*
X277016D01*
X283014Y18501D02*
Y22500D01*
X286013D01*
X287013Y21500D01*
Y18501D01*
X289012D02*
X292011D01*
X293011Y19501D01*
X292011Y20501D01*
X290012D01*
X289012Y21500D01*
X290012Y22500D01*
X293011D01*
X296010Y18501D02*
X298009D01*
X299009Y19501D01*
Y21500D01*
X298009Y22500D01*
X296010D01*
X295010Y21500D01*
Y19501D01*
X296010Y18501D01*
X301008Y22500D02*
Y18501D01*
Y20501D01*
X302008Y21500D01*
X303008Y22500D01*
X304008D01*
X313005Y18501D02*
Y22500D01*
X315004Y24500D01*
X317003Y22500D01*
Y18501D01*
Y21500D01*
X313005D01*
X319003Y22500D02*
Y18501D01*
Y20501D01*
X320002Y21500D01*
X321002Y22500D01*
X322002D01*
X325001D02*
Y18501D01*
Y20501D01*
X326000Y21500D01*
X327000Y22500D01*
X328000D01*
X331998D02*
X333998D01*
X334998Y21500D01*
Y18501D01*
X331998D01*
X330999Y19501D01*
X331998Y20501D01*
X334998D01*
X336997Y22500D02*
Y19501D01*
X337997Y18501D01*
X340996D01*
Y17502D01*
X339996Y16502D01*
X338996D01*
X340996Y18501D02*
Y22500D01*
X313999Y74498D02*
X310000D01*
Y68500D01*
X313999D01*
X310000Y71499D02*
X311999D01*
X319997Y73498D02*
X318997Y74498D01*
X316998D01*
X315998Y73498D01*
Y69500D01*
X316998Y68500D01*
X318997D01*
X319997Y69500D01*
Y71499D01*
X317997D01*
X321996Y74498D02*
Y68500D01*
X324995D01*
X325995Y69500D01*
Y70499D01*
X324995Y71499D01*
X321996D01*
X324995D01*
X325995Y72499D01*
Y73498D01*
X324995Y74498D01*
X321996D01*
X331993Y68500D02*
X327994D01*
X331993Y72499D01*
Y73498D01*
X330993Y74498D01*
X328994D01*
X327994Y73498D01*
X337991Y68500D02*
X333992D01*
X337991Y72499D01*
Y73498D01*
X336991Y74498D01*
X334992D01*
X333992Y73498D01*
X339990D02*
X340990Y74498D01*
X342989D01*
X343989Y73498D01*
Y69500D01*
X342989Y68500D01*
X340990D01*
X339990Y69500D01*
Y73498D01*
X214499D02*
X213499Y74498D01*
X211500D01*
X210500Y73498D01*
Y69500D01*
X211500Y68500D01*
X213499D01*
X214499Y69500D01*
Y71499D01*
X212499D01*
X216498Y72499D02*
Y68500D01*
Y70499D01*
X217498Y71499D01*
X218497Y72499D01*
X219497D01*
X223496Y68500D02*
X225495D01*
X226495Y69500D01*
Y71499D01*
X225495Y72499D01*
X223496D01*
X222496Y71499D01*
Y69500D01*
X223496Y68500D01*
X228494Y72499D02*
Y69500D01*
X229494Y68500D01*
X232493D01*
Y72499D01*
X234492Y66501D02*
Y72499D01*
X237491D01*
X238491Y71499D01*
Y69500D01*
X237491Y68500D01*
X234492D01*
X246488Y74498D02*
Y68500D01*
X249487D01*
X250487Y69500D01*
Y70499D01*
X249487Y71499D01*
X246488D01*
X249487D01*
X250487Y72499D01*
Y73498D01*
X249487Y74498D01*
X246488D01*
X255485Y68500D02*
Y74498D01*
X252486Y71499D01*
X256485D01*
X302818Y62998D02*
Y58999D01*
X304818Y57000D01*
X306817Y58999D01*
Y62998D01*
X308816Y57000D02*
Y62998D01*
X311815D01*
X312815Y61998D01*
Y59999D01*
X311815Y58999D01*
X308816D01*
X310816D02*
X312815Y57000D01*
X314814D02*
X316814D01*
X315814D01*
Y62998D01*
X314814Y61998D01*
X267000Y46637D02*
Y41639D01*
X268000Y40639D01*
X269999D01*
X270999Y41639D01*
Y46637D01*
X276997Y40639D02*
X272998D01*
X276997Y44638D01*
Y45638D01*
X275997Y46637D01*
X273998D01*
X272998Y45638D01*
X213500Y46637D02*
Y41639D01*
X214500Y40639D01*
X216499D01*
X217499Y41639D01*
Y46637D01*
X219498Y40639D02*
X221497D01*
X220498D01*
Y46637D01*
X219498Y45638D01*
X327500Y57000D02*
Y62998D01*
X330499D01*
X331499Y61998D01*
Y59999D01*
X330499Y58999D01*
X327500D01*
X329499D02*
X331499Y57000D01*
X336497D02*
Y62998D01*
X333498Y59999D01*
X337497D01*
X342495Y57000D02*
Y62998D01*
X339496Y59999D01*
X343495D01*
X92200Y79800D02*
Y85798D01*
X95199D01*
X96199Y84798D01*
Y82799D01*
X95199Y81799D01*
X92200D01*
X94199D02*
X96199Y79800D01*
X101197D02*
Y85798D01*
X98198Y82799D01*
X102197D01*
X104196Y84798D02*
X105196Y85798D01*
X107195D01*
X108195Y84798D01*
Y83799D01*
X107195Y82799D01*
X106195D01*
X107195D01*
X108195Y81799D01*
Y80800D01*
X107195Y79800D01*
X105196D01*
X104196Y80800D01*
X527400Y79800D02*
Y85798D01*
X530399D01*
X531399Y84798D01*
Y82799D01*
X530399Y81799D01*
X527400D01*
X529399D02*
X531399Y79800D01*
X536397D02*
Y85798D01*
X533398Y82799D01*
X537397D01*
X543395Y79800D02*
X539396D01*
X543395Y83799D01*
Y84798D01*
X542395Y85798D01*
X540396D01*
X539396Y84798D01*
X210800Y79800D02*
Y85798D01*
X213799D01*
X214799Y84798D01*
Y82799D01*
X213799Y81799D01*
X210800D01*
X212799D02*
X214799Y79800D01*
X219797D02*
Y85798D01*
X216798Y82799D01*
X220797D01*
X222796Y79800D02*
X224796D01*
X223796D01*
Y85798D01*
X222796Y84798D01*
X329600Y79800D02*
Y85798D01*
X332599D01*
X333599Y84798D01*
Y82799D01*
X332599Y81799D01*
X329600D01*
X331599D02*
X333599Y79800D01*
X338597D02*
Y85798D01*
X335598Y82799D01*
X339597D01*
X341596Y84798D02*
X342596Y85798D01*
X344595D01*
X345595Y84798D01*
Y80800D01*
X344595Y79800D01*
X342596D01*
X341596Y80800D01*
Y84798D01*
X13000Y79800D02*
Y85798D01*
X15999D01*
X16999Y84798D01*
Y82799D01*
X15999Y81799D01*
X13000D01*
X14999D02*
X16999Y79800D01*
X18998Y84798D02*
X19998Y85798D01*
X21997D01*
X22997Y84798D01*
Y83799D01*
X21997Y82799D01*
X20997D01*
X21997D01*
X22997Y81799D01*
Y80800D01*
X21997Y79800D01*
X19998D01*
X18998Y80800D01*
X24996Y79800D02*
X26996D01*
X25996D01*
Y85798D01*
X24996Y84798D01*
X448600Y79800D02*
Y85798D01*
X451599D01*
X452599Y84798D01*
Y82799D01*
X451599Y81799D01*
X448600D01*
X450599D02*
X452599Y79800D01*
X454598Y84798D02*
X455598Y85798D01*
X457597D01*
X458597Y84798D01*
Y83799D01*
X457597Y82799D01*
X456597D01*
X457597D01*
X458597Y81799D01*
Y80800D01*
X457597Y79800D01*
X455598D01*
X454598Y80800D01*
X460596Y84798D02*
X461596Y85798D01*
X463595D01*
X464595Y84798D01*
Y80800D01*
X463595Y79800D01*
X461596D01*
X460596Y80800D01*
Y84798D01*
X131600Y79800D02*
Y85798D01*
X134599D01*
X135599Y84798D01*
Y82799D01*
X134599Y81799D01*
X131600D01*
X133599D02*
X135599Y79800D01*
X141597D02*
X137598D01*
X141597Y83799D01*
Y84798D01*
X140597Y85798D01*
X138598D01*
X137598Y84798D01*
X143596Y80800D02*
X144596Y79800D01*
X146595D01*
X147595Y80800D01*
Y84798D01*
X146595Y85798D01*
X144596D01*
X143596Y84798D01*
Y83799D01*
X144596Y82799D01*
X147595D01*
X250400Y79800D02*
Y85798D01*
X253399D01*
X254399Y84798D01*
Y82799D01*
X253399Y81799D01*
X250400D01*
X252399D02*
X254399Y79800D01*
X260397D02*
X256398D01*
X260397Y83799D01*
Y84798D01*
X259397Y85798D01*
X257398D01*
X256398Y84798D01*
X262396D02*
X263396Y85798D01*
X265395D01*
X266395Y84798D01*
Y83799D01*
X265395Y82799D01*
X266395Y81799D01*
Y80800D01*
X265395Y79800D01*
X263396D01*
X262396Y80800D01*
Y81799D01*
X263396Y82799D01*
X262396Y83799D01*
Y84798D01*
X263396Y82799D02*
X265395D01*
X369200Y79800D02*
Y85798D01*
X372199D01*
X373199Y84798D01*
Y82799D01*
X372199Y81799D01*
X369200D01*
X371199D02*
X373199Y79800D01*
X379197D02*
X375198D01*
X379197Y83799D01*
Y84798D01*
X378197Y85798D01*
X376198D01*
X375198Y84798D01*
X381196Y85798D02*
X385195D01*
Y84798D01*
X381196Y80800D01*
Y79800D01*
X52300D02*
Y85798D01*
X55299D01*
X56299Y84798D01*
Y82799D01*
X55299Y81799D01*
X52300D01*
X54299D02*
X56299Y79800D01*
X58298D02*
X60297D01*
X59298D01*
Y85798D01*
X58298Y84798D01*
X67295Y85798D02*
X65296Y84798D01*
X63296Y82799D01*
Y80800D01*
X64296Y79800D01*
X66295D01*
X67295Y80800D01*
Y81799D01*
X66295Y82799D01*
X63296D01*
X488000Y79800D02*
Y85798D01*
X490999D01*
X491999Y84798D01*
Y82799D01*
X490999Y81799D01*
X488000D01*
X489999D02*
X491999Y79800D01*
X493998D02*
X495997D01*
X494998D01*
Y85798D01*
X493998Y84798D01*
X502995Y85798D02*
X498996D01*
Y82799D01*
X500996Y83799D01*
X501996D01*
X502995Y82799D01*
Y80800D01*
X501996Y79800D01*
X499996D01*
X498996Y80800D01*
X171200Y79800D02*
Y85798D01*
X174199D01*
X175199Y84798D01*
Y82799D01*
X174199Y81799D01*
X171200D01*
X173199D02*
X175199Y79800D01*
X177198D02*
X179197D01*
X178198D01*
Y85798D01*
X177198Y84798D01*
X185196Y79800D02*
Y85798D01*
X182196Y82799D01*
X186195D01*
X290000Y79800D02*
Y85798D01*
X292999D01*
X293999Y84798D01*
Y82799D01*
X292999Y81799D01*
X290000D01*
X291999D02*
X293999Y79800D01*
X295998D02*
X297997D01*
X296998D01*
Y85798D01*
X295998Y84798D01*
X300996D02*
X301996Y85798D01*
X303995D01*
X304995Y84798D01*
Y83799D01*
X303995Y82799D01*
X302996D01*
X303995D01*
X304995Y81799D01*
Y80800D01*
X303995Y79800D01*
X301996D01*
X300996Y80800D01*
X408800Y79800D02*
Y85798D01*
X411799D01*
X412799Y84798D01*
Y82799D01*
X411799Y81799D01*
X408800D01*
X410799D02*
X412799Y79800D01*
X414798D02*
X416797D01*
X415798D01*
Y85798D01*
X414798Y84798D01*
X423795Y79800D02*
X419796D01*
X423795Y83799D01*
Y84798D01*
X422795Y85798D01*
X420796D01*
X419796Y84798D01*
X278400Y25000D02*
Y30998D01*
X281399D01*
X282399Y29998D01*
Y27999D01*
X281399Y26999D01*
X278400D01*
X280399D02*
X282399Y25000D01*
X284398D02*
X286397D01*
X285398D01*
Y30998D01*
X284398Y29998D01*
X335500Y43998D02*
Y38000D01*
X339499D01*
X345497Y43998D02*
X341498D01*
Y38000D01*
X345497D01*
X341498Y40999D02*
X343497D01*
X347496Y43998D02*
Y38000D01*
X350495D01*
X351495Y39000D01*
Y42998D01*
X350495Y43998D01*
X347496D01*
X353494Y38000D02*
X355493D01*
X354494D01*
Y43998D01*
X353494Y42998D01*
D14*
X335640Y50442D02*
Y50836D01*
X338396Y50442D02*
Y50836D01*
X335837Y26596D02*
X338199D01*
X331010Y26742D02*
Y35639D01*
Y45639D02*
Y54261D01*
X305026D02*
X331010D01*
X305026Y45639D02*
Y54261D01*
Y26742D02*
Y35639D01*
Y26742D02*
X331010D01*
X263310Y37202D02*
Y49801D01*
X224727Y37202D02*
Y49801D01*
X263310D01*
X224727Y37202D02*
X263310D01*
X279770Y39781D02*
X299061D01*
X279770Y52222D02*
X299061D01*
X279770Y39781D02*
Y52222D01*
X299061Y39781D02*
Y52222D01*
X219018Y5502D02*
X239018D01*
Y15502D01*
X219018D02*
X239018D01*
X219018Y5502D02*
Y15502D01*
X58928Y94773D02*
X59322D01*
X58928Y91230D02*
X59322D01*
X494604Y94773D02*
X494998D01*
X494604Y91230D02*
X494998D01*
X177749Y94773D02*
X178142D01*
X177749Y91230D02*
X178142D01*
X296569Y94773D02*
X296963D01*
X296569Y91230D02*
X296963D01*
X415390Y94773D02*
X415784D01*
X415390Y91230D02*
X415784D01*
X19535Y94773D02*
X19929D01*
X19535Y91230D02*
X19929D01*
X455211Y94773D02*
X455604D01*
X455211Y91230D02*
X455604D01*
X138142Y94773D02*
X138536D01*
X138142Y91230D02*
X138536D01*
X256963Y94773D02*
X257356D01*
X256963Y91230D02*
X257356D01*
X375783Y94773D02*
X376177D01*
X375783Y91230D02*
X376177D01*
X98821Y94773D02*
X99215D01*
X98821Y91230D02*
X99215D01*
X533997Y94773D02*
X534391D01*
X533997Y91230D02*
X534391D01*
X217356Y94773D02*
X217749D01*
X217356Y91230D02*
X217749D01*
X336176Y94773D02*
X336570D01*
X336176Y91230D02*
X336570D01*
X334416Y5502D02*
Y15502D01*
X254416Y5502D02*
X334416D01*
X254416D02*
Y15502D01*
X334416D01*
X293821Y29379D02*
X294215D01*
X293821Y26623D02*
X294215D01*
M02*
