M48
;Layer_Color=9474304
;FILE_FORMAT=2:5
INCH,LZ
;TYPE=PLATED
T1F00S00C0.02000
T2F00S00C0.03150
T3F00S00C0.03543
;TYPE=NON_PLATED
T4F00S00C0.13000
%
T01
X0031403Y0073001
X0031518Y0092501
X0070797Y0091938
X0070518Y0073001
X0109965Y0073179
X0110018Y0091938
X014994Y0092001
X0150104Y0073582
X0189676Y0073501
X0204518Y0073679
X0227384Y0062868
X0232018Y0046977
X0250272Y0046001
X0257018Y0048502
X0255518Y0061501
X0260652Y0061451
X0274518Y0071001
X0268655Y0092001
X0308018
Y0072501
X0292018Y0042002
X0282235Y0050002
X0276018Y0031501
X0237518Y0025501
X0229084Y0091938
X0189518Y0092501
X0348018Y0092001
Y0072772
X0387518Y0072501
X038737Y0092001
X0427018
X0427106Y0072772
X0467018
X0466518Y0092001
X0506018
X0505889Y0072772
X0545268Y0073179
X0546018Y0092001
T02
X0308018Y0040639
X0318018Y0050639
X0328018Y0040639
T03
X0224018Y0010502
X0234018
X0259416
X0269416
X0279416
X0289416
X0299416
X0309416
X0319416
X0329416
T04
X0198538Y0055001
X0356018
M30
