G04*
G04 #@! TF.GenerationSoftware,Altium Limited,Altium Designer,19.0.12 (326)*
G04*
G04 Layer_Color=16711935*
%FSLAX25Y25*%
%MOIN*%
G70*
G01*
G75*
%ADD44C,0.00394*%
D44*
X230239Y38186D02*
X229975Y39171D01*
X229254Y39891D01*
X228270Y40155D01*
X227286Y39891D01*
X226565Y39171D01*
X226302Y38186D01*
X226565Y37202D01*
X227286Y36482D01*
X228270Y36218D01*
X229254Y36482D01*
X229975Y37202D01*
X230239Y38186D01*
X285085Y41671D02*
X284821Y42655D01*
X284101Y43376D01*
X283117Y43639D01*
X282132Y43376D01*
X281412Y42655D01*
X281148Y41671D01*
X281412Y40687D01*
X282132Y39966D01*
X283117Y39702D01*
X284101Y39966D01*
X284821Y40687D01*
X285085Y41671D01*
X6355Y80911D02*
Y87604D01*
X10095Y80911D02*
Y87604D01*
X6355D02*
X10095D01*
X6355Y80911D02*
X10095D01*
X204214D02*
Y87604D01*
X207954Y80911D02*
Y87604D01*
X204214D02*
X207954D01*
X204214Y80911D02*
X207954D01*
X322929D02*
Y87604D01*
X326669Y80911D02*
Y87604D01*
X322929D02*
X326669D01*
X322929Y80911D02*
X326669D01*
X441644D02*
Y87604D01*
X445384Y80911D02*
Y87604D01*
X441644D02*
X445384D01*
X441644Y80911D02*
X445384D01*
X338888Y47293D02*
Y53986D01*
X335148Y47293D02*
Y53986D01*
X338888D01*
X335148Y47293D02*
X338888D01*
X338790Y29155D02*
Y35848D01*
X335246Y29155D02*
Y35848D01*
X338790D01*
X335246Y29155D02*
X338790D01*
X263310Y34643D02*
Y52360D01*
X224727Y34643D02*
Y52360D01*
X263310D01*
X224727Y34643D02*
X263310D01*
X279770Y38324D02*
X299061D01*
X279770Y53679D02*
X299061D01*
X279770Y38324D02*
Y53679D01*
X299061Y38324D02*
Y53679D01*
X428812Y80667D02*
Y87360D01*
X425072Y80667D02*
Y87360D01*
Y80667D02*
X428812D01*
X425072Y87360D02*
X428812D01*
X191382Y80667D02*
Y87360D01*
X187642Y80667D02*
Y87360D01*
Y80667D02*
X191382D01*
X187642Y87360D02*
X191382D01*
X164642Y80911D02*
X168382D01*
X164642Y87604D02*
X168382D01*
Y80911D02*
Y87604D01*
X164642Y80911D02*
Y87604D01*
X507956Y80667D02*
Y87360D01*
X504215Y80667D02*
Y87360D01*
Y80667D02*
X507956D01*
X504215Y87360D02*
X507956D01*
X45927Y80911D02*
X49667D01*
X45927Y87604D02*
X49667D01*
Y80911D02*
Y87604D01*
X45927Y80911D02*
Y87604D01*
X389241Y80667D02*
Y87360D01*
X385500Y80667D02*
Y87360D01*
Y80667D02*
X389241D01*
X385500Y87360D02*
X389241D01*
X468384Y80667D02*
Y87360D01*
X464644Y80667D02*
Y87360D01*
Y80667D02*
X468384D01*
X464644Y87360D02*
X468384D01*
X402072Y80911D02*
X405812D01*
X402072Y87604D02*
X405812D01*
Y80911D02*
Y87604D01*
X402072Y80911D02*
Y87604D01*
X310097Y80667D02*
Y87360D01*
X306357Y80667D02*
Y87360D01*
Y80667D02*
X310097D01*
X306357Y87360D02*
X310097D01*
X283357Y80911D02*
X287097D01*
X283357Y87604D02*
X287097D01*
Y80911D02*
Y87604D01*
X283357Y80911D02*
Y87604D01*
X481215Y80911D02*
X484956D01*
X481215Y87604D02*
X484956D01*
Y80911D02*
Y87604D01*
X481215Y80911D02*
Y87604D01*
X270525Y80667D02*
Y87360D01*
X266785Y80667D02*
Y87360D01*
Y80667D02*
X270525D01*
X266785Y87360D02*
X270525D01*
X520787Y80911D02*
X524527D01*
X520787Y87604D02*
X524527D01*
Y80911D02*
Y87604D01*
X520787Y80911D02*
Y87604D01*
X85498Y80911D02*
X89239D01*
X85498Y87604D02*
X89239D01*
Y80911D02*
Y87604D01*
X85498Y80911D02*
Y87604D01*
X72667Y80667D02*
Y87360D01*
X68927Y80667D02*
Y87360D01*
Y80667D02*
X72667D01*
X68927Y87360D02*
X72667D01*
X151810Y80667D02*
Y87360D01*
X148070Y80667D02*
Y87360D01*
Y80667D02*
X151810D01*
X148070Y87360D02*
X151810D01*
X362500Y80911D02*
X366241D01*
X362500Y87604D02*
X366241D01*
Y80911D02*
Y87604D01*
X362500Y80911D02*
Y87604D01*
X243785Y80911D02*
X247525D01*
X243785Y87604D02*
X247525D01*
Y80911D02*
Y87604D01*
X243785Y80911D02*
Y87604D01*
X125070Y80911D02*
X128810D01*
X125070Y87604D02*
X128810D01*
Y80911D02*
Y87604D01*
X125070Y80911D02*
Y87604D01*
X33095Y80667D02*
Y87360D01*
X29355Y80667D02*
Y87360D01*
Y80667D02*
X33095D01*
X29355Y87360D02*
X33095D01*
X349669Y80667D02*
Y87360D01*
X345929Y80667D02*
Y87360D01*
Y80667D02*
X349669D01*
X345929Y87360D02*
X349669D01*
X230954Y80667D02*
Y87360D01*
X227214Y80667D02*
Y87360D01*
Y80667D02*
X230954D01*
X227214Y87360D02*
X230954D01*
X547527Y80667D02*
Y87360D01*
X543787Y80667D02*
Y87360D01*
Y80667D02*
X547527D01*
X543787Y87360D02*
X547527D01*
X112239Y80667D02*
Y87360D01*
X108499Y80667D02*
Y87360D01*
Y80667D02*
X112239D01*
X108499Y87360D02*
X112239D01*
X55779Y94872D02*
X62471D01*
X55779Y91131D02*
X62471D01*
X55779D02*
Y94872D01*
X62471Y91131D02*
Y94872D01*
X491454D02*
X498147D01*
X491454Y91131D02*
X498147D01*
X491454D02*
Y94872D01*
X498147Y91131D02*
Y94872D01*
X174599D02*
X181292D01*
X174599Y91131D02*
X181292D01*
X174599D02*
Y94872D01*
X181292Y91131D02*
Y94872D01*
X293420D02*
X300113D01*
X293420Y91131D02*
X300113D01*
X293420D02*
Y94872D01*
X300113Y91131D02*
Y94872D01*
X412241D02*
X418933D01*
X412241Y91131D02*
X418933D01*
X412241D02*
Y94872D01*
X418933Y91131D02*
Y94872D01*
X16386D02*
X23078D01*
X16386Y91131D02*
X23078D01*
X16386D02*
Y94872D01*
X23078Y91131D02*
Y94872D01*
X452061D02*
X458754D01*
X452061Y91131D02*
X458754D01*
X452061D02*
Y94872D01*
X458754Y91131D02*
Y94872D01*
X134992D02*
X141685D01*
X134992Y91131D02*
X141685D01*
X134992D02*
Y94872D01*
X141685Y91131D02*
Y94872D01*
X253813D02*
X260506D01*
X253813Y91131D02*
X260506D01*
X253813D02*
Y94872D01*
X260506Y91131D02*
Y94872D01*
X372634D02*
X379327D01*
X372634Y91131D02*
X379327D01*
X372634D02*
Y94872D01*
X379327Y91131D02*
Y94872D01*
X95672Y94872D02*
X102365D01*
X95672Y91131D02*
X102365D01*
X95672D02*
Y94872D01*
X102365Y91131D02*
Y94872D01*
X530847Y94872D02*
X537540D01*
X530847Y91131D02*
X537540D01*
X530847D02*
Y94872D01*
X537540Y91131D02*
Y94872D01*
X214206D02*
X220899D01*
X214206Y91131D02*
X220899D01*
X214206D02*
Y94872D01*
X220899Y91131D02*
Y94872D01*
X333027D02*
X339720D01*
X333027Y91131D02*
X339720D01*
X333027D02*
Y94872D01*
X339720Y91131D02*
Y94872D01*
X297365Y26131D02*
Y29872D01*
X290672Y26131D02*
Y29872D01*
Y26131D02*
X297365D01*
X290672Y29872D02*
X297365D01*
M02*
