solid Motor Adapter
facet normal 0.9914448613738056 -0.1305261922200878 -0.0
  outer loop
    vertex 6.5259911926078455 3.10706349837765 5.639932965095795e-15
    vertex 6.423768671475017 2.3306063630700486 20.000000000000004
    vertex 6.423768671475017 2.3306063630700486 5.639932965095795e-15
  endloop
endfacet
facet normal 0.9914448613738056 -0.1305261922200878 -0.0
  outer loop
    vertex 6.423768671475017 2.3306063630700486 20.000000000000004
    vertex 6.5259911926078455 3.10706349837765 5.639932965095795e-15
    vertex 6.5259911926078455 3.10706349837765 20.000000000000004
  endloop
endfacet
facet normal -0.9914448613738048 -0.1305261922200949 0.0
  outer loop
    vertex 0.5259911926077305 3.10706349837765 20.000000000000004
    vertex 0.6282137137405652 2.3306063630700486 5.639932965095795e-15
    vertex 0.6282137137405652 2.3306063630700486 20.000000000000004
  endloop
endfacet
facet normal -0.9914448613738048 -0.1305261922200949 0.0
  outer loop
    vertex 0.6282137137405652 2.3306063630700486 5.639932965095795e-15
    vertex 0.5259911926077305 3.10706349837765 20.000000000000004
    vertex 0.5259911926077305 3.10706349837765 5.639932965095795e-15
  endloop
endfacet
facet normal -0.9914448613738048 0.13052619222009465 0.0
  outer loop
    vertex 0.6282137137405652 3.883520633685252 20.000000000000004
    vertex 0.5259911926077305 3.10706349837765 5.639932965095795e-15
    vertex 0.5259911926077305 3.10706349837765 20.000000000000004
  endloop
endfacet
facet normal -0.9914448613738048 0.13052619222009465 0.0
  outer loop
    vertex 0.5259911926077305 3.10706349837765 5.639932965095795e-15
    vertex 0.6282137137405652 3.883520633685252 20.000000000000004
    vertex 0.6282137137405652 3.883520633685252 5.639932965095795e-15
  endloop
endfacet
facet normal 0.1305261922200947 0.9914448613738048 0.0
  outer loop
    vertex 3.5259911926078153 6.107063498377689 10.000000000000004
    vertex 4.3024483279154175 6.004840977244854 5.639932965095795e-15
    vertex 3.5259911926078153 6.107063498377689 5.639932965095795e-15
  endloop
endfacet
facet normal 0.1305261922200947 0.9914448613738048 0.0
  outer loop
    vertex 4.3024483279154175 6.004840977244854 5.639932965095795e-15
    vertex 3.5259911926078153 6.107063498377689 10.000000000000004
    vertex 4.3024483279154175 6.004840977244854 10.000000000000004
  endloop
endfacet
facet normal -0.6087614290087199 -0.7933533402912357 8.069941571203353e-19
  outer loop
    vertex 4.525991192607815 4.214269857059568 8.000000000000005
    vertex 4.2759911926078145 4.406101604054308 5.639932965095795e-15
    vertex 4.525991192607815 4.214269857059568 2.8199664825478975e-15
  endloop
endfacet
facet normal -0.6087614290087199 -0.7933533402912357 8.069941571203353e-19
  outer loop
    vertex 4.2759911926078145 4.406101604054308 5.639932965095795e-15
    vertex 4.525991192607815 4.214269857059568 8.000000000000005
    vertex 4.2759911926078145 4.406101604054308 8.000000000000005
  endloop
endfacet
facet normal 0.3826834323650898 -0.9238795325112867 -0.0
  outer loop
    vertex 3.137762624954034 4.555952237811252 8.000000000000005
    vertex 2.7759911926078153 4.4061016040543075 5.639932965095795e-15
    vertex 3.137762624954034 4.555952237811252 5.639932965095795e-15
  endloop
endfacet
facet normal 0.3826834323650898 -0.9238795325112867 -0.0
  outer loop
    vertex 2.7759911926078153 4.4061016040543075 5.639932965095795e-15
    vertex 3.137762624954034 4.555952237811252 8.000000000000005
    vertex 2.7759911926078153 4.4061016040543075 8.000000000000005
  endloop
endfacet
facet normal 0.6087614290087202 -0.7933533402912355 -0.0
  outer loop
    vertex 2.7759911926078153 4.4061016040543075 8.000000000000005
    vertex 2.465331020827994 4.167723670157471 5.639932965095795e-15
    vertex 2.7759911926078153 4.4061016040543075 5.639932965095795e-15
  endloop
endfacet
facet normal 0.6087614290087202 -0.7933533402912355 -0.0
  outer loop
    vertex 2.465331020827994 4.167723670157471 5.639932965095795e-15
    vertex 2.7759911926078153 4.4061016040543075 8.000000000000005
    vertex 2.465331020827994 4.167723670157471 8.000000000000005
  endloop
endfacet
facet normal 0.0 0.0 -1.0
  outer loop
    vertex 0.6282137137405652 3.883520633685252 5.639932965095795e-15
    vertex 0.6282137137405652 2.3306063630700486 5.639932965095795e-15
    vertex 0.5259911926077305 3.10706349837765 5.639932965095795e-15
  endloop
endfacet
facet normal 0.0 0.0 -1.0
  outer loop
    vertex 0.6282137137405652 2.3306063630700486 5.639932965095795e-15
    vertex 0.6282137137405652 3.883520633685252 5.639932965095795e-15
    vertex 0.9279149812544244 4.607063498377667 5.639932965095795e-15
  endloop
endfacet
facet normal 0.0 0.0 -1.0
  outer loop
    vertex 0.6282137137405652 2.3306063630700486 5.639932965095795e-15
    vertex 0.9279149812544244 4.607063498377667 5.639932965095795e-15
    vertex 0.9279149812544244 1.6070634983776297 5.639932965095795e-15
  endloop
endfacet
facet normal 0.0 0.0 -1.0
  outer loop
    vertex 0.9279149812544244 1.6070634983776297 5.639932965095795e-15
    vertex 0.9279149812544244 4.607063498377667 5.639932965095795e-15
    vertex 1.4046708490481674 5.228383841937431 5.639932965095795e-15
  endloop
endfacet
facet normal 0.0 0.0 -1.0
  outer loop
    vertex 0.9279149812544244 1.6070634983776297 5.639932965095795e-15
    vertex 1.4046708490481674 5.228383841937431 5.639932965095795e-15
    vertex 1.4046708490481674 0.9857431548180453 5.639932965095795e-15
  endloop
endfacet
facet normal 0.0 0.0 -1.0
  outer loop
    vertex 1.4046708490481674 0.9857431548180453 5.639932965095795e-15
    vertex 1.4046708490481674 5.228383841937431 5.639932965095795e-15
    vertex 2.0259911926077505 5.705139709730993 5.639932965095795e-15
  endloop
endfacet
facet normal 0.0 0.0 -1.0
  outer loop
    vertex 1.4046708490481674 0.9857431548180453 5.639932965095795e-15
    vertex 2.0259911926077505 5.705139709730993 5.639932965095795e-15
    vertex 2.0259911926077505 0.5089872870243467 5.639932965095795e-15
  endloop
endfacet
facet normal 0.0 0.0 -1.0
  outer loop
    vertex 2.0259911926077505 0.5089872870243467 5.639932965095795e-15
    vertex 2.0259911926077505 5.705139709730993 5.639932965095795e-15
    vertex 2.0259911926078153 3.10706349837765 5.639932965095795e-15
  endloop
endfacet
facet normal 0.0 0.0 -1.0
  outer loop
    vertex 2.0259911926078153 3.10706349837765 5.639932965095795e-15
    vertex 2.0259911926077505 5.705139709730993 5.639932965095795e-15
    vertex 2.077102453174213 3.4952920660314306 5.639932965095795e-15
  endloop
endfacet
facet normal 0.0 0.0 -1.0
  outer loop
    vertex 2.077102453174213 3.4952920660314306 5.639932965095795e-15
    vertex 2.0259911926077505 5.705139709730993 5.639932965095795e-15
    vertex 2.749534057300168 6.004840977244854 5.639932965095795e-15
  endloop
endfacet
facet normal 0.0 0.0 -1.0
  outer loop
    vertex 2.077102453174213 3.4952920660314306 5.639932965095795e-15
    vertex 2.749534057300168 6.004840977244854 5.639932965095795e-15
    vertex 2.2269530869311573 3.8570634983776495 5.639932965095795e-15
  endloop
endfacet
facet normal 0.0 0.0 -1.0
  outer loop
    vertex 2.2269530869311573 3.8570634983776495 5.639932965095795e-15
    vertex 2.749534057300168 6.004840977244854 5.639932965095795e-15
    vertex 2.465331020827994 4.167723670157471 5.639932965095795e-15
  endloop
endfacet
facet normal 0.0 0.0 -1.0
  outer loop
    vertex 2.465331020827994 4.167723670157471 5.639932965095795e-15
    vertex 2.749534057300168 6.004840977244854 5.639932965095795e-15
    vertex 2.7759911926078153 4.4061016040543075 5.639932965095795e-15
  endloop
endfacet
facet normal 0.0 0.0 -1.0
  outer loop
    vertex 2.7759911926078153 4.4061016040543075 5.639932965095795e-15
    vertex 2.749534057300168 6.004840977244854 5.639932965095795e-15
    vertex 3.5259911926078153 6.107063498377689 5.639932965095795e-15
  endloop
endfacet
facet normal 0.0 0.0 -1.0
  outer loop
    vertex 2.7759911926078153 4.4061016040543075 5.639932965095795e-15
    vertex 3.5259911926078153 6.107063498377689 5.639932965095795e-15
    vertex 3.137762624954034 4.555952237811252 5.639932965095795e-15
  endloop
endfacet
facet normal 0.0 0.0 -1.0
  outer loop
    vertex 3.137762624954034 4.555952237811252 5.639932965095795e-15
    vertex 3.5259911926078153 6.107063498377689 5.639932965095795e-15
    vertex 3.5259911926078153 4.6070634983776495 5.639932965095795e-15
  endloop
endfacet
facet normal 0.0 0.0 -1.0
  outer loop
    vertex 3.5259911926078153 4.6070634983776495 5.639932965095795e-15
    vertex 3.5259911926078153 6.107063498377689 5.639932965095795e-15
    vertex 4.3024483279154175 6.004840977244854 5.639932965095795e-15
  endloop
endfacet
facet normal 0.0 0.0 -1.0
  outer loop
    vertex 3.5259911926078153 4.6070634983776495 5.639932965095795e-15
    vertex 4.3024483279154175 6.004840977244854 5.639932965095795e-15
    vertex 3.914219760261596 4.555952237811253 5.639932965095795e-15
  endloop
endfacet
facet normal 0.0 0.0 -1.0
  outer loop
    vertex 3.914219760261596 4.555952237811253 5.639932965095795e-15
    vertex 4.3024483279154175 6.004840977244854 5.639932965095795e-15
    vertex 4.2759911926078145 4.406101604054308 5.639932965095795e-15
  endloop
endfacet
facet normal 0.0 0.0 -1.0
  outer loop
    vertex 4.2759911926078145 4.406101604054308 5.639932965095795e-15
    vertex 4.3024483279154175 6.004840977244854 5.639932965095795e-15
    vertex 4.525991192607815 4.214269857059568 2.8199664825478975e-15
  endloop
endfacet
facet normal 0.0 0.0 -1.0
  outer loop
    vertex 4.525991192607815 4.214269857059568 2.8199664825478975e-15
    vertex 4.3024483279154175 6.004840977244854 5.639932965095795e-15
    vertex 5.02599119260783 5.705139709730993 5.639932965095795e-15
  endloop
endfacet
facet normal 0.0 0.0 -1.0
  outer loop
    vertex 4.525991192607815 4.214269857059568 2.8199664825478975e-15
    vertex 5.02599119260783 5.705139709730993 5.639932965095795e-15
    vertex 4.525991192607815 1.9998571396957319 2.8199664825478975e-15
  endloop
endfacet
facet normal 0.0 0.0 -1.0
  outer loop
    vertex 2.0259911926077505 0.5089872870243467 5.639932965095795e-15
    vertex 2.0771024531742133 2.7188349307238675 5.639932965095795e-15
    vertex 2.749534057300168 0.20928601951048756 5.639932965095795e-15
  endloop
endfacet
facet normal 0.0 0.0 -1.0
  outer loop
    vertex 2.0771024531742133 2.7188349307238675 5.639932965095795e-15
    vertex 2.0259911926077505 0.5089872870243467 5.639932965095795e-15
    vertex 2.0259911926078153 3.10706349837765 5.639932965095795e-15
  endloop
endfacet
facet normal 0.0 0.0 -1.0
  outer loop
    vertex 2.749534057300168 0.20928601951048756 5.639932965095795e-15
    vertex 2.0771024531742133 2.7188349307238675 5.639932965095795e-15
    vertex 2.226953086931158 2.357063498377649 5.639932965095795e-15
  endloop
endfacet
facet normal 0.0 0.0 -1.0
  outer loop
    vertex 2.749534057300168 0.20928601951048756 5.639932965095795e-15
    vertex 2.226953086931158 2.357063498377649 5.639932965095795e-15
    vertex 2.465331020827994 2.0464033265978285 5.639932965095795e-15
  endloop
endfacet
facet normal 0.0 0.0 -1.0
  outer loop
    vertex 2.749534057300168 0.20928601951048756 5.639932965095795e-15
    vertex 2.465331020827994 2.0464033265978285 5.639932965095795e-15
    vertex 2.7759911926078162 1.8080253927009915 5.639932965095795e-15
  endloop
endfacet
facet normal 0.0 0.0 -1.0
  outer loop
    vertex 2.749534057300168 0.20928601951048756 5.639932965095795e-15
    vertex 2.7759911926078162 1.8080253927009915 5.639932965095795e-15
    vertex 3.5259911926078153 0.10706349837765283 5.639932965095795e-15
  endloop
endfacet
facet normal 0.0 0.0 -1.0
  outer loop
    vertex 3.5259911926078153 0.10706349837765283 5.639932965095795e-15
    vertex 2.7759911926078162 1.8080253927009915 5.639932965095795e-15
    vertex 3.137762624954035 1.658174758944047 5.639932965095795e-15
  endloop
endfacet
facet normal 0.0 0.0 -1.0
  outer loop
    vertex 3.5259911926078153 0.10706349837765283 5.639932965095795e-15
    vertex 3.137762624954035 1.658174758944047 5.639932965095795e-15
    vertex 3.5259911926078153 1.6070634983776497 5.639932965095795e-15
  endloop
endfacet
facet normal 0.0 0.0 -1.0
  outer loop
    vertex 3.5259911926078153 0.10706349837765283 5.639932965095795e-15
    vertex 3.5259911926078153 1.6070634983776497 5.639932965095795e-15
    vertex 3.9142197602615973 1.6581747589440476 5.639932965095795e-15
  endloop
endfacet
facet normal 0.0 0.0 -1.0
  outer loop
    vertex 3.5259911926078153 0.10706349837765283 5.639932965095795e-15
    vertex 3.9142197602615973 1.6581747589440476 5.639932965095795e-15
    vertex 4.3024483279154175 0.20928601951048756 5.639932965095795e-15
  endloop
endfacet
facet normal 0.0 0.0 -1.0
  outer loop
    vertex 4.3024483279154175 0.20928601951048756 5.639932965095795e-15
    vertex 3.9142197602615973 1.6581747589440476 5.639932965095795e-15
    vertex 4.275991192607816 1.8080253927009922 5.639932965095795e-15
  endloop
endfacet
facet normal 0.0 0.0 -1.0
  outer loop
    vertex 4.3024483279154175 0.20928601951048756 5.639932965095795e-15
    vertex 4.275991192607816 1.8080253927009922 5.639932965095795e-15
    vertex 4.525991192607815 1.9998571396957319 2.8199664825478975e-15
  endloop
endfacet
facet normal 0.0 0.0 -1.0
  outer loop
    vertex 4.3024483279154175 0.20928601951048756 5.639932965095795e-15
    vertex 4.525991192607815 1.9998571396957319 2.8199664825478975e-15
    vertex 5.02599119260783 0.5089872870243467 5.639932965095795e-15
  endloop
endfacet
facet normal 0.0 0.0 -1.0
  outer loop
    vertex 5.02599119260783 0.5089872870243467 5.639932965095795e-15
    vertex 4.525991192607815 1.9998571396957319 2.8199664825478975e-15
    vertex 5.02599119260783 5.705139709730993 5.639932965095795e-15
  endloop
endfacet
facet normal 0.0 0.0 -1.0
  outer loop
    vertex 5.02599119260783 0.5089872870243467 5.639932965095795e-15
    vertex 5.02599119260783 5.705139709730993 5.639932965095795e-15
    vertex 5.647311536167596 5.228383841937431 5.639932965095795e-15
  endloop
endfacet
facet normal 0.0 0.0 -1.0
  outer loop
    vertex 5.02599119260783 0.5089872870243467 5.639932965095795e-15
    vertex 5.647311536167596 5.228383841937431 5.639932965095795e-15
    vertex 5.647311536167596 0.9857431548180453 5.639932965095795e-15
  endloop
endfacet
facet normal 0.0 0.0 -1.0
  outer loop
    vertex 5.647311536167596 0.9857431548180453 5.639932965095795e-15
    vertex 5.647311536167596 5.228383841937431 5.639932965095795e-15
    vertex 6.12406740396116 4.607063498377667 5.639932965095795e-15
  endloop
endfacet
facet normal 0.0 0.0 -1.0
  outer loop
    vertex 5.647311536167596 0.9857431548180453 5.639932965095795e-15
    vertex 6.12406740396116 4.607063498377667 5.639932965095795e-15
    vertex 6.12406740396116 1.6070634983776297 5.639932965095795e-15
  endloop
endfacet
facet normal 0.0 0.0 -1.0
  outer loop
    vertex 6.12406740396116 1.6070634983776297 5.639932965095795e-15
    vertex 6.12406740396116 4.607063498377667 5.639932965095795e-15
    vertex 6.423768671475017 3.883520633685252 5.639932965095795e-15
  endloop
endfacet
facet normal 0.0 0.0 -1.0
  outer loop
    vertex 6.12406740396116 1.6070634983776297 5.639932965095795e-15
    vertex 6.423768671475017 3.883520633685252 5.639932965095795e-15
    vertex 6.423768671475017 2.3306063630700486 5.639932965095795e-15
  endloop
endfacet
facet normal 0.0 0.0 -1.0
  outer loop
    vertex 6.423768671475017 2.3306063630700486 5.639932965095795e-15
    vertex 6.423768671475017 3.883520633685252 5.639932965095795e-15
    vertex 6.5259911926078455 3.10706349837765 5.639932965095795e-15
  endloop
endfacet
facet normal 0.13052619222005168 -0.9914448613738105 -0.0
  outer loop
    vertex 3.5259911926078153 4.6070634983776495 8.000000000000005
    vertex 3.137762624954034 4.555952237811252 5.639932965095795e-15
    vertex 3.5259911926078153 4.6070634983776495 5.639932965095795e-15
  endloop
endfacet
facet normal 0.13052619222005168 -0.9914448613738105 -0.0
  outer loop
    vertex 3.137762624954034 4.555952237811252 5.639932965095795e-15
    vertex 3.5259911926078153 4.6070634983776495 8.000000000000005
    vertex 3.137762624954034 4.555952237811252 8.000000000000005
  endloop
endfacet
facet normal -0.3826834323650898 -0.9238795325112867 0.0
  outer loop
    vertex 4.2759911926078145 4.406101604054308 8.000000000000005
    vertex 3.914219760261596 4.555952237811253 5.639932965095795e-15
    vertex 4.2759911926078145 4.406101604054308 5.639932965095795e-15
  endloop
endfacet
facet normal -0.3826834323650898 -0.9238795325112867 0.0
  outer loop
    vertex 3.914219760261596 4.555952237811253 5.639932965095795e-15
    vertex 4.2759911926078145 4.406101604054308 8.000000000000005
    vertex 3.914219760261596 4.555952237811253 8.000000000000005
  endloop
endfacet
facet normal -0.13052619222005013 -0.9914448613738106 0.0
  outer loop
    vertex 3.914219760261596 4.555952237811253 8.000000000000005
    vertex 3.5259911926078153 4.6070634983776495 5.639932965095795e-15
    vertex 3.914219760261596 4.555952237811253 5.639932965095795e-15
  endloop
endfacet
facet normal -0.13052619222005013 -0.9914448613738106 0.0
  outer loop
    vertex 3.5259911926078153 4.6070634983776495 5.639932965095795e-15
    vertex 3.914219760261596 4.555952237811253 8.000000000000005
    vertex 3.5259911926078153 4.6070634983776495 8.000000000000005
  endloop
endfacet
facet normal 0.6087614290086646 -0.7933533402912781 -0.0
  outer loop
    vertex 5.647311536167596 0.9857431548180453 10.000000000000004
    vertex 5.02599119260783 0.5089872870243467 5.639932965095795e-15
    vertex 5.647311536167596 0.9857431548180453 5.639932965095795e-15
  endloop
endfacet
facet normal 0.6087614290086646 -0.7933533402912781 -0.0
  outer loop
    vertex 5.02599119260783 0.5089872870243467 5.639932965095795e-15
    vertex 5.647311536167596 0.9857431548180453 10.000000000000004
    vertex 5.02599119260783 0.5089872870243467 10.000000000000004
  endloop
endfacet
facet normal 0.1305261922200947 -0.9914448613738048 -0.0
  outer loop
    vertex 4.3024483279154175 0.20928601951048756 10.000000000000004
    vertex 3.5259911926078153 0.10706349837765283 5.639932965095795e-15
    vertex 4.3024483279154175 0.20928601951048756 5.639932965095795e-15
  endloop
endfacet
facet normal 0.1305261922200947 -0.9914448613738048 -0.0
  outer loop
    vertex 3.5259911926078153 0.10706349837765283 5.639932965095795e-15
    vertex 4.3024483279154175 0.20928601951048756 10.000000000000004
    vertex 3.5259911926078153 0.10706349837765283 10.000000000000004
  endloop
endfacet
facet normal 0.6087614290085553 0.7933533402913622 0.0
  outer loop
    vertex 5.02599119260783 5.705139709730993 10.000000000000004
    vertex 5.647311536167596 5.228383841937431 5.639932965095795e-15
    vertex 5.02599119260783 5.705139709730993 5.639932965095795e-15
  endloop
endfacet
facet normal 0.6087614290085553 0.7933533402913622 0.0
  outer loop
    vertex 5.647311536167596 5.228383841937431 5.639932965095795e-15
    vertex 5.02599119260783 5.705139709730993 10.000000000000004
    vertex 5.647311536167596 5.228383841937431 10.000000000000004
  endloop
endfacet
facet normal 0.38268343236506897 -0.9238795325112955 -0.0
  outer loop
    vertex 5.02599119260783 0.5089872870243467 10.000000000000004
    vertex 4.3024483279154175 0.20928601951048756 5.639932965095795e-15
    vertex 5.02599119260783 0.5089872870243467 5.639932965095795e-15
  endloop
endfacet
facet normal 0.38268343236506897 -0.9238795325112955 -0.0
  outer loop
    vertex 4.3024483279154175 0.20928601951048756 5.639932965095795e-15
    vertex 5.02599119260783 0.5089872870243467 10.000000000000004
    vertex 4.3024483279154175 0.20928601951048756 10.000000000000004
  endloop
endfacet
facet normal 0.7933533402912751 -0.6087614290086686 -0.0
  outer loop
    vertex 6.12406740396116 1.6070634983776297 5.639932965095795e-15
    vertex 5.647311536167596 0.9857431548180453 10.000000000000004
    vertex 5.647311536167596 0.9857431548180453 5.639932965095795e-15
  endloop
endfacet
facet normal 0.7933533402912751 -0.6087614290086686 -0.0
  outer loop
    vertex 5.647311536167596 0.9857431548180453 10.000000000000004
    vertex 6.12406740396116 1.6070634983776297 5.639932965095795e-15
    vertex 6.12406740396116 1.6070634983776297 10.000000000000004
  endloop
endfacet
facet normal -0.6087614290086684 0.7933533402912755 0.0
  outer loop
    vertex 1.4046708490481674 5.228383841937431 10.000000000000004
    vertex 2.0259911926077505 5.705139709730993 5.639932965095795e-15
    vertex 1.4046708490481674 5.228383841937431 5.639932965095795e-15
  endloop
endfacet
facet normal -0.6087614290086684 0.7933533402912755 0.0
  outer loop
    vertex 2.0259911926077505 5.705139709730993 5.639932965095795e-15
    vertex 1.4046708490481674 5.228383841937431 10.000000000000004
    vertex 2.0259911926077505 5.705139709730993 10.000000000000004
  endloop
endfacet
facet normal 0.3826834323650705 0.9238795325112948 0.0
  outer loop
    vertex 4.3024483279154175 6.004840977244854 10.000000000000004
    vertex 5.02599119260783 5.705139709730993 5.639932965095795e-15
    vertex 4.3024483279154175 6.004840977244854 5.639932965095795e-15
  endloop
endfacet
facet normal 0.3826834323650705 0.9238795325112948 0.0
  outer loop
    vertex 5.02599119260783 5.705139709730993 5.639932965095795e-15
    vertex 4.3024483279154175 6.004840977244854 10.000000000000004
    vertex 5.02599119260783 5.705139709730993 10.000000000000004
  endloop
endfacet
facet normal -0.382683432365068 0.923879532511296 0.0
  outer loop
    vertex 2.0259911926077505 5.705139709730993 10.000000000000004
    vertex 2.749534057300168 6.004840977244854 5.639932965095795e-15
    vertex 2.0259911926077505 5.705139709730993 5.639932965095795e-15
  endloop
endfacet
facet normal -0.382683432365068 0.923879532511296 0.0
  outer loop
    vertex 2.749534057300168 6.004840977244854 5.639932965095795e-15
    vertex 2.0259911926077505 5.705139709730993 10.000000000000004
    vertex 2.749534057300168 6.004840977244854 10.000000000000004
  endloop
endfacet
facet normal 0.9914448613738057 0.13052619222008757 0.0
  outer loop
    vertex 6.423768671475017 3.883520633685252 5.639932965095795e-15
    vertex 6.5259911926078455 3.10706349837765 20.000000000000004
    vertex 6.5259911926078455 3.10706349837765 5.639932965095795e-15
  endloop
endfacet
facet normal 0.9914448613738057 0.13052619222008757 0.0
  outer loop
    vertex 6.5259911926078455 3.10706349837765 20.000000000000004
    vertex 6.423768671475017 3.883520633685252 5.639932965095795e-15
    vertex 6.423768671475017 3.883520633685252 20.000000000000004
  endloop
endfacet
facet normal 0.9238795325112977 -0.3826834323650635 -0.0
  outer loop
    vertex 6.423768671475017 2.3306063630700486 5.639932965095795e-15
    vertex 6.12406740396116 1.6070634983776297 10.000000000000004
    vertex 6.12406740396116 1.6070634983776297 5.639932965095795e-15
  endloop
endfacet
facet normal 0.9238795325112977 -0.3826834323650635 -0.0
  outer loop
    vertex 6.12406740396116 1.6070634983776297 10.000000000000004
    vertex 6.423768671475017 2.3306063630700486 5.639932965095795e-15
    vertex 6.12406740396116 1.6070634983776297 20.000000000000004
  endloop
endfacet
facet normal 0.9238795325112977 -0.3826834323650635 -0.0
  outer loop
    vertex 6.12406740396116 1.6070634983776297 20.000000000000004
    vertex 6.423768671475017 2.3306063630700486 5.639932965095795e-15
    vertex 6.423768671475017 2.3306063630700486 20.000000000000004
  endloop
endfacet
facet normal -0.13052619222008727 0.9914448613738057 0.0
  outer loop
    vertex 2.749534057300168 6.004840977244854 10.000000000000004
    vertex 3.5259911926078153 6.107063498377689 5.639932965095795e-15
    vertex 2.749534057300168 6.004840977244854 5.639932965095795e-15
  endloop
endfacet
facet normal -0.13052619222008727 0.9914448613738057 0.0
  outer loop
    vertex 3.5259911926078153 6.107063498377689 5.639932965095795e-15
    vertex 2.749534057300168 6.004840977244854 10.000000000000004
    vertex 3.5259911926078153 6.107063498377689 10.000000000000004
  endloop
endfacet
facet normal 0.9238795325112968 0.38268343236506536 0.0
  outer loop
    vertex 6.12406740396116 4.607063498377667 5.639932965095795e-15
    vertex 6.423768671475017 3.883520633685252 20.000000000000004
    vertex 6.423768671475017 3.883520633685252 5.639932965095795e-15
  endloop
endfacet
facet normal 0.9238795325112968 0.38268343236506536 0.0
  outer loop
    vertex 6.423768671475017 3.883520633685252 20.000000000000004
    vertex 6.12406740396116 4.607063498377667 5.639932965095795e-15
    vertex 6.12406740396116 4.607063498377667 20.000000000000004
  endloop
endfacet
facet normal 0.9238795325112968 0.38268343236506536 0.0
  outer loop
    vertex 6.12406740396116 4.607063498377667 20.000000000000004
    vertex 6.12406740396116 4.607063498377667 5.639932965095795e-15
    vertex 6.12406740396116 4.607063498377667 10.000000000000004
  endloop
endfacet
facet normal 0.79335334029136 0.6087614290085582 0.0
  outer loop
    vertex 5.647311536167596 5.228383841937431 5.639932965095795e-15
    vertex 6.12406740396116 4.607063498377667 10.000000000000004
    vertex 6.12406740396116 4.607063498377667 5.639932965095795e-15
  endloop
endfacet
facet normal 0.79335334029136 0.6087614290085582 0.0
  outer loop
    vertex 6.12406740396116 4.607063498377667 10.000000000000004
    vertex 5.647311536167596 5.228383841937431 5.639932965095795e-15
    vertex 5.647311536167596 5.228383841937431 10.000000000000004
  endloop
endfacet
facet normal -0.7933533402912494 0.608761429008702 0.0
  outer loop
    vertex 1.4046708490481674 5.228383841937431 10.000000000000004
    vertex 0.9279149812544244 4.607063498377667 5.639932965095795e-15
    vertex 0.9279149812544244 4.607063498377667 10.000000000000004
  endloop
endfacet
facet normal -0.7933533402912494 0.608761429008702 0.0
  outer loop
    vertex 0.9279149812544244 4.607063498377667 5.639932965095795e-15
    vertex 1.4046708490481674 5.228383841937431 10.000000000000004
    vertex 1.4046708490481674 5.228383841937431 5.639932965095795e-15
  endloop
endfacet
facet normal 0.0 -1.0 -0.0
  outer loop
    vertex 6.12406740396116 1.6070634983776297 20.000000000000004
    vertex 0.9279149812544244 1.6070634983776297 10.000000000000004
    vertex 6.12406740396116 1.6070634983776297 10.000000000000004
  endloop
endfacet
facet normal 0.0 -1.0 -0.0
  outer loop
    vertex 0.9279149812544244 1.6070634983776297 10.000000000000004
    vertex 6.12406740396116 1.6070634983776297 20.000000000000004
    vertex 0.9279149812544244 1.6070634983776297 20.000000000000004
  endloop
endfacet
facet normal -0.6087614290087207 0.7933533402912352 1.4165227827388826e-19
  outer loop
    vertex 4.275991192607816 1.8080253927009922 5.639932965095795e-15
    vertex 4.525991192607815 1.9998571396957319 8.000000000000005
    vertex 4.525991192607815 1.9998571396957319 2.8199664825478975e-15
  endloop
endfacet
facet normal -0.6087614290087207 0.7933533402912352 1.4165227827388826e-19
  outer loop
    vertex 4.525991192607815 1.9998571396957319 8.000000000000005
    vertex 4.275991192607816 1.8080253927009922 5.639932965095795e-15
    vertex 4.275991192607816 1.8080253927009922 8.000000000000005
  endloop
endfacet
facet normal 0.0 0.0 1.0
  outer loop
    vertex 1.4046708490481674 0.9857431548180453 10.000000000000004
    vertex 6.12406740396116 1.6070634983776297 10.000000000000004
    vertex 0.9279149812544244 1.6070634983776297 10.000000000000004
  endloop
endfacet
facet normal 0.0 0.0 1.0
  outer loop
    vertex 6.12406740396116 1.6070634983776297 10.000000000000004
    vertex 1.4046708490481674 0.9857431548180453 10.000000000000004
    vertex 2.0259911926077505 0.5089872870243467 10.000000000000004
  endloop
endfacet
facet normal 0.0 0.0 1.0
  outer loop
    vertex 6.12406740396116 1.6070634983776297 10.000000000000004
    vertex 2.0259911926077505 0.5089872870243467 10.000000000000004
    vertex 2.749534057300168 0.20928601951048756 10.000000000000004
  endloop
endfacet
facet normal 0.0 0.0 1.0
  outer loop
    vertex 6.12406740396116 1.6070634983776297 10.000000000000004
    vertex 2.749534057300168 0.20928601951048756 10.000000000000004
    vertex 3.5259911926078153 0.10706349837765283 10.000000000000004
  endloop
endfacet
facet normal 0.0 0.0 1.0
  outer loop
    vertex 6.12406740396116 1.6070634983776297 10.000000000000004
    vertex 3.5259911926078153 0.10706349837765283 10.000000000000004
    vertex 4.3024483279154175 0.20928601951048756 10.000000000000004
  endloop
endfacet
facet normal 0.0 0.0 1.0
  outer loop
    vertex 6.12406740396116 1.6070634983776297 10.000000000000004
    vertex 4.3024483279154175 0.20928601951048756 10.000000000000004
    vertex 5.02599119260783 0.5089872870243467 10.000000000000004
  endloop
endfacet
facet normal 0.0 0.0 1.0
  outer loop
    vertex 6.12406740396116 1.6070634983776297 10.000000000000004
    vertex 5.02599119260783 0.5089872870243467 10.000000000000004
    vertex 5.647311536167596 0.9857431548180453 10.000000000000004
  endloop
endfacet
facet normal -0.9238795325112961 0.38268343236506774 0.0
  outer loop
    vertex 0.9279149812544244 4.607063498377667 20.000000000000004
    vertex 0.6282137137405652 3.883520633685252 5.639932965095795e-15
    vertex 0.6282137137405652 3.883520633685252 20.000000000000004
  endloop
endfacet
facet normal -0.9238795325112961 0.38268343236506774 0.0
  outer loop
    vertex 0.6282137137405652 3.883520633685252 5.639932965095795e-15
    vertex 0.9279149812544244 4.607063498377667 20.000000000000004
    vertex 0.9279149812544244 4.607063498377667 5.639932965095795e-15
  endloop
endfacet
facet normal -0.9238795325112961 0.38268343236506774 0.0
  outer loop
    vertex 0.9279149812544244 4.607063498377667 5.639932965095795e-15
    vertex 0.9279149812544244 4.607063498377667 20.000000000000004
    vertex 0.9279149812544244 4.607063498377667 10.000000000000004
  endloop
endfacet
facet normal 0.9238795325112863 0.38268343236509084 0.0
  outer loop
    vertex 2.0771024531742133 2.7188349307238675 5.639932965095795e-15
    vertex 2.226953086931158 2.357063498377649 8.000000000000005
    vertex 2.226953086931158 2.357063498377649 5.639932965095795e-15
  endloop
endfacet
facet normal 0.9238795325112863 0.38268343236509084 0.0
  outer loop
    vertex 2.226953086931158 2.357063498377649 8.000000000000005
    vertex 2.0771024531742133 2.7188349307238675 5.639932965095795e-15
    vertex 2.0771024531742133 2.7188349307238675 8.000000000000005
  endloop
endfacet
facet normal -0.6087614290087777 -0.7933533402911915 0.0
  outer loop
    vertex 2.0259911926077505 0.5089872870243467 10.000000000000004
    vertex 1.4046708490481674 0.9857431548180453 5.639932965095795e-15
    vertex 2.0259911926077505 0.5089872870243467 5.639932965095795e-15
  endloop
endfacet
facet normal -0.6087614290087777 -0.7933533402911915 0.0
  outer loop
    vertex 1.4046708490481674 0.9857431548180453 5.639932965095795e-15
    vertex 2.0259911926077505 0.5089872870243467 10.000000000000004
    vertex 1.4046708490481674 0.9857431548180453 10.000000000000004
  endloop
endfacet
facet normal 0.13052619222005116 0.9914448613738106 0.0
  outer loop
    vertex 3.137762624954035 1.658174758944047 8.000000000000005
    vertex 3.5259911926078153 1.6070634983776497 5.639932965095795e-15
    vertex 3.137762624954035 1.658174758944047 5.639932965095795e-15
  endloop
endfacet
facet normal 0.13052619222005116 0.9914448613738106 0.0
  outer loop
    vertex 3.5259911926078153 1.6070634983776497 5.639932965095795e-15
    vertex 3.137762624954035 1.658174758944047 8.000000000000005
    vertex 3.5259911926078153 1.6070634983776497 8.000000000000005
  endloop
endfacet
facet normal 0.3826834323650898 0.9238795325112867 0.0
  outer loop
    vertex 2.7759911926078162 1.8080253927009915 8.000000000000005
    vertex 3.137762624954035 1.658174758944047 5.639932965095795e-15
    vertex 2.7759911926078162 1.8080253927009915 5.639932965095795e-15
  endloop
endfacet
facet normal 0.3826834323650898 0.9238795325112867 0.0
  outer loop
    vertex 3.137762624954035 1.658174758944047 5.639932965095795e-15
    vertex 2.7759911926078162 1.8080253927009915 8.000000000000005
    vertex 3.137762624954035 1.658174758944047 8.000000000000005
  endloop
endfacet
facet normal 0.9238795325112867 -0.3826834323650898 -0.0
  outer loop
    vertex 2.2269530869311573 3.8570634983776495 5.639932965095795e-15
    vertex 2.077102453174213 3.4952920660314306 8.000000000000005
    vertex 2.077102453174213 3.4952920660314306 5.639932965095795e-15
  endloop
endfacet
facet normal 0.9238795325112867 -0.3826834323650898 -0.0
  outer loop
    vertex 2.077102453174213 3.4952920660314306 8.000000000000005
    vertex 2.2269530869311573 3.8570634983776495 5.639932965095795e-15
    vertex 2.2269530869311573 3.8570634983776495 8.000000000000005
  endloop
endfacet
facet normal 0.7933533402912352 0.6087614290087205 0.0
  outer loop
    vertex 2.226953086931158 2.357063498377649 5.639932965095795e-15
    vertex 2.465331020827994 2.0464033265978285 8.000000000000005
    vertex 2.465331020827994 2.0464033265978285 5.639932965095795e-15
  endloop
endfacet
facet normal 0.7933533402912352 0.6087614290087205 0.0
  outer loop
    vertex 2.465331020827994 2.0464033265978285 8.000000000000005
    vertex 2.226953086931158 2.357063498377649 5.639932965095795e-15
    vertex 2.226953086931158 2.357063498377649 8.000000000000005
  endloop
endfacet
facet normal -0.13052619222005232 0.9914448613738103 0.0
  outer loop
    vertex 3.5259911926078153 1.6070634983776497 8.000000000000005
    vertex 3.9142197602615973 1.6581747589440476 5.639932965095795e-15
    vertex 3.5259911926078153 1.6070634983776497 5.639932965095795e-15
  endloop
endfacet
facet normal -0.13052619222005232 0.9914448613738103 0.0
  outer loop
    vertex 3.9142197602615973 1.6581747589440476 5.639932965095795e-15
    vertex 3.5259911926078153 1.6070634983776497 8.000000000000005
    vertex 3.9142197602615973 1.6581747589440476 8.000000000000005
  endloop
endfacet
facet normal -0.3826834323650898 0.9238795325112867 0.0
  outer loop
    vertex 3.9142197602615973 1.6581747589440476 8.000000000000005
    vertex 4.275991192607816 1.8080253927009922 5.639932965095795e-15
    vertex 3.9142197602615973 1.6581747589440476 5.639932965095795e-15
  endloop
endfacet
facet normal -0.3826834323650898 0.9238795325112867 0.0
  outer loop
    vertex 4.275991192607816 1.8080253927009922 5.639932965095795e-15
    vertex 3.9142197602615973 1.6581747589440476 8.000000000000005
    vertex 4.275991192607816 1.8080253927009922 8.000000000000005
  endloop
endfacet
facet normal -0.38268343236506636 -0.9238795325112964 0.0
  outer loop
    vertex 2.749534057300168 0.20928601951048756 10.000000000000004
    vertex 2.0259911926077505 0.5089872870243467 5.639932965095795e-15
    vertex 2.749534057300168 0.20928601951048756 5.639932965095795e-15
  endloop
endfacet
facet normal -0.38268343236506636 -0.9238795325112964 0.0
  outer loop
    vertex 2.0259911926077505 0.5089872870243467 5.639932965095795e-15
    vertex 2.749534057300168 0.20928601951048756 10.000000000000004
    vertex 2.0259911926077505 0.5089872870243467 10.000000000000004
  endloop
endfacet
facet normal 0.0 0.0 -1.0
  outer loop
    vertex 2.077102453174213 3.4952920660314306 8.000000000000005
    vertex 2.0771024531742133 2.7188349307238675 8.000000000000005
    vertex 2.0259911926078153 3.10706349837765 8.000000000000005
  endloop
endfacet
facet normal 0.0 0.0 -1.0
  outer loop
    vertex 2.0771024531742133 2.7188349307238675 8.000000000000005
    vertex 2.077102453174213 3.4952920660314306 8.000000000000005
    vertex 2.2269530869311573 3.8570634983776495 8.000000000000005
  endloop
endfacet
facet normal 0.0 0.0 -1.0
  outer loop
    vertex 2.0771024531742133 2.7188349307238675 8.000000000000005
    vertex 2.2269530869311573 3.8570634983776495 8.000000000000005
    vertex 2.226953086931158 2.357063498377649 8.000000000000005
  endloop
endfacet
facet normal 0.0 0.0 -1.0
  outer loop
    vertex 2.226953086931158 2.357063498377649 8.000000000000005
    vertex 2.2269530869311573 3.8570634983776495 8.000000000000005
    vertex 2.465331020827994 4.167723670157471 8.000000000000005
  endloop
endfacet
facet normal 0.0 0.0 -1.0
  outer loop
    vertex 2.226953086931158 2.357063498377649 8.000000000000005
    vertex 2.465331020827994 4.167723670157471 8.000000000000005
    vertex 2.465331020827994 2.0464033265978285 8.000000000000005
  endloop
endfacet
facet normal 0.0 0.0 -1.0
  outer loop
    vertex 2.465331020827994 2.0464033265978285 8.000000000000005
    vertex 2.465331020827994 4.167723670157471 8.000000000000005
    vertex 2.7759911926078153 4.4061016040543075 8.000000000000005
  endloop
endfacet
facet normal 0.0 0.0 -1.0
  outer loop
    vertex 2.465331020827994 2.0464033265978285 8.000000000000005
    vertex 2.7759911926078153 4.4061016040543075 8.000000000000005
    vertex 2.7759911926078162 1.8080253927009915 8.000000000000005
  endloop
endfacet
facet normal 0.0 0.0 -1.0
  outer loop
    vertex 2.7759911926078162 1.8080253927009915 8.000000000000005
    vertex 2.7759911926078153 4.4061016040543075 8.000000000000005
    vertex 3.137762624954034 4.555952237811252 8.000000000000005
  endloop
endfacet
facet normal 0.0 0.0 -1.0
  outer loop
    vertex 2.7759911926078162 1.8080253927009915 8.000000000000005
    vertex 3.137762624954034 4.555952237811252 8.000000000000005
    vertex 3.137762624954035 1.658174758944047 8.000000000000005
  endloop
endfacet
facet normal 0.0 0.0 -1.0
  outer loop
    vertex 3.137762624954035 1.658174758944047 8.000000000000005
    vertex 3.137762624954034 4.555952237811252 8.000000000000005
    vertex 3.5259911926078153 4.6070634983776495 8.000000000000005
  endloop
endfacet
facet normal 0.0 0.0 -1.0
  outer loop
    vertex 3.137762624954035 1.658174758944047 8.000000000000005
    vertex 3.5259911926078153 4.6070634983776495 8.000000000000005
    vertex 3.5259911926078153 1.6070634983776497 8.000000000000005
  endloop
endfacet
facet normal 0.0 0.0 -1.0
  outer loop
    vertex 3.5259911926078153 1.6070634983776497 8.000000000000005
    vertex 3.5259911926078153 4.6070634983776495 8.000000000000005
    vertex 3.914219760261596 4.555952237811253 8.000000000000005
  endloop
endfacet
facet normal 0.0 0.0 -1.0
  outer loop
    vertex 3.5259911926078153 1.6070634983776497 8.000000000000005
    vertex 3.914219760261596 4.555952237811253 8.000000000000005
    vertex 3.9142197602615973 1.6581747589440476 8.000000000000005
  endloop
endfacet
facet normal 0.0 0.0 -1.0
  outer loop
    vertex 3.9142197602615973 1.6581747589440476 8.000000000000005
    vertex 3.914219760261596 4.555952237811253 8.000000000000005
    vertex 4.2759911926078145 4.406101604054308 8.000000000000005
  endloop
endfacet
facet normal 0.0 0.0 -1.0
  outer loop
    vertex 3.9142197602615973 1.6581747589440476 8.000000000000005
    vertex 4.2759911926078145 4.406101604054308 8.000000000000005
    vertex 4.275991192607816 1.8080253927009922 8.000000000000005
  endloop
endfacet
facet normal 0.0 0.0 -1.0
  outer loop
    vertex 4.275991192607816 1.8080253927009922 8.000000000000005
    vertex 4.2759911926078145 4.406101604054308 8.000000000000005
    vertex 4.525991192607815 4.214269857059568 8.000000000000005
  endloop
endfacet
facet normal 0.0 0.0 -1.0
  outer loop
    vertex 4.275991192607816 1.8080253927009922 8.000000000000005
    vertex 4.525991192607815 4.214269857059568 8.000000000000005
    vertex 4.525991192607815 1.9998571396957319 8.000000000000005
  endloop
endfacet
facet normal 0.7933533402912354 -0.6087614290087205 -0.0
  outer loop
    vertex 2.465331020827994 4.167723670157471 5.639932965095795e-15
    vertex 2.2269530869311573 3.8570634983776495 8.000000000000005
    vertex 2.2269530869311573 3.8570634983776495 5.639932965095795e-15
  endloop
endfacet
facet normal 0.7933533402912354 -0.6087614290087205 -0.0
  outer loop
    vertex 2.2269530869311573 3.8570634983776495 8.000000000000005
    vertex 2.465331020827994 4.167723670157471 5.639932965095795e-15
    vertex 2.465331020827994 4.167723670157471 8.000000000000005
  endloop
endfacet
facet normal 0.0 1.0 0.0
  outer loop
    vertex 0.9279149812544244 4.607063498377667 20.000000000000004
    vertex 6.12406740396116 4.607063498377667 10.000000000000004
    vertex 0.9279149812544244 4.607063498377667 10.000000000000004
  endloop
endfacet
facet normal 0.0 1.0 0.0
  outer loop
    vertex 6.12406740396116 4.607063498377667 10.000000000000004
    vertex 0.9279149812544244 4.607063498377667 20.000000000000004
    vertex 6.12406740396116 4.607063498377667 20.000000000000004
  endloop
endfacet
facet normal 0.9914448613738104 -0.1305261922200518 -0.0
  outer loop
    vertex 2.077102453174213 3.4952920660314306 5.639932965095795e-15
    vertex 2.0259911926078153 3.10706349837765 8.000000000000005
    vertex 2.0259911926078153 3.10706349837765 5.639932965095795e-15
  endloop
endfacet
facet normal 0.9914448613738104 -0.1305261922200518 -0.0
  outer loop
    vertex 2.0259911926078153 3.10706349837765 8.000000000000005
    vertex 2.077102453174213 3.4952920660314306 5.639932965095795e-15
    vertex 2.077102453174213 3.4952920660314306 8.000000000000005
  endloop
endfacet
facet normal 0.60876142900872 0.7933533402912356 0.0
  outer loop
    vertex 2.465331020827994 2.0464033265978285 8.000000000000005
    vertex 2.7759911926078162 1.8080253927009915 5.639932965095795e-15
    vertex 2.465331020827994 2.0464033265978285 5.639932965095795e-15
  endloop
endfacet
facet normal 0.60876142900872 0.7933533402912356 0.0
  outer loop
    vertex 2.7759911926078162 1.8080253927009915 5.639932965095795e-15
    vertex 2.465331020827994 2.0464033265978285 8.000000000000005
    vertex 2.7759911926078162 1.8080253927009915 8.000000000000005
  endloop
endfacet
facet normal 0.9914448613738104 0.1305261922200522 0.0
  outer loop
    vertex 2.0259911926078153 3.10706349837765 5.639932965095795e-15
    vertex 2.0771024531742133 2.7188349307238675 8.000000000000005
    vertex 2.0771024531742133 2.7188349307238675 5.639932965095795e-15
  endloop
endfacet
facet normal 0.9914448613738104 0.1305261922200522 0.0
  outer loop
    vertex 2.0771024531742133 2.7188349307238675 8.000000000000005
    vertex 2.0259911926078153 3.10706349837765 5.639932965095795e-15
    vertex 2.0259911926078153 3.10706349837765 8.000000000000005
  endloop
endfacet
facet normal -1.0 0.0 0.0
  outer loop
    vertex 4.525991192607815 4.214269857059568 8.000000000000005
    vertex 4.525991192607815 1.9998571396957319 2.8199664825478975e-15
    vertex 4.525991192607815 1.9998571396957319 8.000000000000005
  endloop
endfacet
facet normal -1.0 0.0 0.0
  outer loop
    vertex 4.525991192607815 1.9998571396957319 2.8199664825478975e-15
    vertex 4.525991192607815 4.214269857059568 8.000000000000005
    vertex 4.525991192607815 4.214269857059568 2.8199664825478975e-15
  endloop
endfacet
facet normal -0.7933533402911647 -0.6087614290088125 0.0
  outer loop
    vertex 0.9279149812544244 1.6070634983776297 10.000000000000004
    vertex 1.4046708490481674 0.9857431548180453 5.639932965095795e-15
    vertex 1.4046708490481674 0.9857431548180453 10.000000000000004
  endloop
endfacet
facet normal -0.7933533402911647 -0.6087614290088125 0.0
  outer loop
    vertex 1.4046708490481674 0.9857431548180453 5.639932965095795e-15
    vertex 0.9279149812544244 1.6070634983776297 10.000000000000004
    vertex 0.9279149812544244 1.6070634983776297 5.639932965095795e-15
  endloop
endfacet
facet normal -0.13052619222008727 -0.9914448613738057 0.0
  outer loop
    vertex 3.5259911926078153 0.10706349837765283 10.000000000000004
    vertex 2.749534057300168 0.20928601951048756 5.639932965095795e-15
    vertex 3.5259911926078153 0.10706349837765283 5.639932965095795e-15
  endloop
endfacet
facet normal -0.13052619222008727 -0.9914448613738057 0.0
  outer loop
    vertex 2.749534057300168 0.20928601951048756 5.639932965095795e-15
    vertex 3.5259911926078153 0.10706349837765283 10.000000000000004
    vertex 2.749534057300168 0.20928601951048756 10.000000000000004
  endloop
endfacet
facet normal 0.0 0.0 1.0
  outer loop
    vertex 6.12406740396116 4.607063498377667 10.000000000000004
    vertex 1.4046708490481674 5.228383841937431 10.000000000000004
    vertex 0.9279149812544244 4.607063498377667 10.000000000000004
  endloop
endfacet
facet normal 0.0 0.0 1.0
  outer loop
    vertex 1.4046708490481674 5.228383841937431 10.000000000000004
    vertex 6.12406740396116 4.607063498377667 10.000000000000004
    vertex 2.0259911926077505 5.705139709730993 10.000000000000004
  endloop
endfacet
facet normal 0.0 0.0 1.0
  outer loop
    vertex 2.0259911926077505 5.705139709730993 10.000000000000004
    vertex 6.12406740396116 4.607063498377667 10.000000000000004
    vertex 2.749534057300168 6.004840977244854 10.000000000000004
  endloop
endfacet
facet normal 0.0 0.0 1.0
  outer loop
    vertex 2.749534057300168 6.004840977244854 10.000000000000004
    vertex 6.12406740396116 4.607063498377667 10.000000000000004
    vertex 3.5259911926078153 6.107063498377689 10.000000000000004
  endloop
endfacet
facet normal 0.0 0.0 1.0
  outer loop
    vertex 3.5259911926078153 6.107063498377689 10.000000000000004
    vertex 6.12406740396116 4.607063498377667 10.000000000000004
    vertex 4.3024483279154175 6.004840977244854 10.000000000000004
  endloop
endfacet
facet normal 0.0 0.0 1.0
  outer loop
    vertex 4.3024483279154175 6.004840977244854 10.000000000000004
    vertex 6.12406740396116 4.607063498377667 10.000000000000004
    vertex 5.02599119260783 5.705139709730993 10.000000000000004
  endloop
endfacet
facet normal 0.0 0.0 1.0
  outer loop
    vertex 5.02599119260783 5.705139709730993 10.000000000000004
    vertex 6.12406740396116 4.607063498377667 10.000000000000004
    vertex 5.647311536167596 5.228383841937431 10.000000000000004
  endloop
endfacet
facet normal -0.9238795325112967 -0.3826834323650658 0.0
  outer loop
    vertex 0.6282137137405652 2.3306063630700486 20.000000000000004
    vertex 0.9279149812544244 1.6070634983776297 10.000000000000004
    vertex 0.9279149812544244 1.6070634983776297 20.000000000000004
  endloop
endfacet
facet normal -0.9238795325112967 -0.3826834323650658 0.0
  outer loop
    vertex 0.9279149812544244 1.6070634983776297 10.000000000000004
    vertex 0.6282137137405652 2.3306063630700486 20.000000000000004
    vertex 0.9279149812544244 1.6070634983776297 5.639932965095795e-15
  endloop
endfacet
facet normal -0.9238795325112967 -0.3826834323650658 0.0
  outer loop
    vertex 0.9279149812544244 1.6070634983776297 5.639932965095795e-15
    vertex 0.6282137137405652 2.3306063630700486 20.000000000000004
    vertex 0.6282137137405652 2.3306063630700486 5.639932965095795e-15
  endloop
endfacet
facet normal 0.0 0.0 1.0
  outer loop
    vertex 0.6282137137405652 2.3306063630700486 20.000000000000004
    vertex 0.6282137137405652 3.883520633685252 20.000000000000004
    vertex 0.5259911926077305 3.10706349837765 20.000000000000004
  endloop
endfacet
facet normal 0.0 0.0 1.0
  outer loop
    vertex 0.6282137137405652 3.883520633685252 20.000000000000004
    vertex 0.6282137137405652 2.3306063630700486 20.000000000000004
    vertex 0.9279149812544244 1.6070634983776297 20.000000000000004
  endloop
endfacet
facet normal 0.0 0.0 1.0
  outer loop
    vertex 0.6282137137405652 3.883520633685252 20.000000000000004
    vertex 0.9279149812544244 1.6070634983776297 20.000000000000004
    vertex 0.9279149812544244 4.607063498377667 20.000000000000004
  endloop
endfacet
facet normal 0.0 0.0 1.0
  outer loop
    vertex 0.9279149812544244 4.607063498377667 20.000000000000004
    vertex 0.9279149812544244 1.6070634983776297 20.000000000000004
    vertex 6.12406740396116 1.6070634983776297 20.000000000000004
  endloop
endfacet
facet normal 0.0 0.0 1.0
  outer loop
    vertex 0.9279149812544244 4.607063498377667 20.000000000000004
    vertex 6.12406740396116 1.6070634983776297 20.000000000000004
    vertex 6.12406740396116 4.607063498377667 20.000000000000004
  endloop
endfacet
facet normal 0.0 0.0 1.0
  outer loop
    vertex 6.12406740396116 4.607063498377667 20.000000000000004
    vertex 6.12406740396116 1.6070634983776297 20.000000000000004
    vertex 6.423768671475017 2.3306063630700486 20.000000000000004
  endloop
endfacet
facet normal 0.0 0.0 1.0
  outer loop
    vertex 6.12406740396116 4.607063498377667 20.000000000000004
    vertex 6.423768671475017 2.3306063630700486 20.000000000000004
    vertex 6.423768671475017 3.883520633685252 20.000000000000004
  endloop
endfacet
facet normal 0.0 0.0 1.0
  outer loop
    vertex 6.423768671475017 3.883520633685252 20.000000000000004
    vertex 6.423768671475017 2.3306063630700486 20.000000000000004
    vertex 6.5259911926078455 3.10706349837765 20.000000000000004
  endloop
endfacet
endsolid Motor Adapter
